<?xml version="1.0" encoding="utf-8"?>
<!-- Generator: Adobe Illustrator 17.0.0, SVG Export Plug-In . SVG Version: 6.00 Build 0)  -->
<!DOCTYPE svg PUBLIC "-//W3C//DTD SVG 1.1//EN" "http://www.w3.org/Graphics/SVG/1.1/DTD/svg11.dtd">
<svg version="1.1" id="Calque_1" xmlns="http://www.w3.org/2000/svg" xmlns:xlink="http://www.w3.org/1999/xlink" x="0px" y="0px"
	 viewBox="66.651 166.86 37.417 38" enable-background="new 66.651 166.86 37.417 38"
	 xml:space="preserve">
<polygon opacity="0.8" fill="#009444" points="81.015,199.769 94.084,185.925 99.65,204.061 "/>
<polygon fill="#006838" points="67.551,193.066 82.223,169.386 95.585,193.816 "/>
<polygon fill="#009444" points="70.398,196.296 87.865,168.106 103.771,197.188 "/>
<polygon opacity="0.8" fill="#8DC63F" points="79.563,198.545 73.176,186.868 80.189,175.549 93.589,175.908 99.976,187.585 
	92.963,198.904 "/>
<path fill="#FFFFFF" d="M95.573,187.677c-0.129,4.74-4.112,8.479-8.896,8.351c-4.784-0.128-8.557-4.074-8.428-8.814
	c0.129-4.74,4.112-8.479,8.896-8.351S95.703,182.937,95.573,187.677z"/>
<ellipse transform="matrix(0.9996 0.0267 -0.0267 0.9996 4.9423 -1.7764)" fill="#006838" cx="68.879" cy="183.873" rx="1.427" ry="1.413"/>
<ellipse transform="matrix(0.9996 0.0267 -0.0267 0.9996 4.7929 -2.5943)" opacity="0.9" fill="#8DC63F" cx="99.382" cy="177.881" rx="2.061" ry="2.042"/>
<polygon opacity="0.8" fill="#006838" points="74.342,199.74 72.584,196.527 74.514,193.413 78.201,193.511 79.959,196.724 
	78.029,199.839 "/>
</image>
</svg>
