<?xml version="1.0" encoding="utf-8"?>
<!-- Generator: Adobe Illustrator 17.0.0, SVG Export Plug-In . SVG Version: 6.00 Build 0)  -->
<!DOCTYPE svg PUBLIC "-//W3C//DTD SVG 1.1//EN" "http://www.w3.org/Graphics/SVG/1.1/DTD/svg11.dtd">
<svg version="1.1" id="Calque_1" xmlns="http://www.w3.org/2000/svg" xmlns:xlink="http://www.w3.org/1999/xlink" x="0px" y="0px"
	 width="97.924px" height="96.577px" viewBox="0 0 97.924 96.577" enable-background="new 0 0 97.924 96.577" xml:space="preserve">
<circle opacity="0.7" fill="#1C003E" cx="59.039" cy="48.159" r="30.871"/>
<path fill="#2B3990" d="M17.26,83.117c0.166-0.062,0.33-0.123,0.485-0.186c-0.154-0.623-0.314-1.309-0.621-0.389
	c0.307-0.92,0.467-0.234,0.621,0.389c0.269-0.11,0.507-0.23,0.667-0.389c-0.156,0.781-0.274,1.067-0.373,1.083
	c0.156,0.096,0.314,0.186,0.473,0.277c0.772-0.071,1.55-0.073,2.476-0.073l-0.644,0.644c5.795-1.932,11.589-3.863,18.028-1.932
	c-6.439-1.932-12.233,0-18.028,1.932l0.644-0.644c-0.926,0-1.704,0.002-2.476,0.073c2.657,1.525,5.734,2.401,9.017,2.401
	c4.164,0,8.001-1.403,11.064-3.761c4.308-3.318,7.084-8.528,7.084-14.386c0-10.023-8.125-18.148-18.148-18.148
	c-10.023,0-18.148,8.125-18.148,18.148C9.381,74.366,12.503,79.846,17.26,83.117z"/>
<circle fill="#263795" cx="49.961" cy="47.398" r="36.694"/>
<path fill="#92278F" d="M4.813,35.245c0.06-0.023,0.12-0.045,0.177-0.068c-0.056-0.227-0.114-0.476-0.226-0.142
	c0.112-0.335,0.17-0.085,0.226,0.142c0.098-0.04,0.185-0.084,0.243-0.142c-0.057,0.284-0.1,0.388-0.136,0.394
	c0.057,0.035,0.114,0.068,0.172,0.101c0.281-0.026,0.564-0.027,0.901-0.027l-0.234,0.234c2.109-0.703,4.218-1.406,6.561-0.703
	c-2.343-0.703-4.452,0-6.561,0.703l0.234-0.234c-0.337,0-0.62,0.001-0.901,0.027c0.967,0.555,2.087,0.874,3.282,0.874
	c1.516,0,2.912-0.511,4.027-1.369c1.568-1.208,2.578-3.104,2.578-5.236c0-3.648-2.957-6.605-6.605-6.605
	c-3.648,0-6.605,2.957-6.605,6.605C1.945,32.06,3.081,34.055,4.813,35.245z"/>
<path fill="#1C003E" d="M2.144,73.662c0.016-0.006,0.032-0.012,0.047-0.018c-0.015-0.06-0.03-0.126-0.06-0.037
	c0.029-0.088,0.045-0.023,0.06,0.037c0.026-0.011,0.049-0.022,0.064-0.037c-0.015,0.075-0.026,0.103-0.036,0.104
	c0.015,0.009,0.03,0.018,0.045,0.027c0.074-0.007,0.149-0.007,0.238-0.007L2.44,73.792c0.557-0.186,1.114-0.371,1.733-0.186
	c-0.619-0.186-1.176,0-1.733,0.186l0.062-0.062c-0.089,0-0.164,0-0.238,0.007c0.255,0.147,0.551,0.231,0.867,0.231
	c0.4,0,0.769-0.135,1.063-0.362c0.414-0.319,0.681-0.82,0.681-1.383c0-0.963-0.781-1.744-1.744-1.744
	c-0.963,0-1.744,0.781-1.744,1.744C1.386,72.82,1.686,73.347,2.144,73.662z"/>
<path fill="#2B3990" d="M85.577,20.342c0.072-0.027,0.144-0.053,0.211-0.081c-0.067-0.271-0.137-0.569-0.27-0.169
	c0.133-0.4,0.203-0.102,0.27,0.169c0.117-0.048,0.22-0.1,0.29-0.169c-0.068,0.339-0.119,0.464-0.162,0.471
	c0.068,0.042,0.137,0.081,0.206,0.12c0.335-0.031,0.673-0.032,1.076-0.032l-0.28,0.28c2.518-0.839,5.035-1.678,7.833-0.839
	c-2.797-0.839-5.315,0-7.833,0.839l0.28-0.28c-0.402,0-0.74,0.001-1.076,0.032c1.154,0.663,2.491,1.043,3.918,1.043
	c1.809,0,3.476-0.609,4.807-1.634c1.872-1.442,3.078-3.705,3.078-6.25c0-4.355-3.53-7.885-7.885-7.885
	c-4.355,0-7.885,3.53-7.885,7.885C82.154,16.54,83.51,18.921,85.577,20.342z"/>
<path fill="#2B3990" d="M58.665,95.826c0.039-0.015,0.078-0.029,0.114-0.044c-0.036-0.147-0.074-0.308-0.146-0.092
	c0.072-0.217,0.11-0.055,0.146,0.092c0.063-0.026,0.12-0.054,0.157-0.092c-0.037,0.184-0.065,0.251-0.088,0.255
	c0.037,0.023,0.074,0.044,0.111,0.065c0.182-0.017,0.365-0.017,0.583-0.017l-0.152,0.152c1.366-0.455,2.731-0.91,4.249-0.455
	c-1.517-0.455-2.883,0-4.249,0.455l0.152-0.152c-0.218,0-0.402,0-0.583,0.017c0.626,0.359,1.351,0.566,2.125,0.566
	c0.981,0,1.886-0.331,2.608-0.886c1.015-0.782,1.67-2.01,1.67-3.391c0-2.362-1.915-4.277-4.277-4.277
	c-2.362,0-4.277,1.915-4.277,4.277C56.809,93.763,57.544,95.055,58.665,95.826z"/>
<path fill="#662D91" d="M63.734,84.437c0.075-0.028,0.149-0.055,0.219-0.084c-0.069-0.282-0.142-0.592-0.281-0.176
	c0.139-0.416,0.211-0.106,0.281,0.176c0.122-0.05,0.23-0.104,0.302-0.176c-0.071,0.353-0.124,0.483-0.169,0.49
	c0.07,0.043,0.142,0.084,0.214,0.125c0.349-0.032,0.701-0.033,1.12-0.033l-0.291,0.291c2.621-0.874,5.242-1.747,8.155-0.874
	c-2.912-0.874-5.533,0-8.155,0.874l0.291-0.291c-0.419,0-0.771,0.001-1.12,0.033c1.202,0.69,2.594,1.086,4.079,1.086
	c1.884,0,3.619-0.634,5.004-1.701c1.949-1.501,3.204-3.858,3.204-6.507c0-4.534-3.675-8.209-8.209-8.209
	c-4.534,0-8.209,3.675-8.209,8.209C60.17,80.479,61.582,82.957,63.734,84.437z"/>
<path fill="#662D91" d="M39.714,15.472c0.077-0.029,0.154-0.057,0.227-0.087c-0.072-0.291-0.147-0.612-0.29-0.182
	c0.143-0.43,0.218-0.109,0.29,0.182c0.126-0.051,0.237-0.107,0.312-0.182c-0.073,0.365-0.128,0.499-0.174,0.506
	c0.073,0.045,0.147,0.087,0.221,0.13c0.361-0.033,0.724-0.034,1.157-0.034l-0.301,0.301c2.708-0.903,5.416-1.805,8.424-0.903
	c-3.009-0.903-5.717,0-8.424,0.903l0.301-0.301c-0.433,0-0.796,0.001-1.157,0.034c1.242,0.713,2.679,1.122,4.214,1.122
	c1.946,0,3.739-0.655,5.17-1.758c2.013-1.551,3.31-3.985,3.31-6.723c0-4.684-3.797-8.48-8.48-8.48c-4.684,0-8.48,3.797-8.48,8.48
	C36.032,11.382,37.491,13.943,39.714,15.472z"/>
<path fill="#92278F" d="M91.125,73.134c0.023-0.009,0.046-0.017,0.067-0.026c-0.021-0.086-0.043-0.18-0.086-0.054
	c0.042-0.127,0.064-0.032,0.086,0.054c0.037-0.015,0.07-0.032,0.092-0.054c-0.022,0.108-0.038,0.147-0.051,0.149
	c0.021,0.013,0.043,0.026,0.065,0.038c0.106-0.01,0.214-0.01,0.341-0.01l-0.089,0.089c0.799-0.266,1.597-0.532,2.485-0.266
	c-0.887-0.266-1.686,0-2.485,0.266l0.089-0.089c-0.128,0-0.235,0-0.341,0.01c0.366,0.21,0.79,0.331,1.243,0.331
	c0.574,0,1.103-0.193,1.525-0.518c0.594-0.457,0.976-1.175,0.976-1.983c0-1.381-1.12-2.501-2.501-2.501
	c-1.381,0-2.501,1.12-2.501,2.501C90.039,71.928,90.469,72.683,91.125,73.134z"/>
</svg>
