<?xml version="1.0" encoding="utf-8"?>
<!-- Generator: Adobe Illustrator 17.0.0, SVG Export Plug-In . SVG Version: 6.00 Build 0)  -->
<!DOCTYPE svg PUBLIC "-//W3C//DTD SVG 1.1//EN" "http://www.w3.org/Graphics/SVG/1.1/DTD/svg11.dtd">
<svg version="1.1" id="Calque_1" xmlns="http://www.w3.org/2000/svg" xmlns:xlink="http://www.w3.org/1999/xlink" x="0px" y="0px"
	 width="113.386px" height="113.386px" viewBox="0 0 113.386 113.386" enable-background="new 0 0 113.386 113.386"
	 xml:space="preserve">
<polygon fill="#F15A29" points="74.045,68.141 78.822,48.763 97.993,43.211 112.386,57.038 107.609,76.416 88.438,81.968 "/>
<polygon fill="#F15A29" points="75.1,30.298 77.945,18.761 89.359,15.455 97.929,23.687 95.084,35.225 83.67,38.531 "/>
<polygon fill="#EF4136" points="92.1,32.82 94.117,24.636 102.214,22.291 108.294,28.131 106.276,36.315 98.179,38.66 "/>
<polygon fill="#4C0000" points="6.937,81.894 13.785,54.118 41.263,46.16 61.894,65.978 55.047,93.754 27.568,101.712 "/>
<polygon fill="#ED1C24" points="36.384,90.729 17.179,57.464 36.384,24.2 74.794,24.2 93.999,57.464 74.794,90.729 "/>
<polygon fill="#4C0000" points="77.582,37.932 65.724,33.951 63.243,21.692 72.619,13.413 84.477,17.394 86.958,29.653 "/>
<polygon opacity="0.8" fill="#EF4136" points="16.692,28.909 18.031,23.48 23.402,21.924 27.434,25.798 26.096,31.227 
	20.725,32.783 "/>
<polygon opacity="0.8" fill="#EF4136" points="66.035,100.183 67.374,94.754 72.745,93.199 76.777,97.072 75.439,102.502 
	70.068,104.057 "/>
</svg>
