<?xml version="1.0" encoding="utf-8"?>
<!-- Generator: Adobe Illustrator 17.0.0, SVG Export Plug-In . SVG Version: 6.00 Build 0)  -->
<!DOCTYPE svg PUBLIC "-//W3C//DTD SVG 1.1//EN" "http://www.w3.org/Graphics/SVG/1.1/DTD/svg11.dtd">
<svg version="1.1" id="Calque_1" xmlns="http://www.w3.org/2000/svg" xmlns:xlink="http://www.w3.org/1999/xlink" x="0px" y="0px"
	 width="113.386px" height="113.386px" viewBox="0 0 113.386 113.386" enable-background="new 0 0 113.386 113.386"
	 xml:space="preserve">
<polygon fill="#FBB040" stroke="#FBB040" stroke-linecap="round" stroke-linejoin="round" stroke-miterlimit="10" points="
	10.911,90.579 15.688,71.201 34.859,65.65 49.252,79.476 44.475,98.854 25.305,104.406 "/>
<polygon fill="#FBB040" stroke="#FBB040" stroke-linecap="round" stroke-linejoin="round" stroke-miterlimit="10" points="
	81.568,42.374 84.412,30.836 95.826,27.531 104.396,35.763 101.552,47.301 90.137,50.606 "/>
<polygon fill="#F9ED32" stroke="#F9ED32" stroke-linecap="round" stroke-linejoin="round" stroke-miterlimit="10" points="
	88.299,85.246 90.317,77.062 98.414,74.717 104.493,80.556 102.475,88.741 94.378,91.086 "/>
<polygon fill="#F15A29" stroke="#F15A29" stroke-linecap="round" stroke-linejoin="round" stroke-miterlimit="10" points="
	16.821,41.878 22.103,20.451 43.301,14.312 59.216,29.6 53.933,51.027 32.736,57.166 "/>
<polygon fill="#F7941E" stroke="#F7941E" stroke-linecap="round" stroke-linejoin="round" stroke-miterlimit="10" points="
	38.753,89.533 19.548,56.268 38.753,23.004 77.164,23.004 96.369,56.268 77.164,89.533 "/>
<polygon fill="#F15A29" stroke="#F15A29" stroke-linecap="round" stroke-linejoin="round" stroke-miterlimit="10" points="
	70.886,99.749 59.029,95.769 56.547,83.509 65.924,75.231 77.781,79.211 80.263,91.471 "/>
<polygon fill="#F9ED32" stroke="#F9ED32" stroke-linecap="round" stroke-linejoin="round" stroke-miterlimit="10" points="
	5.021,52.793 6.36,47.364 11.731,45.808 15.764,49.682 14.425,55.111 9.054,56.667 "/>
<polygon opacity="0.6" fill="#F9ED32" stroke="#F9ED32" stroke-linecap="round" stroke-linejoin="round" stroke-miterlimit="10" points="
	50.585,16.637 51.923,11.208 57.294,9.652 61.327,13.526 59.988,18.955 54.617,20.511 "/>
</svg>
