<?xml version="1.0" encoding="utf-8"?>
<!-- Generator: Adobe Illustrator 17.0.0, SVG Export Plug-In . SVG Version: 6.00 Build 0)  -->
<!DOCTYPE svg PUBLIC "-//W3C//DTD SVG 1.1//EN" "http://www.w3.org/Graphics/SVG/1.1/DTD/svg11.dtd">
<svg version="1.1" id="Calque_1" xmlns="http://www.w3.org/2000/svg" xmlns:xlink="http://www.w3.org/1999/xlink" x="0px" y="0px"
	 width="113.386px" height="113.386px" viewBox="0 0 113.386 113.386" enable-background="new 0 0 113.386 113.386"
	 xml:space="preserve">
<path opacity="0.8" fill="#27AAE1" d="M89.046,14.693c-0.163,0.061-0.325,0.121-0.478,0.183c0.151,0.614,0.309,1.289,0.611,0.383
	c-0.302,0.906-0.46,0.231-0.611-0.383c-0.265,0.108-0.5,0.226-0.657,0.383c0.154-0.769,0.27-1.051,0.367-1.067
	c-0.153-0.094-0.31-0.183-0.466-0.273c-0.76,0.07-1.526,0.072-2.438,0.072l0.634-0.634c-5.707,1.902-11.413,3.804-17.754,1.902
	c6.341,1.902,12.048,0,17.754-1.902l-0.634,0.634c0.912,0,1.678-0.002,2.438-0.072c-2.617-1.502-5.647-2.365-8.88-2.365
	c-4.101,0-7.88,1.381-10.896,3.704c-4.243,3.268-6.976,8.399-6.976,14.168c0,9.871,8.002,17.872,17.872,17.872
	c9.871,0,17.872-8.002,17.872-17.872C96.805,23.311,93.731,17.915,89.046,14.693z"/>
<circle fill="#00242B" cx="57.62" cy="57.67" r="40.28"/>
<path fill="#00242B" d="M102.003,84.705c-0.066,0.025-0.132,0.049-0.194,0.074c0.061,0.249,0.126,0.523,0.248,0.156
	c-0.122,0.367-0.187,0.094-0.248-0.156c-0.107,0.044-0.203,0.092-0.266,0.156c0.062-0.312,0.11-0.426,0.149-0.433
	c-0.062-0.038-0.126-0.074-0.189-0.111c-0.308,0.028-0.619,0.029-0.989,0.029l0.257-0.257c-2.315,0.772-4.63,1.543-7.202,0.772
	c2.572,0.772,4.887,0,7.202-0.772l-0.257,0.257c0.37,0,0.681-0.001,0.989-0.029c-1.062-0.609-2.291-0.959-3.602-0.959
	c-1.664,0-3.197,0.56-4.42,1.503c-1.721,1.326-2.83,3.407-2.83,5.748c0,4.004,3.246,7.25,7.25,7.25c4.004,0,7.25-3.246,7.25-7.25
	C105.15,88.201,103.904,86.012,102.003,84.705z"/>
<path fill="#27AAE1" d="M106.234,97.852c-0.017,0.007-0.035,0.013-0.051,0.02c0.016,0.066,0.033,0.138,0.065,0.041
	c-0.032,0.097-0.049,0.025-0.065-0.041c-0.028,0.012-0.054,0.024-0.07,0.041c0.016-0.082,0.029-0.113,0.039-0.114
	c-0.016-0.01-0.033-0.02-0.05-0.029c-0.081,0.007-0.163,0.008-0.261,0.008l0.068-0.068c-0.611,0.204-1.223,0.408-1.902,0.204
	c0.679,0.204,1.291,0,1.902-0.204l-0.068,0.068c0.098,0,0.18,0,0.261-0.008c-0.28-0.161-0.605-0.253-0.951-0.253
	c-0.439,0-0.844,0.148-1.167,0.397c-0.455,0.35-0.747,0.9-0.747,1.518c0,1.058,0.857,1.915,1.915,1.915
	c1.058,0,1.915-0.857,1.915-1.915C107.065,98.775,106.736,98.197,106.234,97.852z"/>
<path fill="#00A79D" d="M48.065,10.095c-0.043,0.016-0.085,0.032-0.126,0.048c0.04,0.161,0.081,0.339,0.161,0.101
	c-0.079,0.238-0.121,0.061-0.161-0.101c-0.07,0.028-0.131,0.059-0.173,0.101c0.04-0.202,0.071-0.276,0.097-0.28
	c-0.04-0.025-0.081-0.048-0.122-0.072C47.541,9.91,47.34,9.91,47.1,9.91l0.167-0.167c-1.499,0.5-2.998,0.999-4.664,0.5
	c1.666,0.5,3.165,0,4.664-0.5L47.1,9.91c0.24,0,0.441,0,0.64-0.019c-0.687-0.395-1.483-0.621-2.333-0.621
	c-1.077,0-2.07,0.363-2.862,0.973c-1.115,0.858-1.833,2.206-1.833,3.722c0,2.593,2.102,4.695,4.695,4.695
	c2.593,0,4.695-2.102,4.695-4.695C50.103,12.359,49.296,10.941,48.065,10.095z"/>
<path opacity="0.8" fill="#27AAE1" d="M39.15,21.982c-0.056,0.021-0.112,0.041-0.164,0.063c0.052,0.211,0.106,0.443,0.21,0.132
	c-0.104,0.311-0.158,0.079-0.21-0.132c-0.091,0.037-0.172,0.078-0.226,0.132c0.053-0.264,0.093-0.361,0.126-0.366
	c-0.053-0.032-0.106-0.063-0.16-0.094c-0.261,0.024-0.524,0.025-0.837,0.025l0.218-0.218c-1.96,0.653-3.919,1.306-6.097,0.653
	c2.177,0.653,4.137,0,6.097-0.653l-0.218,0.218c0.313,0,0.576-0.001,0.837-0.025c-0.899-0.516-1.939-0.812-3.049-0.812
	c-1.408,0-2.706,0.474-3.742,1.272c-1.457,1.122-2.396,2.884-2.396,4.865c0,3.389,2.748,6.137,6.137,6.137
	c3.389,0,6.137-2.748,6.137-6.137C41.815,24.941,40.759,23.088,39.15,21.982z"/>
<path fill="#27AAE1" d="M30.222,74.3c-0.077,0.029-0.153,0.057-0.225,0.086c0.071,0.29,0.146,0.608,0.288,0.181
	c-0.142,0.427-0.217,0.109-0.288-0.181c-0.125,0.051-0.236,0.107-0.31,0.181c0.073-0.363,0.127-0.496,0.173-0.503
	c-0.072-0.044-0.146-0.087-0.22-0.129c-0.359,0.033-0.72,0.034-1.15,0.034l0.299-0.299c-2.692,0.897-5.384,1.795-8.375,0.897
	c2.991,0.897,5.683,0,8.375-0.897l-0.299,0.299c0.43,0,0.791-0.001,1.15-0.034c-1.234-0.708-2.664-1.116-4.189-1.116
	c-1.935,0-3.717,0.652-5.14,1.747c-2.001,1.542-3.291,3.962-3.291,6.684c0,4.656,3.775,8.431,8.431,8.431
	c4.656,0,8.431-3.775,8.431-8.431C33.882,78.366,32.432,75.82,30.222,74.3z"/>
<path opacity="0.8" fill="#00A79D" d="M77.246,87.132c-0.085,0.032-0.169,0.063-0.249,0.095c0.079,0.32,0.161,0.671,0.318,0.2
	c-0.157,0.472-0.24,0.12-0.318-0.2c-0.138,0.056-0.26,0.118-0.342,0.2c0.08-0.401,0.141-0.547,0.191-0.556
	c-0.08-0.049-0.161-0.096-0.243-0.142c-0.396,0.036-0.795,0.037-1.27,0.037l0.33-0.33c-2.972,0.991-5.945,1.982-9.248,0.991
	c3.303,0.991,6.275,0,9.248-0.991l-0.33,0.33c0.475,0,0.874-0.001,1.27-0.037c-1.363-0.782-2.941-1.232-4.625-1.232
	c-2.136,0-4.104,0.72-5.675,1.929c-2.21,1.702-3.634,4.375-3.634,7.38c0,5.141,4.168,9.309,9.309,9.309
	c5.141,0,9.309-4.168,9.309-9.309C81.287,91.621,79.686,88.81,77.246,87.132z"/>
<path fill="#00A79D" d="M17.031,39.876c-0.025,0.009-0.05,0.019-0.073,0.028c0.023,0.094,0.048,0.198,0.094,0.059
	c-0.046,0.139-0.071,0.035-0.094-0.059c-0.041,0.017-0.077,0.035-0.101,0.059c0.024-0.118,0.042-0.161,0.056-0.164
	c-0.024-0.014-0.048-0.028-0.072-0.042c-0.117,0.011-0.234,0.011-0.375,0.011l0.097-0.097c-0.877,0.292-1.753,0.584-2.727,0.292
	c0.974,0.292,1.851,0,2.727-0.292l-0.097,0.097c0.14,0,0.258,0,0.375-0.011c-0.402-0.231-0.867-0.363-1.364-0.363
	c-0.63,0-1.21,0.212-1.674,0.569c-0.652,0.502-1.072,1.29-1.072,2.176c0,1.516,1.229,2.746,2.746,2.746
	c1.516,0,2.746-1.229,2.746-2.746C18.223,41.2,17.751,40.371,17.031,39.876z"/>
</svg>
