<?xml version="1.0" encoding="utf-8"?>
<!-- Generator: Adobe Illustrator 17.0.0, SVG Export Plug-In . SVG Version: 6.00 Build 0)  -->
<!DOCTYPE svg PUBLIC "-//W3C//DTD SVG 1.1//EN" "http://www.w3.org/Graphics/SVG/1.1/DTD/svg11.dtd">
<svg version="1.1" id="Calque_1" xmlns="http://www.w3.org/2000/svg" xmlns:xlink="http://www.w3.org/1999/xlink" x="0px" y="0px"
	 width="83.271px" height="91.142px" viewBox="0 0 83.271 91.142" enable-background="new 0 0 83.271 91.142" xml:space="preserve">
<circle fill="#006160" cx="49.561" cy="23.893" r="23.893"/>
<polygon fill="#00242B" points="0,53.908 21.497,40.914 43.499,53.034 44.004,78.148 22.506,91.142 0.505,79.022 "/>
<polygon fill="#00242B" points="32.632,37.873 30.192,16.973 49.513,25.31 "/>
<polygon opacity="0.8" fill="#27AAE1" points="44.394,48.539 42.707,34.092 56.062,39.855 "/>
<path opacity="0.8" fill="#27AAE1" d="M76.096,61.608c-0.106-0.048-0.211-0.097-0.313-0.14c-0.219,0.363-0.464,0.758,0.108,0.472
	c-0.573,0.286-0.327-0.109-0.108-0.472c-0.177-0.074-0.344-0.13-0.493-0.13c0.438-0.292,0.626-0.37,0.68-0.332
	c-0.028-0.117-0.06-0.234-0.091-0.35c-0.394-0.327-0.758-0.69-1.19-1.122h0.601c-3.608-1.804-7.216-3.608-9.321-7.517
	c2.105,3.909,5.713,5.713,9.321,7.517h-0.601c0.432,0.432,0.796,0.795,1.19,1.122c-0.529-1.953-1.556-3.799-3.089-5.332
	c-1.945-1.945-4.391-3.081-6.923-3.41c-3.561-0.462-7.29,0.674-10.026,3.41c-4.68,4.68-4.68,12.269,0,16.949
	c4.68,4.68,12.269,4.68,16.949,0C75.689,69.374,76.79,65.358,76.096,61.608z"/>
<path fill="#00A79D" d="M59.225,35.157c-0.037-0.017-0.073-0.033-0.108-0.048c-0.076,0.125-0.16,0.261,0.037,0.162
	c-0.197,0.099-0.113-0.037-0.037-0.162c-0.061-0.026-0.118-0.045-0.17-0.045c0.151-0.1,0.216-0.127,0.234-0.114
	c-0.01-0.04-0.021-0.08-0.031-0.121c-0.135-0.113-0.261-0.237-0.41-0.386h0.207c-1.242-0.621-2.484-1.242-3.208-2.587
	c0.724,1.345,1.966,1.966,3.208,2.587h-0.207c0.149,0.149,0.274,0.274,0.41,0.386c-0.182-0.672-0.536-1.308-1.063-1.835
	c-0.669-0.669-1.512-1.061-2.383-1.174c-1.226-0.159-2.509,0.232-3.451,1.174c-1.611,1.611-1.611,4.223,0,5.834
	c1.611,1.611,4.223,1.611,5.834,0C59.085,37.83,59.464,36.447,59.225,35.157z"/>
<path fill="#00242B" d="M64.903,44.308c-0.048-0.022-0.095-0.044-0.141-0.063c-0.099,0.163-0.209,0.341,0.049,0.212
	c-0.258,0.129-0.147-0.049-0.049-0.212c-0.08-0.033-0.155-0.058-0.222-0.058c0.197-0.131,0.282-0.167,0.306-0.149
	c-0.013-0.053-0.027-0.105-0.041-0.158c-0.177-0.147-0.341-0.31-0.535-0.505h0.271c-1.623-0.812-3.247-1.623-4.194-3.382
	c0.947,1.759,2.57,2.57,4.194,3.382h-0.271c0.195,0.195,0.358,0.358,0.535,0.505c-0.238-0.879-0.7-1.709-1.39-2.399
	c-0.875-0.875-1.976-1.386-3.115-1.534c-1.602-0.208-3.28,0.303-4.511,1.534c-2.106,2.106-2.106,5.52,0,7.626
	c2.106,2.106,5.52,2.106,7.626,0C64.719,47.802,65.215,45.995,64.903,44.308z"/>
<path fill="#00A79D" d="M40.888,40.839c-0.021-0.01-0.043-0.02-0.063-0.028c-0.044,0.073-0.093,0.153,0.022,0.095
	c-0.115,0.058-0.066-0.022-0.022-0.095c-0.036-0.015-0.069-0.026-0.099-0.026c0.088-0.059,0.126-0.074,0.137-0.067
	c-0.006-0.024-0.012-0.047-0.018-0.071c-0.079-0.066-0.152-0.139-0.24-0.226h0.121c-0.726-0.363-1.452-0.726-1.876-1.513
	c0.424,0.787,1.15,1.15,1.876,1.513h-0.121c0.087,0.087,0.16,0.16,0.24,0.226c-0.106-0.393-0.313-0.765-0.622-1.073
	c-0.391-0.391-0.884-0.62-1.393-0.686c-0.717-0.093-1.467,0.136-2.018,0.686c-0.942,0.942-0.942,2.469,0,3.411
	c0.942,0.942,2.469,0.942,3.411,0C40.806,42.402,41.028,41.593,40.888,40.839z"/>
<polygon opacity="0.3" fill="#00A79D" points="9.245,61.472 48.963,0.926 83.271,66.732 "/>
<path opacity="0.3" fill="#00A79D" d="M66.949,33.834c-0.031-0.014-0.061-0.028-0.091-0.041c-0.064,0.105-0.135,0.22,0.031,0.137
	c-0.166,0.083-0.095-0.032-0.031-0.137c-0.051-0.022-0.1-0.038-0.143-0.038c0.127-0.085,0.182-0.107,0.197-0.096
	c-0.008-0.034-0.017-0.068-0.027-0.102c-0.114-0.095-0.22-0.2-0.345-0.325h0.174c-1.046-0.523-2.092-1.046-2.702-2.179
	c0.61,1.133,1.656,1.656,2.702,2.179H66.54c0.125,0.125,0.231,0.23,0.345,0.325c-0.153-0.566-0.451-1.101-0.896-1.546
	c-0.564-0.564-1.273-0.893-2.007-0.989c-1.033-0.134-2.114,0.196-2.907,0.989c-1.357,1.357-1.357,3.557,0,4.914
	c1.357,1.357,3.557,1.357,4.914,0C66.83,36.085,67.15,34.921,66.949,33.834z"/>
</svg>
