<?xml version="1.0" encoding="utf-8"?>
<!-- Generator: Adobe Illustrator 17.0.0, SVG Export Plug-In . SVG Version: 6.00 Build 0)  -->
<!DOCTYPE svg PUBLIC "-//W3C//DTD SVG 1.1//EN" "http://www.w3.org/Graphics/SVG/1.1/DTD/svg11.dtd">
<svg version="1.1" id="Calque_1" xmlns="http://www.w3.org/2000/svg" xmlns:xlink="http://www.w3.org/1999/xlink" x="0px" y="0px"
	 width="86.667px" height="88.333px" viewBox="891.526 -399.474 86.667 88.333"
	 enable-background="new 891.526 -399.474 86.667 88.333" xml:space="preserve">
<circle opacity="0.8" fill="#151515" cx="937.388" cy="-376.32" r="23.145"/>
<polygon fill="#151515" points="891.072,-347.244 911.896,-359.831 933.209,-348.091 933.698,-323.763 912.874,-311.175 
	891.561,-322.916 "/>
<polygon opacity="0.8" fill="#151515" points="963.743,-349.272 962.109,-363.267 975.045,-357.684 "/>
<path opacity="0.6" fill="#6D6E71" d="M963.092-339.785c-0.103-0.047-0.205-0.094-0.304-0.135c-0.213,0.352-0.45,0.734,0.105,0.457
	c-0.555,0.277-0.317-0.105-0.105-0.457c-0.171-0.072-0.333-0.126-0.478-0.126c0.424-0.283,0.607-0.359,0.659-0.321
	c-0.027-0.114-0.058-0.226-0.089-0.339c-0.381-0.317-0.734-0.668-1.153-1.087h0.583c-3.495-1.748-6.99-3.495-9.029-7.281
	c2.039,3.786,5.534,5.534,9.029,7.281h-0.583c0.419,0.419,0.771,0.77,1.153,1.087c-0.512-1.892-1.508-3.68-2.993-5.165
	c-1.884-1.884-4.254-2.985-6.706-3.303c-3.45-0.448-7.062,0.653-9.712,3.303c-4.534,4.534-4.534,11.885,0,16.418
	c4.534,4.534,11.885,4.534,16.418,0C962.698-332.263,963.764-336.153,963.092-339.785z"/>
<path fill="#151515" d="M945.974-365.408c-0.035-0.016-0.071-0.032-0.104-0.047c-0.073,0.121-0.155,0.253,0.036,0.157
	c-0.191,0.095-0.109-0.036-0.036-0.157c-0.059-0.025-0.115-0.043-0.164-0.043c0.146-0.097,0.209-0.123,0.227-0.111
	c-0.009-0.039-0.02-0.078-0.03-0.117c-0.131-0.109-0.253-0.23-0.397-0.374h0.201c-1.203-0.602-2.406-1.203-3.108-2.506
	c0.702,1.303,1.905,1.905,3.108,2.506h-0.201c0.144,0.144,0.266,0.265,0.397,0.374c-0.176-0.651-0.519-1.267-1.03-1.778
	c-0.648-0.648-1.464-1.027-2.308-1.137c-1.187-0.154-2.431,0.225-3.343,1.137c-1.561,1.561-1.561,4.091,0,5.651
	c1.561,1.561,4.091,1.561,5.651,0C945.838-362.819,946.205-364.158,945.974-365.408z"/>
<path fill="#545354" d="M952.249-356.544c-0.046-0.021-0.092-0.042-0.137-0.061c-0.096,0.158-0.202,0.33,0.047,0.206
	c-0.25,0.125-0.143-0.047-0.047-0.206c-0.077-0.032-0.15-0.057-0.215-0.057c0.191-0.127,0.273-0.161,0.296-0.145
	c-0.012-0.051-0.026-0.102-0.04-0.153c-0.172-0.143-0.33-0.301-0.519-0.489h0.262c-1.572-0.786-3.145-1.572-4.062-3.276
	c0.917,1.704,2.49,2.49,4.062,3.276h-0.262c0.188,0.188,0.347,0.346,0.519,0.489c-0.23-0.851-0.678-1.656-1.346-2.324
	c-0.848-0.848-1.914-1.343-3.017-1.486c-1.552-0.201-3.177,0.294-4.37,1.486c-2.04,2.04-2.04,5.347,0,7.387
	c2.04,2.04,5.347,2.04,7.387,0C952.072-353.159,952.552-354.91,952.249-356.544z"/>
<path opacity="0.9" fill="#6D6E71" d="M971.886-379.07c-0.03-0.014-0.059-0.027-0.088-0.039c-0.062,0.102-0.13,0.213,0.03,0.132
	c-0.161,0.08-0.092-0.031-0.03-0.132c-0.05-0.021-0.097-0.036-0.139-0.036c0.123-0.082,0.176-0.104,0.191-0.093
	c-0.008-0.033-0.017-0.066-0.026-0.098c-0.111-0.092-0.213-0.194-0.334-0.315h0.169c-1.013-0.507-2.027-1.013-2.618-2.111
	c0.591,1.098,1.604,1.604,2.618,2.111h-0.169c0.121,0.121,0.224,0.223,0.334,0.315c-0.148-0.548-0.437-1.067-0.868-1.498
	c-0.546-0.546-1.233-0.865-1.944-0.958c-1-0.13-2.048,0.189-2.816,0.958c-1.315,1.315-1.315,3.446,0,4.76
	c1.315,1.315,3.446,1.315,4.76,0C971.772-376.889,972.081-378.017,971.886-379.07z"/>
<polygon opacity="0.6" fill="#6D6E71" points="902.215,-335.877 940.69,-394.529 973.924,-330.782 "/>
<path opacity="0.8" fill="#151515" d="M933.526-360.258c-0.021-0.009-0.041-0.019-0.061-0.027c-0.043,0.071-0.091,0.148,0.021,0.092
	c-0.112,0.056-0.064-0.021-0.021-0.092c-0.034-0.014-0.067-0.025-0.096-0.025c0.085-0.057,0.122-0.072,0.133-0.065
	c-0.005-0.023-0.012-0.046-0.018-0.068c-0.077-0.064-0.148-0.134-0.232-0.219h0.117c-0.703-0.352-1.407-0.703-1.817-1.466
	c0.41,0.762,1.114,1.114,1.817,1.466h-0.117c0.084,0.084,0.155,0.155,0.232,0.219c-0.103-0.381-0.303-0.741-0.602-1.04
	c-0.379-0.379-0.856-0.601-1.35-0.665c-0.694-0.09-1.421,0.131-1.955,0.665c-0.913,0.913-0.913,2.392,0,3.305s2.392,0.913,3.305,0
	C933.446-358.744,933.661-359.527,933.526-360.258z"/>
<polygon opacity="0.6" fill="#545354" points="923.322,-371.444 920.958,-391.69 939.674,-383.614 "/>
</svg>
