<?xml version="1.0" encoding="utf-8"?>
<!-- Generator: Adobe Illustrator 17.0.0, SVG Export Plug-In . SVG Version: 6.00 Build 0)  -->
<!DOCTYPE svg PUBLIC "-//W3C//DTD SVG 1.1//EN" "http://www.w3.org/Graphics/SVG/1.1/DTD/svg11.dtd">
<svg version="1.1" id="Calque_1" xmlns="http://www.w3.org/2000/svg" xmlns:xlink="http://www.w3.org/1999/xlink" x="0px" y="0px"
	 width="84.852px" height="88.289px" viewBox="0 0 84.852 88.289" enable-background="new 0 0 84.852 88.289" xml:space="preserve">
<circle fill="#ED1C24" cx="46.315" cy="23.145" r="23.145"/>
<polygon fill="#4C0000" points="0,52.221 20.824,39.633 42.137,51.374 42.626,75.702 21.802,88.289 0.489,76.548 "/>
<polygon fill="#F15A29" points="29.917,36.688 27.553,16.441 46.269,24.517 "/>
<polygon opacity="0.8" fill="#F7941E" points="72.67,50.192 71.036,36.198 83.973,41.78 "/>
<path opacity="0.8" fill="#F7941E" d="M72.02,59.679c-0.103-0.047-0.205-0.094-0.304-0.135c-0.213,0.352-0.45,0.734,0.105,0.457
	c-0.555,0.277-0.317-0.105-0.105-0.457c-0.171-0.072-0.333-0.126-0.478-0.126c0.424-0.283,0.607-0.359,0.659-0.321
	c-0.027-0.114-0.058-0.226-0.089-0.339c-0.381-0.317-0.734-0.668-1.153-1.087h0.583c-3.495-1.748-6.99-3.495-9.029-7.281
	c2.039,3.786,5.534,5.534,9.029,7.281h-0.583c0.419,0.419,0.771,0.77,1.153,1.087c-0.512-1.892-1.508-3.68-2.993-5.165
	c-1.884-1.884-4.254-2.985-6.706-3.303c-3.45-0.448-7.062,0.653-9.712,3.303c-4.534,4.534-4.534,11.885,0,16.418
	c4.534,4.534,11.885,4.534,16.418,0C71.625,67.202,72.692,63.311,72.02,59.679z"/>
<path fill="#4C0000" d="M55.677,34.056c-0.035-0.016-0.071-0.032-0.104-0.047c-0.073,0.121-0.155,0.253,0.036,0.157
	c-0.191,0.095-0.109-0.036-0.036-0.157c-0.059-0.025-0.115-0.043-0.164-0.043c0.146-0.097,0.209-0.123,0.227-0.111
	c-0.009-0.039-0.02-0.078-0.03-0.117c-0.131-0.109-0.253-0.23-0.397-0.374h0.201c-1.203-0.602-2.406-1.203-3.108-2.506
	c0.702,1.303,1.905,1.905,3.108,2.506h-0.201c0.144,0.144,0.266,0.265,0.397,0.374c-0.176-0.651-0.519-1.267-1.03-1.778
	c-0.648-0.648-1.464-1.027-2.308-1.137c-1.187-0.154-2.431,0.225-3.343,1.137c-1.561,1.561-1.561,4.091,0,5.651
	c1.561,1.561,4.091,1.561,5.651,0C55.541,36.645,55.909,35.306,55.677,34.056z"/>
<path fill="#F15A29" d="M61.177,42.921c-0.046-0.021-0.092-0.042-0.137-0.061c-0.096,0.158-0.202,0.33,0.047,0.206
	c-0.25,0.125-0.143-0.047-0.047-0.206c-0.077-0.032-0.15-0.057-0.215-0.057c0.191-0.127,0.273-0.161,0.296-0.145
	c-0.012-0.051-0.026-0.102-0.04-0.153c-0.172-0.143-0.33-0.301-0.519-0.489h0.262c-1.572-0.786-3.145-1.572-4.062-3.276
	c0.917,1.704,2.49,2.49,4.062,3.276h-0.262c0.188,0.188,0.347,0.346,0.519,0.489c-0.23-0.851-0.678-1.656-1.346-2.324
	c-0.848-0.848-1.914-1.343-3.017-1.486c-1.552-0.202-3.177,0.294-4.37,1.486c-2.04,2.04-2.04,5.347,0,7.387
	c2.04,2.04,5.347,2.04,7.387,0C60.999,46.305,61.479,44.555,61.177,42.921z"/>
<path fill="#4C0000" d="M43.229,39.206c-0.021-0.009-0.041-0.019-0.061-0.027c-0.043,0.071-0.091,0.148,0.021,0.092
	c-0.112,0.056-0.064-0.021-0.021-0.092c-0.034-0.014-0.067-0.025-0.096-0.025c0.085-0.057,0.122-0.072,0.133-0.065
	c-0.005-0.023-0.012-0.046-0.018-0.068c-0.077-0.064-0.148-0.134-0.232-0.219h0.117c-0.703-0.352-1.407-0.703-1.817-1.466
	c0.41,0.762,1.114,1.114,1.817,1.466h-0.117c0.084,0.084,0.155,0.155,0.232,0.219c-0.103-0.381-0.303-0.741-0.602-1.04
	c-0.379-0.379-0.856-0.601-1.35-0.665c-0.694-0.09-1.421,0.131-1.955,0.665c-0.913,0.913-0.913,2.392,0,3.305
	c0.913,0.913,2.392,0.913,3.305,0C43.15,40.72,43.365,39.937,43.229,39.206z"/>
<polygon opacity="0.3" fill="#ED1C24" points="13.143,66.92 51.618,8.269 84.851,72.015 "/>
<path opacity="0.3" fill="#FBB040" d="M80.814,20.394c-0.03-0.014-0.059-0.027-0.088-0.039c-0.062,0.102-0.13,0.213,0.03,0.132
	c-0.161,0.08-0.092-0.031-0.03-0.132c-0.05-0.021-0.097-0.036-0.139-0.036c0.123-0.082,0.176-0.104,0.191-0.093
	c-0.008-0.033-0.017-0.066-0.026-0.098c-0.111-0.092-0.213-0.194-0.334-0.315h0.169c-1.013-0.507-2.027-1.013-2.618-2.111
	c0.591,1.098,1.604,1.604,2.618,2.111h-0.169c0.121,0.121,0.224,0.223,0.334,0.315c-0.148-0.548-0.437-1.067-0.868-1.498
	c-0.546-0.546-1.233-0.865-1.944-0.958c-1-0.13-2.048,0.189-2.816,0.958c-1.315,1.315-1.314,3.446,0,4.76
	c1.315,1.315,3.446,1.315,4.76,0C80.699,22.575,81.009,21.447,80.814,20.394z"/>
</svg>
