<?xml version="1.0" encoding="utf-8"?>
<!-- Generator: Adobe Illustrator 17.0.0, SVG Export Plug-In . SVG Version: 6.00 Build 0)  -->
<!DOCTYPE svg PUBLIC "-//W3C//DTD SVG 1.1//EN" "http://www.w3.org/Graphics/SVG/1.1/DTD/svg11.dtd">
<svg version="1.1" id="Calque_1" xmlns="http://www.w3.org/2000/svg" xmlns:xlink="http://www.w3.org/1999/xlink" x="0px" y="0px"
	 width="265.068px" height="124.636px" viewBox="0 0 265.068 124.636" enable-background="new 0 0 265.068 124.636"
	 xml:space="preserve">
<polygon fill="#00242B" points="71.681,123.127 93.832,81.742 69.067,41.866 22.151,43.375 0,84.76 24.765,124.636 "/>
<polygon opacity="0.6" fill="#27AAE1" points="151.247,58.058 133.297,41.545 110.021,48.833 104.694,72.635 122.644,89.148 
	145.92,81.86 "/>
<polygon opacity="0.6" fill="#27AAE1" points="168.999,111.403 151.167,94.833 145.733,118.561 "/>
<polygon opacity="0.6" fill="#00A79D" points="257.396,84.251 231.559,19.661 186.694,75.07 "/>
<polygon opacity="0.6" fill="#00A79D" points="224.391,57.397 228.487,44.885 215.603,47.595 "/>
<polygon opacity="0.6" fill="#27AAE1" points="157.366,62.955 176.916,58.167 162.995,43.63 "/>
<polygon opacity="0.6" fill="#00242B" points="261.515,69.793 265.068,34.12 232.398,48.879 "/>
<circle opacity="0.6" fill="#006160" cx="170.885" cy="77.69" r="36.411"/>
<path opacity="0.6" fill="#27AAE1" d="M56.738,31.694c0.158-0.036,0.313-0.073,0.463-0.103c0.198,0.553,0.422,1.156-0.276,0.61
	c0.698,0.546,0.474-0.057,0.276-0.61c0.26-0.052,0.503-0.081,0.705-0.04c-0.513-0.516-0.748-0.674-0.831-0.637
	c0.07-0.151,0.145-0.301,0.22-0.45c0.624-0.336,1.217-0.727,1.923-1.194l-0.816-0.165c5.389-1.454,10.779-2.909,14.708-7.631
	c-3.929,4.722-9.319,6.177-14.708,7.631l0.816,0.165c-0.705,0.468-1.299,0.859-1.923,1.194c1.254-2.503,3.155-4.724,5.656-6.382
	c3.172-2.103,6.803-2.971,10.327-2.721c4.957,0.352,9.702,2.92,12.66,7.382c5.061,7.635,2.974,17.927-4.661,22.987
	c-7.635,5.061-17.927,2.974-22.987-4.661C55.155,42.338,54.766,36.588,56.738,31.694z"/>
<path opacity="0.6" fill="#00242B" d="M107.363,16.836c0.084-0.019,0.167-0.039,0.246-0.055c0.105,0.294,0.224,0.614-0.147,0.324
	c0.371,0.29,0.252-0.031,0.147-0.324c0.138-0.028,0.267-0.043,0.375-0.021c-0.273-0.274-0.397-0.358-0.442-0.338
	c0.037-0.08,0.077-0.16,0.117-0.239c0.332-0.178,0.647-0.386,1.022-0.635l-0.433-0.088c2.865-0.773,5.729-1.546,7.818-4.056
	c-2.089,2.51-4.953,3.283-7.818,4.056l0.433,0.088c-0.375,0.249-0.69,0.456-1.022,0.635c0.667-1.33,1.677-2.511,3.007-3.392
	c1.686-1.118,3.616-1.579,5.489-1.446c2.635,0.187,5.157,1.552,6.729,3.924c2.69,4.058,1.581,9.528-2.478,12.218
	c-4.058,2.69-9.528,1.581-12.218-2.478C106.521,22.493,106.315,19.437,107.363,16.836z"/>
<path opacity="0.6" fill="#00242B" d="M123.889,30.91c0.022-0.005,0.044-0.01,0.065-0.015c0.028,0.078,0.059,0.162-0.039,0.086
	c0.098,0.077,0.067-0.008,0.039-0.086c0.037-0.007,0.071-0.011,0.099-0.006c-0.072-0.072-0.105-0.095-0.117-0.089
	c0.01-0.021,0.02-0.042,0.031-0.063c0.088-0.047,0.171-0.102,0.27-0.168l-0.114-0.023c0.757-0.204,1.513-0.408,2.065-1.071
	c-0.552,0.663-1.308,0.867-2.065,1.071l0.114,0.023c-0.099,0.066-0.182,0.121-0.27,0.168c0.176-0.351,0.443-0.663,0.794-0.896
	c0.445-0.295,0.955-0.417,1.45-0.382c0.696,0.049,1.362,0.41,1.777,1.036c0.71,1.072,0.417,2.517-0.654,3.227
	c-1.072,0.71-2.517,0.417-3.227-0.654C123.667,32.404,123.612,31.597,123.889,30.91z"/>
<path opacity="0.6" fill="#00A79D" d="M136.879,35.767c0.054-0.012,0.108-0.025,0.16-0.036c0.068,0.19,0.145,0.398-0.095,0.21
	c0.24,0.188,0.163-0.02,0.095-0.21c0.09-0.018,0.173-0.028,0.243-0.014c-0.177-0.178-0.257-0.232-0.286-0.219
	c0.024-0.052,0.05-0.103,0.076-0.155c0.215-0.116,0.419-0.25,0.662-0.411l-0.281-0.057c1.855-0.501,3.71-1.001,5.063-2.627
	c-1.353,1.625-3.208,2.126-5.063,2.627l0.281,0.057c-0.243,0.161-0.447,0.296-0.662,0.411c0.432-0.862,1.086-1.626,1.947-2.197
	c1.092-0.724,2.342-1.023,3.555-0.937c1.706,0.121,3.34,1.005,4.358,2.541c1.742,2.628,1.024,6.17-1.604,7.912
	c-2.628,1.742-6.17,1.024-7.912-1.604C136.334,39.431,136.2,37.452,136.879,35.767z"/>
<path opacity="0.6" fill="#00242B" d="M155.295,38.75c0.071-0.016,0.141-0.033,0.209-0.047c0.089,0.249,0.19,0.52-0.124,0.274
	c0.314,0.246,0.213-0.026,0.124-0.274c0.117-0.023,0.226-0.037,0.317-0.018c-0.231-0.232-0.336-0.303-0.374-0.287
	c0.032-0.068,0.065-0.135,0.099-0.202c0.281-0.151,0.548-0.327,0.865-0.537l-0.367-0.074c2.425-0.654,4.85-1.309,6.618-3.433
	c-1.768,2.125-4.193,2.779-6.618,3.433l0.367,0.074c-0.317,0.21-0.584,0.386-0.865,0.537c0.564-1.126,1.42-2.126,2.545-2.871
	c1.427-0.946,3.061-1.337,4.646-1.224c2.23,0.159,4.365,1.314,5.696,3.321c2.277,3.435,1.338,8.066-2.097,10.342
	c-3.435,2.277-8.066,1.338-10.342-2.097C154.583,43.539,154.408,40.952,155.295,38.75z"/>
<path opacity="0.6" fill="#27AAE1" d="M207.964,49.026c0.074-0.017,0.148-0.035,0.219-0.049c0.093,0.261,0.199,0.545-0.13,0.288
	c0.329,0.257,0.224-0.027,0.13-0.288c0.123-0.025,0.237-0.038,0.332-0.019c-0.242-0.243-0.353-0.318-0.392-0.3
	c0.033-0.071,0.069-0.142,0.104-0.212c0.294-0.158,0.574-0.343,0.907-0.563l-0.385-0.078c2.542-0.686,5.085-1.372,6.938-3.6
	c-1.854,2.228-4.396,2.914-6.938,3.6l0.385,0.078c-0.333,0.221-0.613,0.405-0.907,0.563c0.592-1.181,1.489-2.229,2.668-3.011
	c1.496-0.992,3.209-1.402,4.872-1.284c2.338,0.166,4.577,1.377,5.972,3.482c2.387,3.602,1.403,8.457-2.199,10.844
	c-3.602,2.387-8.457,1.403-10.844-2.199C207.217,54.047,207.034,51.335,207.964,49.026z"/>
<path opacity="0.6" fill="#00A79D" d="M171.514,56.545c0.082-0.019,0.163-0.038,0.241-0.054c0.103,0.288,0.22,0.602-0.144,0.318
	c0.363,0.284,0.247-0.03,0.144-0.318c0.135-0.027,0.262-0.042,0.367-0.021c-0.267-0.269-0.389-0.351-0.433-0.332
	c0.037-0.079,0.076-0.157,0.115-0.234c0.325-0.175,0.634-0.379,1.001-0.622l-0.425-0.086c2.807-0.758,5.614-1.515,7.661-3.975
	c-2.047,2.46-4.854,3.217-7.661,3.975l0.425,0.086c-0.367,0.244-0.676,0.447-1.001,0.622c0.653-1.304,1.644-2.461,2.946-3.324
	c1.652-1.095,3.544-1.548,5.379-1.417c2.582,0.184,5.054,1.521,6.594,3.845c2.636,3.977,1.549,9.337-2.428,11.973
	c-3.977,2.636-9.337,1.549-11.973-2.428C170.69,62.089,170.487,59.095,171.514,56.545z"/>
<path opacity="0.6" fill="#00A79D" d="M208.79,24.238c0.032-0.007,0.063-0.015,0.093-0.021c0.04,0.111,0.085,0.233-0.056,0.123
	c0.14,0.11,0.095-0.012,0.056-0.123c0.052-0.01,0.101-0.016,0.142-0.008c-0.103-0.104-0.15-0.136-0.167-0.128
	c0.014-0.03,0.029-0.06,0.044-0.091c0.126-0.068,0.245-0.146,0.387-0.24l-0.164-0.033c1.085-0.293,2.17-0.585,2.96-1.536
	c-0.791,0.95-1.876,1.243-2.96,1.536l0.164,0.033c-0.142,0.094-0.261,0.173-0.387,0.24c0.252-0.504,0.635-0.951,1.138-1.285
	c0.639-0.423,1.369-0.598,2.079-0.548c0.998,0.071,1.953,0.588,2.548,1.486c1.019,1.537,0.599,3.608-0.938,4.627
	c-1.537,1.019-3.608,0.599-4.627-0.938C208.472,26.38,208.393,25.223,208.79,24.238z"/>
<polygon opacity="0.6" fill="#006160" points="32.558,55.441 21.871,45.609 8.012,49.948 4.841,64.12 15.528,73.953 29.387,69.613 
	"/>
<polygon opacity="0.6" fill="#00A79D" points="103.143,92.215 95.561,85.24 85.73,88.319 83.48,98.372 91.062,105.347 
	100.893,102.268 "/>
<polygon opacity="0.6" fill="#00A79D" points="130.214,18.26 110.367,0 84.629,8.059 78.74,34.377 98.587,52.637 124.325,44.578 "/>
<polygon opacity="0.6" fill="#00242B" points="126.286,120.16 135.677,108.099 129.928,93.935 114.787,91.833 105.396,103.894 
	111.146,118.057 "/>
<polygon opacity="0.6" fill="#00A79D" points="104.477,113.333 70.362,28.047 11.119,101.211 "/>
</svg>
