<?xml version="1.0" encoding="utf-8"?>
<!-- Generator: Adobe Illustrator 17.0.0, SVG Export Plug-In . SVG Version: 6.00 Build 0)  -->
<!DOCTYPE svg PUBLIC "-//W3C//DTD SVG 1.1//EN" "http://www.w3.org/Graphics/SVG/1.1/DTD/svg11.dtd">
<svg version="1.1" id="Calque_1" xmlns="http://www.w3.org/2000/svg" xmlns:xlink="http://www.w3.org/1999/xlink" x="0px" y="0px"
	 width="235.333px" height="111.167px" viewBox="893.193 -603.307 235.333 111.167"
	 enable-background="new 893.193 -603.307 235.333 111.167" xml:space="preserve">
<polygon opacity="0.8" fill="#151515" points="971.884,-580.746 976.666,-600.569 991.442,-586.516 "/>
<path opacity="0.6" fill="#939598" d="M1040.516-550.165c-0.094,0.035-0.187,0.069-0.275,0.105c0.087,0.353,0.178,0.741,0.351,0.22
	c-0.173,0.52-0.264,0.133-0.351-0.22c-0.152,0.062-0.287,0.13-0.377,0.22c0.088-0.442,0.155-0.604,0.211-0.613
	c-0.088-0.054-0.178-0.105-0.268-0.157c-0.437,0.04-0.877,0.041-1.401,0.041l0.364-0.364c-3.279,1.093-6.558,2.186-10.201,1.093
	c3.643,1.093,6.922,0,10.201-1.093l-0.364,0.364c0.524,0,0.964-0.001,1.401-0.041c-1.504-0.863-3.244-1.359-5.102-1.359
	c-2.356,0-4.527,0.794-6.26,2.128c-2.438,1.878-4.009,4.826-4.009,8.141c0,5.671,4.598,10.269,10.269,10.269
	s10.269-4.598,10.269-10.269C1044.974-545.213,1043.208-548.313,1040.516-550.165z"/>
<polygon opacity="0.8" fill="#151515" points="978.687,-591.027 980.057,-596.585 985.556,-598.177 989.684,-594.212 
	988.314,-588.654 982.816,-587.061 "/>
<polygon fill="#545354" points="1108.049,-590.87 1106.654,-602.816 1117.698,-598.051 "/>
<polygon opacity="0.4" fill="#151515" points="1043.505,-534.38 1048.395,-554.217 1068.02,-559.901 1082.755,-545.747 
	1077.864,-525.909 1058.239,-520.226 "/>
<polygon opacity="0.3" fill="#151515" points="958.449,-536.945 949.799,-543.786 960.049,-547.857 "/>
<polygon opacity="0.5" fill="#939598" points="986.829,-567.497 973.604,-577.957 989.275,-584.18 "/>
<polygon fill="#151515" points="973.914,-540.96 954.924,-564.224 984.566,-569.038 "/>
<circle opacity="0.7" fill="#151515" cx="1022.367" cy="-564.446" r="30.501"/>
<path opacity="0.5" fill="#939598" d="M1033.38-599.203c-0.127,0.048-0.253,0.094-0.371,0.142c0.118,0.477,0.241,1.002,0.475,0.298
	c-0.235,0.704-0.358,0.179-0.475-0.298c-0.206,0.084-0.388,0.176-0.511,0.298c0.12-0.598,0.21-0.817,0.286-0.829
	c-0.119-0.073-0.241-0.143-0.362-0.212c-0.591,0.054-1.186,0.056-1.895,0.056l0.493-0.493c-4.436,1.479-8.872,2.957-13.801,1.479
	c4.929,1.479,9.365,0,13.801-1.479l-0.493,0.493c0.709,0,1.304-0.001,1.895-0.056c-2.034-1.167-4.389-1.838-6.903-1.838
	c-3.188,0-6.125,1.074-8.47,2.88c-3.298,2.54-5.423,6.529-5.423,11.013c0,7.673,6.22,13.893,13.893,13.893
	c7.673,0,13.893-6.22,13.893-13.893C1039.412-592.504,1037.022-596.699,1033.38-599.203z"/>
<path opacity="0.5" fill="#545354" d="M1055.068-583.472c-0.067,0.025-0.134,0.05-0.197,0.076c0.063,0.254,0.128,0.533,0.253,0.158
	c-0.125,0.374-0.19,0.095-0.253-0.158c-0.109,0.045-0.207,0.094-0.271,0.158c0.064-0.318,0.112-0.434,0.152-0.441
	c-0.063-0.039-0.128-0.076-0.192-0.113c-0.314,0.029-0.631,0.03-1.007,0.03l0.262-0.262c-2.358,0.786-4.716,1.572-7.336,0.786
	c2.62,0.786,4.978,0,7.336-0.786l-0.262,0.262c0.377,0,0.693-0.001,1.007-0.03c-1.081-0.62-2.333-0.977-3.669-0.977
	c-1.695,0-3.256,0.571-4.502,1.531c-1.753,1.35-2.883,3.47-2.883,5.854c0,4.078,3.306,7.385,7.385,7.385
	c4.078,0,7.385-3.306,7.385-7.385C1058.274-579.911,1057.004-582.141,1055.068-583.472z"/>
<path opacity="0.3" fill="#00242B" enable-background="new    " d="M1050.043-565.997c-0.018,0.007-0.035,0.013-0.052,0.02
	c0.017,0.067,0.034,0.141,0.067,0.042c-0.033,0.099-0.05,0.025-0.067-0.042c-0.029,0.012-0.055,0.025-0.072,0.042
	c0.017-0.084,0.029-0.115,0.04-0.116c-0.017-0.01-0.034-0.02-0.051-0.03c-0.083,0.008-0.167,0.008-0.266,0.008l0.069-0.069
	c-0.623,0.208-1.245,0.415-1.937,0.208c0.692,0.208,1.315,0,1.937-0.208l-0.069,0.069c0.1,0,0.183,0,0.266-0.008
	c-0.286-0.164-0.616-0.258-0.969-0.258c-0.448,0-0.86,0.151-1.189,0.404c-0.463,0.357-0.761,0.917-0.761,1.546
	c0,1.077,0.873,1.95,1.95,1.95s1.95-0.873,1.95-1.95C1050.889-565.056,1050.554-565.645,1050.043-565.997z"/>
<path fill="#939598" d="M1010.424-598.711c-0.044,0.016-0.087,0.032-0.128,0.049c0.04,0.164,0.083,0.345,0.164,0.103
	c-0.081,0.242-0.123,0.062-0.164-0.103c-0.071,0.029-0.134,0.061-0.176,0.103c0.041-0.206,0.072-0.281,0.098-0.285
	c-0.041-0.025-0.083-0.049-0.125-0.073c-0.203,0.019-0.408,0.019-0.652,0.019l0.17-0.17c-1.527,0.509-3.054,1.018-4.751,0.509
	c1.697,0.509,3.224,0,4.751-0.509l-0.17,0.17c0.244,0,0.449,0,0.652-0.019c-0.7-0.402-1.511-0.633-2.376-0.633
	c-1.097,0-2.108,0.37-2.915,0.991c-1.135,0.874-1.867,2.247-1.867,3.791c0,2.641,2.141,4.782,4.782,4.782
	c2.641,0,4.782-2.141,4.782-4.782C1012.5-596.405,1011.678-597.849,1010.424-598.711z"/>
<path fill="#151515" d="M1000.172-587.777c-0.057,0.021-0.114,0.042-0.167,0.064c0.053,0.215,0.108,0.451,0.214,0.134
	c-0.106,0.317-0.161,0.081-0.214-0.134c-0.093,0.038-0.175,0.079-0.23,0.134c0.054-0.269,0.094-0.367,0.129-0.373
	c-0.054-0.033-0.108-0.064-0.163-0.096c-0.266,0.024-0.534,0.025-0.853,0.025l0.222-0.222c-1.996,0.665-3.992,1.331-6.21,0.665
	c2.218,0.665,4.214,0,6.21-0.665l-0.222,0.222c0.319,0,0.587-0.001,0.853-0.025c-0.915-0.525-1.975-0.827-3.106-0.827
	c-1.434,0-2.756,0.483-3.811,1.296c-1.484,1.143-2.44,2.937-2.44,4.955c0,3.452,2.799,6.251,6.251,6.251
	c3.452,0,6.251-2.799,6.251-6.251C1002.886-584.762,1001.811-586.65,1000.172-587.777z"/>
<path opacity="0.3" fill="#151515" d="M987.894-549.621c-0.06,0.022-0.119,0.044-0.175,0.067c0.055,0.225,0.113,0.473,0.224,0.141
	c-0.111,0.332-0.169,0.085-0.224-0.141c-0.097,0.04-0.183,0.083-0.241,0.141c0.056-0.282,0.099-0.385,0.135-0.391
	c-0.056-0.034-0.114-0.067-0.171-0.1c-0.279,0.026-0.56,0.026-0.894,0.026l0.233-0.233c-2.093,0.698-4.185,1.395-6.511,0.698
	c2.325,0.698,4.418,0,6.511-0.698l-0.233,0.233c0.334,0,0.615-0.001,0.894-0.026c-0.96-0.551-2.071-0.867-3.256-0.867
	c-1.504,0-2.89,0.507-3.996,1.358c-1.556,1.198-2.558,3.08-2.558,5.195c0,3.62,2.934,6.554,6.554,6.554s6.554-2.934,6.554-6.554
	C990.74-546.46,989.612-548.439,987.894-549.621z"/>
<path opacity="0.3" fill="#151515" d="M971.601-552.399c-0.066,0.025-0.132,0.049-0.193,0.074c0.061,0.249,0.125,0.522,0.247,0.155
	c-0.122,0.367-0.186,0.093-0.247-0.155c-0.107,0.044-0.202,0.092-0.266,0.155c0.062-0.311,0.109-0.425,0.149-0.432
	c-0.062-0.038-0.125-0.074-0.189-0.111c-0.308,0.028-0.618,0.029-0.987,0.029l0.257-0.257c-2.311,0.77-4.621,1.54-7.189,0.77
	c2.567,0.77,4.878,0,7.189-0.77l-0.257,0.257c0.369,0,0.679-0.001,0.987-0.029c-1.06-0.608-2.286-0.958-3.596-0.958
	c-1.661,0-3.19,0.559-4.412,1.5c-1.718,1.323-2.825,3.401-2.825,5.737c0,3.997,3.24,7.237,7.236,7.237
	c3.997,0,7.237-3.24,7.237-7.237C974.742-548.909,973.498-551.094,971.601-552.399z"/>
<path opacity="0.3" fill="#00A79D" enable-background="new    " d="M977.643-570.935c-0.026,0.01-0.051,0.019-0.075,0.029
	c0.024,0.096,0.048,0.202,0.096,0.06c-0.047,0.142-0.072,0.036-0.096-0.06c-0.041,0.017-0.078,0.035-0.103,0.06
	c0.024-0.12,0.042-0.164,0.057-0.167c-0.024-0.015-0.048-0.029-0.073-0.043c-0.119,0.011-0.239,0.011-0.381,0.011l0.099-0.099
	c-0.893,0.298-1.786,0.595-2.778,0.298c0.992,0.298,1.885,0,2.778-0.298l-0.099,0.099c0.143,0,0.263,0,0.381-0.011
	c-0.409-0.235-0.884-0.37-1.389-0.37c-0.642,0-1.233,0.216-1.705,0.58c-0.664,0.511-1.092,1.314-1.092,2.217
	c0,1.544,1.252,2.796,2.796,2.796c1.544,0,2.796-1.252,2.796-2.796C978.857-569.587,978.376-570.431,977.643-570.935z"/>
<polygon opacity="0.4" fill="#151515" points="1094.751,-530 1096.817,-538.379 1105.106,-540.779 1111.329,-534.801 
	1109.264,-526.422 1100.975,-524.022 "/>
<polygon opacity="0.8" fill="#545354" points="1040.534,-571.299 1045.941,-593.234 1067.641,-599.519 1083.934,-583.868 
	1078.526,-561.933 1056.826,-555.649 "/>
<polygon opacity="0.7" fill="#545354" points="1094.389,-523.271 1060.455,-543.136 1060.692,-582.456 1094.863,-601.911 
	1128.797,-582.046 1128.56,-542.726 "/>
<polygon fill="#545354" points="1051.777,-585.569 1043.708,-588.278 1042.02,-596.62 1048.4,-602.254 1056.469,-599.545 
	1058.158,-591.203 "/>
<polygon fill="#939598" points="1114.725,-530.804 1116.095,-536.362 1121.594,-537.954 1125.722,-533.988 1124.352,-528.43 
	1118.853,-526.838 "/>
<polygon opacity="0.4" fill="#151515" points="1073.302,-531.269 1076.917,-545.932 1091.423,-550.133 1102.314,-539.671 
	1098.699,-525.008 1084.193,-520.807 "/>
<polygon opacity="0.8" fill="#151515" points="1009.04,-566.692 994.899,-577.877 1011.656,-584.532 "/>
<polygon fill="#939598" points="987.857,-551.806 991.391,-566.458 1002.313,-556.071 "/>
<polygon opacity="0.7" fill="#939598" points="1008.255,-533.384 999.494,-575.556 1041.603,-562.307 "/>
<polygon fill="#939598" points="994.952,-537.666 988.559,-542.723 996.135,-545.732 "/>
<polygon fill="#939598" points="1022.628,-567.356 1012.853,-575.087 1024.436,-579.687 "/>
<polygon fill="#151515" points="1015.327,-535.725 1001.291,-552.921 1023.201,-556.479 "/>
<circle opacity="0.8" fill="#151515" cx="1055.374" cy="-553.623" r="22.545"/>
<path fill="#00242B" d="M1073.849-576.555c-0.05,0.019-0.099,0.037-0.146,0.056c0.046,0.188,0.094,0.394,0.187,0.117
	c-0.092,0.277-0.14,0.07-0.187-0.117c-0.081,0.033-0.153,0.069-0.201,0.117c0.047-0.235,0.083-0.321,0.112-0.326
	c-0.047-0.029-0.095-0.056-0.142-0.083c-0.232,0.021-0.466,0.022-0.745,0.022l0.194-0.194c-1.743,0.581-3.486,1.162-5.422,0.581
	c1.937,0.581,3.679,0,5.422-0.581l-0.194,0.194c0.279,0,0.512-0.001,0.745-0.022c-0.799-0.459-1.725-0.722-2.712-0.722
	c-1.253,0-2.406,0.422-3.328,1.131c-1.296,0.998-2.131,2.565-2.131,4.327c0,3.015,2.444,5.458,5.458,5.458s5.458-2.444,5.458-5.458
	C1076.219-573.923,1075.28-575.571,1073.849-576.555z"/>
<path fill="#939598" d="M1036.962-526.222c-0.013,0.005-0.026,0.01-0.039,0.015c0.012,0.049,0.025,0.104,0.049,0.031
	c-0.024,0.073-0.037,0.019-0.049-0.031c-0.021,0.009-0.04,0.018-0.053,0.031c0.012-0.062,0.022-0.085,0.03-0.086
	c-0.012-0.008-0.025-0.015-0.038-0.022c-0.061,0.006-0.123,0.006-0.197,0.006l0.051-0.051c-0.46,0.153-0.921,0.307-1.432,0.153
	c0.511,0.153,0.972,0,1.432-0.153l-0.051,0.051c0.074,0,0.135,0,0.197-0.006c-0.211-0.121-0.455-0.191-0.716-0.191
	c-0.331,0-0.636,0.111-0.879,0.299c-0.342,0.264-0.563,0.677-0.563,1.143c0,0.796,0.645,1.442,1.442,1.442s1.442-0.645,1.442-1.442
	C1037.588-525.527,1037.34-525.962,1036.962-526.222z"/>
<path fill="#939598" d="M1043.068-580.428c-0.032,0.012-0.064,0.024-0.094,0.036c0.03,0.121,0.061,0.255,0.121,0.076
	c-0.06,0.179-0.091,0.046-0.121-0.076c-0.052,0.021-0.099,0.045-0.13,0.076c0.03-0.152,0.053-0.208,0.073-0.211
	c-0.03-0.019-0.061-0.036-0.092-0.054c-0.15,0.014-0.302,0.014-0.482,0.014l0.125-0.125c-1.129,0.376-2.257,0.752-3.511,0.376
	c1.254,0.376,2.383,0,3.511-0.376l-0.125,0.125c0.18,0,0.332,0,0.482-0.014c-0.518-0.297-1.117-0.468-1.756-0.468
	c-0.811,0-1.558,0.273-2.155,0.733c-0.839,0.646-1.38,1.661-1.38,2.802c0,1.952,1.582,3.535,3.535,3.535
	c1.952,0,3.535-1.582,3.535-3.535C1044.603-578.723,1043.995-579.79,1043.068-580.428z"/>
<path opacity="0.6" fill="#151515" d="M1035.49-572.346c-0.042,0.016-0.084,0.031-0.124,0.047c0.039,0.159,0.08,0.333,0.158,0.099
	c-0.078,0.234-0.119,0.06-0.158-0.099c-0.068,0.028-0.129,0.059-0.17,0.099c0.04-0.199,0.07-0.272,0.095-0.276
	c-0.04-0.024-0.08-0.047-0.12-0.071c-0.197,0.018-0.395,0.019-0.63,0.019l0.164-0.164c-1.475,0.492-2.951,0.984-4.59,0.492
	c1.639,0.492,3.114,0,4.59-0.492l-0.164,0.164c0.236,0,0.434,0,0.63-0.019c-0.676-0.388-1.46-0.611-2.296-0.611
	c-1.06,0-2.037,0.357-2.817,0.958c-1.097,0.845-1.804,2.171-1.804,3.663c0,2.552,2.069,4.62,4.62,4.62c2.552,0,4.62-2.069,4.62-4.62
	C1037.496-570.118,1036.702-571.513,1035.49-572.346z"/>
<path opacity="0.8" fill="#939598" d="M1025.942-535.693c-0.044,0.017-0.088,0.033-0.13,0.05c0.041,0.166,0.084,0.349,0.166,0.104
	c-0.082,0.245-0.125,0.063-0.166-0.104c-0.072,0.029-0.135,0.061-0.178,0.104c0.042-0.208,0.073-0.285,0.1-0.289
	c-0.042-0.026-0.084-0.05-0.126-0.074c-0.206,0.019-0.414,0.019-0.661,0.019l0.172-0.172c-1.547,0.516-3.094,1.031-4.812,0.516
	c1.719,0.516,3.266,0,4.812-0.516l-0.172,0.172c0.247,0,0.455,0,0.661-0.019c-0.709-0.407-1.531-0.641-2.407-0.641
	c-1.112,0-2.136,0.374-2.953,1.004c-1.15,0.886-1.891,2.276-1.891,3.84c0,2.675,2.169,4.844,4.844,4.844s4.844-2.169,4.844-4.844
	C1028.045-533.357,1027.212-534.819,1025.942-535.693z"/>
<path fill="#939598" d="M1054.096-536.109c-0.049,0.018-0.097,0.036-0.143,0.055c0.045,0.184,0.093,0.386,0.183,0.115
	c-0.09,0.271-0.138,0.069-0.183-0.115c-0.079,0.032-0.15,0.068-0.197,0.115c0.046-0.23,0.081-0.314,0.11-0.319
	c-0.046-0.028-0.093-0.055-0.139-0.082c-0.228,0.021-0.457,0.021-0.73,0.021l0.19-0.19c-1.708,0.569-3.416,1.139-5.314,0.569
	c1.898,0.569,3.606,0,5.314-0.569l-0.19,0.19c0.273,0,0.502-0.001,0.73-0.021c-0.783-0.449-1.69-0.708-2.658-0.708
	c-1.227,0-2.358,0.413-3.261,1.109c-1.27,0.978-2.088,2.513-2.088,4.24c0,2.954,2.395,5.349,5.349,5.349
	c2.954,0,5.349-2.395,5.349-5.349C1056.418-533.529,1055.498-535.144,1054.096-536.109z"/>
<path fill="#939598" d="M1015.839-569.898c-0.019,0.007-0.038,0.014-0.055,0.021c0.018,0.071,0.036,0.149,0.071,0.044
	c-0.035,0.105-0.053,0.027-0.071-0.044c-0.031,0.013-0.058,0.026-0.076,0.044c0.018-0.089,0.031-0.122,0.043-0.123
	c-0.018-0.011-0.036-0.021-0.054-0.032c-0.088,0.008-0.176,0.008-0.282,0.008l0.073-0.073c-0.66,0.22-1.32,0.44-2.053,0.22
	c0.733,0.22,1.393,0,2.053-0.22l-0.073,0.073c0.105,0,0.194,0,0.282-0.008c-0.303-0.174-0.653-0.273-1.027-0.273
	c-0.474,0-0.911,0.16-1.26,0.428c-0.491,0.378-0.807,0.971-0.807,1.638c0,1.141,0.925,2.067,2.067,2.067
	c1.142,0,2.067-0.925,2.067-2.067C1016.736-568.901,1016.381-569.525,1015.839-569.898z"/>
<polygon fill="#545354" points="1103.181,-537.032 1104.707,-543.225 1110.834,-544.999 1115.434,-540.581 1113.907,-534.388 
	1107.781,-532.613 "/>
<polygon fill="#939598" points="1060.451,-569.558 1064.448,-585.771 1080.487,-590.416 1092.53,-578.848 1088.533,-562.635 
	1072.493,-557.99 "/>
<polygon fill="#151515" points="1102.913,-534.493 1077.831,-549.176 1078.006,-578.239 1103.263,-592.619 1128.345,-577.936 
	1128.17,-548.873 "/>
<polygon fill="#545354" points="1071.417,-579.584 1065.453,-581.586 1064.205,-587.752 1068.921,-591.916 1074.885,-589.914 
	1076.133,-583.748 "/>
<polygon fill="#939598" points="1048.286,-558.047 1049.298,-562.155 1053.362,-563.332 1056.414,-560.401 1055.401,-556.293 
	1051.337,-555.116 "/>
<polygon opacity="0.8" fill="#151515" points="1117.944,-537.626 1118.957,-541.734 1123.021,-542.911 1126.072,-539.98 
	1125.06,-535.872 1120.995,-534.695 "/>
<polygon opacity="0.5" fill="#939598" points="975.317,-568.789 982.958,-579.032 988.009,-567.293 "/>
<polygon fill="#939598" points="962.28,-581.314 972.732,-579.103 965.591,-571.157 "/>
<polygon opacity="0.7" fill="#939598" points="951.701,-568.678 981.406,-575.73 972.862,-545.629 "/>
<polygon fill="#939598" points="954.469,-578.189 957.924,-582.82 960.207,-577.513 "/>
<polygon fill="#939598" points="976.06,-559.174 981.341,-566.255 984.833,-558.14 "/>
<polygon fill="#151515" points="948.542,-563.573 960.444,-573.863 963.404,-558.41 "/>
<path fill="#939598" d="M965.713-558.352c-0.013-0.031-0.025-0.062-0.038-0.091c-0.117,0.032-0.246,0.066-0.07,0.119
	c-0.176-0.053-0.047-0.087,0.07-0.119c-0.022-0.05-0.046-0.095-0.077-0.124c0.149,0.025,0.203,0.046,0.207,0.065
	c0.017-0.03,0.034-0.06,0.05-0.091c-0.018-0.146-0.022-0.293-0.027-0.468l0.125,0.118c-0.396-1.086-0.793-2.171-0.462-3.399
	c-0.331,1.228,0.065,2.314,0.462,3.399l-0.125-0.118c0.005,0.175,0.009,0.322,0.027,0.468c0.274-0.511,0.423-1.097,0.406-1.718
	c-0.022-0.788-0.308-1.506-0.771-2.072c-0.651-0.797-1.651-1.294-2.759-1.263c-1.896,0.054-3.389,1.634-3.335,3.529
	c0.054,1.896,1.634,3.389,3.529,3.335C964.1-556.815,965.12-557.434,965.713-558.352z"/>
<path fill="#939598" d="M977.724-564.036c-0.005-0.013-0.011-0.026-0.016-0.039c-0.05,0.014-0.105,0.028-0.03,0.051
	c-0.075-0.023-0.02-0.037,0.03-0.051c-0.009-0.021-0.02-0.04-0.033-0.053c0.063,0.011,0.087,0.02,0.088,0.028
	c0.007-0.013,0.014-0.026,0.021-0.039c-0.007-0.062-0.009-0.125-0.012-0.2l0.053,0.05c-0.169-0.463-0.338-0.926-0.197-1.45
	c-0.141,0.524,0.028,0.987,0.197,1.45l-0.053-0.05c0.002,0.075,0.004,0.137,0.012,0.2c0.117-0.218,0.181-0.468,0.173-0.733
	c-0.01-0.336-0.131-0.642-0.329-0.884c-0.278-0.34-0.704-0.552-1.177-0.539c-0.809,0.023-1.446,0.697-1.423,1.506
	c0.023,0.809,0.697,1.446,1.506,1.423C977.036-563.38,977.471-563.644,977.724-564.036z"/>
<path fill="#545354" d="M943.644-567.57c-0.092,0.034-0.183,0.068-0.268,0.103c0.085,0.345,0.174,0.724,0.343,0.215
	c-0.169,0.509-0.258,0.13-0.343-0.215c-0.149,0.061-0.281,0.127-0.369,0.215c0.086-0.432,0.152-0.59,0.206-0.599
	c-0.086-0.053-0.174-0.103-0.262-0.153c-0.427,0.039-0.857,0.04-1.369,0.04l0.356-0.356c-3.205,1.068-6.409,2.136-9.97,1.068
	c3.561,1.068,6.765,0,9.97-1.068l-0.356,0.356c0.512,0,0.942-0.001,1.369-0.04c-1.469-0.843-3.171-1.328-4.987-1.328
	c-2.303,0-4.425,0.776-6.119,2.08c-2.383,1.835-3.918,4.716-3.918,7.956c0,5.543,4.493,10.036,10.036,10.036
	c5.543,0,10.036-4.493,10.036-10.036C948.001-562.73,946.275-565.76,943.644-567.57z"/>
<path fill="#939598" d="M899.444-567.315c-0.032,0.012-0.063,0.023-0.092,0.035c0.029,0.119,0.06,0.249,0.118,0.074
	c-0.058,0.175-0.089,0.045-0.118-0.074c-0.051,0.021-0.097,0.044-0.127,0.074c0.03-0.149,0.052-0.203,0.071-0.206
	c-0.03-0.018-0.06-0.035-0.09-0.053c-0.147,0.013-0.295,0.014-0.471,0.014l0.123-0.123c-1.103,0.368-2.206,0.735-3.432,0.368
	c1.226,0.368,2.329,0,3.432-0.368l-0.123,0.123c0.176,0,0.324,0,0.471-0.014c-0.506-0.29-1.091-0.457-1.716-0.457
	c-0.793,0-1.523,0.267-2.106,0.716c-0.82,0.632-1.348,1.623-1.348,2.739c0,1.908,1.547,3.455,3.455,3.455
	c1.908,0,3.455-1.547,3.455-3.455C900.944-565.649,900.35-566.692,899.444-567.315z"/>
<path fill="#939598" d="M946.644-555.97c-0.048,0.018-0.095,0.035-0.14,0.054c0.044,0.18,0.09,0.377,0.179,0.112
	c-0.088,0.265-0.135,0.067-0.179-0.112c-0.077,0.032-0.146,0.066-0.192,0.112c0.045-0.225,0.079-0.307,0.107-0.312
	c-0.045-0.028-0.091-0.054-0.136-0.08c-0.222,0.02-0.446,0.021-0.713,0.021l0.185-0.185c-1.669,0.556-3.338,1.113-5.193,0.556
	c1.855,0.556,3.524,0,5.193-0.556l-0.185,0.185c0.267,0,0.491-0.001,0.713-0.021c-0.765-0.439-1.652-0.692-2.597-0.692
	c-1.2,0-2.305,0.404-3.187,1.083c-1.241,0.956-2.041,2.457-2.041,4.144c0,2.887,2.34,5.228,5.228,5.228s5.228-2.34,5.228-5.228
	C948.914-553.45,948.015-555.028,946.644-555.97z"/>
<polygon fill="#151515" points="937.965,-591.412 938.955,-595.427 942.927,-596.578 945.909,-593.713 944.919,-589.698 
	940.947,-588.547 "/>
<polygon fill="#939598" points="1098.114,-491.808 1090.38,-529.038 1127.554,-517.342 "/>
<polygon fill="#939598" points="1110.629,-512.9 1114.164,-527.551 1125.085,-517.165 "/>
<polygon fill="#151515" points="1083.932,-514.744 1095.834,-525.034 1098.794,-509.581 "/>
<polygon fill="#151515" points="1121.912,-496.691 1113.843,-499.4 1112.155,-507.742 1118.535,-513.376 1126.604,-510.667 
	1128.293,-502.325 "/>
<polygon fill="#939598" points="1109.509,-585.936 1116.424,-591.683 1124.859,-588.568 1126.379,-579.705 1119.464,-573.958 
	1111.029,-577.073 "/>
</svg>
