<?xml version="1.0" encoding="utf-8"?>
<!-- Generator: Adobe Illustrator 17.0.0, SVG Export Plug-In . SVG Version: 6.00 Build 0)  -->
<!DOCTYPE svg PUBLIC "-//W3C//DTD SVG 1.1//EN" "http://www.w3.org/Graphics/SVG/1.1/DTD/svg11.dtd">
<svg version="1.1" id="Calque_1" xmlns="http://www.w3.org/2000/svg" xmlns:xlink="http://www.w3.org/1999/xlink" x="0px" y="0px"
	 width="211px" height="110.833px" viewBox="1197.526 -603.307 211 110.833" enable-background="new 1197.526 -603.307 211 110.833"
	 xml:space="preserve">
<path fill="#92278F" d="M1334.86-583.986c-0.067,0.025-0.134,0.05-0.197,0.076c0.063,0.254,0.128,0.533,0.253,0.158
	c-0.125,0.374-0.19,0.095-0.253-0.158c-0.109,0.045-0.207,0.094-0.271,0.158c0.064-0.318,0.112-0.434,0.152-0.441
	c-0.063-0.039-0.128-0.076-0.192-0.113c-0.314,0.029-0.631,0.03-1.007,0.03l0.262-0.262c-2.358,0.786-4.716,1.572-7.336,0.786
	c2.62,0.786,4.978,0,7.336-0.786l-0.262,0.262c0.377,0,0.693-0.001,1.007-0.03c-1.081-0.62-2.333-0.977-3.669-0.977
	c-1.695,0-3.256,0.571-4.502,1.531c-1.753,1.35-2.883,3.47-2.883,5.854c0,4.078,3.306,7.385,7.385,7.385
	c4.078,0,7.385-3.306,7.385-7.385C1338.066-580.425,1336.796-582.655,1334.86-583.986z"/>
<path opacity="0.6" fill="#92278F" d="M1295.216-598.225c-0.044,0.016-0.087,0.032-0.128,0.049c0.04,0.164,0.083,0.345,0.164,0.103
	c-0.081,0.242-0.123,0.062-0.164-0.103c-0.071,0.029-0.134,0.061-0.176,0.103c0.041-0.206,0.072-0.281,0.098-0.285
	c-0.041-0.025-0.083-0.049-0.125-0.073c-0.203,0.019-0.408,0.019-0.652,0.019l0.17-0.17c-1.527,0.509-3.054,1.018-4.751,0.509
	c1.697,0.509,3.224,0,4.751-0.509l-0.17,0.17c0.244,0,0.449,0,0.652-0.019c-0.7-0.402-1.511-0.633-2.376-0.633
	c-1.097,0-2.108,0.37-2.915,0.991c-1.135,0.874-1.867,2.247-1.867,3.791c0,2.641,2.141,4.782,4.782,4.782s4.782-2.141,4.782-4.782
	C1297.292-595.919,1296.47-597.363,1295.216-598.225z"/>
<polygon fill="#1C003E" points="1258.479,-591.541 1259.849,-597.099 1265.348,-598.691 1269.476,-594.726 1268.106,-589.168 
	1262.608,-587.575 "/>
<polygon fill="#1C003E" points="1387.841,-591.384 1386.446,-603.33 1397.49,-598.565 "/>
<polygon opacity="0.6" fill="#92278F" points="1323.297,-534.894 1328.187,-554.731 1347.812,-560.415 1362.547,-546.261 
	1357.656,-526.423 1338.031,-520.74 "/>
<polygon fill="#662D91" points="1251.676,-581.26 1256.458,-601.083 1271.234,-587.03 "/>
<polygon opacity="0.6" fill="#1C003E" points="1238.241,-537.459 1229.591,-544.3 1239.841,-548.371 "/>
<polygon opacity="0.6" fill="#1C003E" points="1266.621,-568.011 1253.396,-578.471 1269.067,-584.694 "/>
<polygon fill="#1C003E" points="1253.706,-541.474 1234.716,-564.738 1264.358,-569.552 "/>
<circle fill="#2B3990" cx="1302.159" cy="-564.96" r="30.501"/>
<path opacity="0.4" fill="#2B3990" d="M1313.172-597.717c-0.127,0.048-0.253,0.094-0.371,0.142c0.118,0.477,0.241,1.002,0.475,0.298
	c-0.235,0.704-0.358,0.179-0.475-0.298c-0.206,0.084-0.388,0.176-0.511,0.298c0.12-0.598,0.21-0.817,0.286-0.829
	c-0.119-0.073-0.241-0.143-0.362-0.212c-0.591,0.054-1.186,0.056-1.895,0.056l0.493-0.493c-4.436,1.479-8.872,2.957-13.801,1.479
	c4.929,1.479,9.365,0,13.801-1.479l-0.493,0.493c0.709,0,1.304-0.001,1.895-0.056c-2.034-1.167-4.389-1.838-6.903-1.838
	c-3.188,0-6.125,1.074-8.47,2.88c-3.298,2.54-5.423,6.529-5.423,11.013c0,7.673,6.22,13.893,13.893,13.893
	s13.893-6.22,13.893-13.893C1319.204-591.018,1316.814-595.213,1313.172-597.717z"/>
<path opacity="0.3" fill="#00242B" enable-background="new    " d="M1329.835-566.511c-0.018,0.007-0.035,0.013-0.052,0.02
	c0.017,0.067,0.034,0.141,0.067,0.042c-0.033,0.099-0.05,0.025-0.067-0.042c-0.029,0.012-0.055,0.025-0.072,0.042
	c0.017-0.084,0.029-0.115,0.04-0.116c-0.017-0.01-0.034-0.02-0.051-0.03c-0.083,0.008-0.167,0.008-0.266,0.008l0.069-0.069
	c-0.623,0.208-1.245,0.415-1.937,0.208c0.692,0.208,1.315,0,1.937-0.208l-0.069,0.069c0.1,0,0.183,0,0.266-0.008
	c-0.286-0.164-0.616-0.258-0.969-0.258c-0.448,0-0.86,0.151-1.189,0.404c-0.463,0.357-0.761,0.917-0.761,1.546
	c0,1.077,0.873,1.95,1.95,1.95s1.95-0.873,1.95-1.95C1330.681-565.57,1330.346-566.159,1329.835-566.511z"/>
<path opacity="0.7" fill="#1C003E" d="M1280.964-592.291c-0.057,0.021-0.114,0.042-0.167,0.064c0.053,0.215,0.108,0.451,0.214,0.134
	c-0.106,0.317-0.161,0.081-0.214-0.134c-0.093,0.038-0.175,0.079-0.23,0.134c0.054-0.269,0.094-0.367,0.129-0.373
	c-0.054-0.033-0.108-0.064-0.163-0.096c-0.266,0.024-0.534,0.025-0.853,0.025l0.222-0.222c-1.996,0.665-3.992,1.331-6.21,0.665
	c2.218,0.665,4.214,0,6.21-0.665l-0.222,0.222c0.319,0,0.587-0.001,0.853-0.025c-0.915-0.525-1.975-0.827-3.106-0.827
	c-1.434,0-2.756,0.483-3.811,1.296c-1.484,1.143-2.44,2.937-2.44,4.955c0,3.452,2.799,6.251,6.251,6.251
	c3.452,0,6.251-2.799,6.251-6.251C1283.678-589.276,1282.603-591.164,1280.964-592.291z"/>
<path opacity="0.4" fill="#2B3990" d="M1267.686-550.135c-0.06,0.022-0.119,0.044-0.175,0.067c0.055,0.225,0.113,0.473,0.224,0.141
	c-0.111,0.332-0.169,0.085-0.224-0.141c-0.097,0.04-0.183,0.083-0.241,0.141c0.056-0.282,0.099-0.385,0.135-0.391
	c-0.056-0.034-0.114-0.067-0.171-0.1c-0.279,0.026-0.56,0.026-0.894,0.026l0.233-0.233c-2.093,0.698-4.185,1.395-6.511,0.698
	c2.325,0.698,4.418,0,6.511-0.698l-0.233,0.233c0.334,0,0.615-0.001,0.894-0.026c-0.96-0.551-2.071-0.867-3.256-0.867
	c-1.504,0-2.89,0.507-3.996,1.358c-1.556,1.198-2.558,3.08-2.558,5.195c0,3.62,2.934,6.554,6.554,6.554s6.554-2.934,6.554-6.554
	C1270.532-546.974,1269.404-548.953,1267.686-550.135z"/>
<path opacity="0.6" fill="#1C003E" d="M1251.393-552.913c-0.066,0.025-0.132,0.049-0.193,0.074c0.061,0.249,0.125,0.522,0.247,0.155
	c-0.122,0.367-0.186,0.093-0.247-0.155c-0.107,0.044-0.202,0.092-0.266,0.155c0.062-0.311,0.109-0.425,0.149-0.432
	c-0.062-0.038-0.125-0.074-0.189-0.111c-0.308,0.028-0.618,0.029-0.987,0.029l0.257-0.257c-2.311,0.77-4.621,1.54-7.189,0.77
	c2.567,0.77,4.878,0,7.189-0.77l-0.257,0.257c0.369,0,0.679-0.001,0.987-0.029c-1.06-0.608-2.286-0.958-3.596-0.958
	c-1.661,0-3.19,0.559-4.412,1.5c-1.718,1.323-2.825,3.401-2.825,5.737c0,3.997,3.24,7.237,7.236,7.237
	c3.997,0,7.237-3.24,7.237-7.237C1254.534-549.423,1253.29-551.608,1251.393-552.913z"/>
<path opacity="0.3" fill="#00A79D" enable-background="new    " d="M1257.435-571.449c-0.026,0.01-0.051,0.019-0.075,0.029
	c0.024,0.096,0.048,0.202,0.096,0.06c-0.047,0.142-0.072,0.036-0.096-0.06c-0.041,0.017-0.078,0.035-0.103,0.06
	c0.024-0.12,0.042-0.164,0.057-0.167c-0.024-0.015-0.048-0.029-0.073-0.043c-0.119,0.011-0.239,0.011-0.381,0.011l0.099-0.099
	c-0.893,0.298-1.786,0.595-2.778,0.298c0.992,0.298,1.885,0,2.778-0.298l-0.099,0.099c0.143,0,0.263,0,0.381-0.011
	c-0.409-0.235-0.884-0.37-1.389-0.37c-0.642,0-1.233,0.216-1.705,0.58c-0.664,0.511-1.092,1.314-1.092,2.217
	c0,1.544,1.252,2.796,2.796,2.796c1.544,0,2.796-1.252,2.796-2.796C1258.649-570.101,1258.168-570.945,1257.435-571.449z"/>
<polygon fill="#92278F" points="1374.543,-530.514 1376.609,-538.893 1384.898,-541.293 1391.121,-535.315 1389.056,-526.936 
	1380.767,-524.536 "/>
<polygon opacity="0.4" fill="#2B3990" points="1331.076,-570.813 1336.483,-592.748 1358.183,-599.033 1374.476,-583.382 
	1369.068,-561.447 1347.368,-555.163 "/>
<polygon fill="#2B3990" points="1374.181,-523.785 1340.247,-543.65 1340.484,-582.97 1374.655,-602.425 1408.589,-582.56 
	1408.352,-543.24 "/>
<polygon fill="#1C003E" points="1331.569,-586.083 1323.5,-588.792 1321.812,-597.134 1328.192,-602.768 1336.261,-600.059 
	1337.95,-591.717 "/>
<polygon opacity="0.7" fill="#92278F" points="1397.517,-531.318 1398.887,-536.876 1404.386,-538.468 1408.514,-534.502 
	1407.144,-528.944 1401.645,-527.352 "/>
<polygon fill="#662D91" points="1345.094,-540.783 1348.709,-555.446 1363.215,-559.647 1374.106,-549.185 1370.491,-534.522 
	1355.985,-530.321 "/>
<polygon fill="#1C003E" points="1288.832,-567.206 1274.691,-578.391 1291.448,-585.046 "/>
<polygon fill="#662D91" points="1267.649,-552.32 1271.183,-566.972 1282.105,-556.585 "/>
<polygon fill="#662D91" points="1288.047,-533.898 1279.286,-576.07 1321.395,-562.821 "/>
<polygon fill="#92278F" points="1274.744,-538.18 1268.351,-543.237 1275.927,-546.246 "/>
<polygon opacity="0.4" fill="#662D91" points="1303.42,-571.37 1293.645,-579.101 1305.228,-583.701 "/>
<polygon opacity="0.6" fill="#1C003E" points="1295.119,-536.239 1281.083,-553.435 1302.993,-556.993 "/>
<circle opacity="0.6" fill="#1C003E" cx="1333.166" cy="-554.137" r="22.545"/>
<path fill="#92278F" d="M1320.308-550.679c-0.094,0.035-0.187,0.069-0.275,0.105c0.087,0.353,0.178,0.741,0.351,0.22
	c-0.173,0.52-0.264,0.133-0.351-0.22c-0.152,0.062-0.287,0.13-0.377,0.22c0.088-0.442,0.155-0.604,0.211-0.613
	c-0.088-0.054-0.178-0.105-0.268-0.157c-0.437,0.04-0.877,0.041-1.401,0.041l0.364-0.364c-3.279,1.093-6.558,2.186-10.201,1.093
	c3.643,1.093,6.922,0,10.201-1.093l-0.364,0.364c0.524,0,0.964-0.001,1.401-0.041c-1.504-0.863-3.244-1.359-5.102-1.359
	c-2.356,0-4.527,0.794-6.26,2.128c-2.438,1.878-4.009,4.826-4.009,8.141c0,5.671,4.598,10.269,10.269,10.269
	s10.269-4.598,10.269-10.269C1324.766-545.727,1323-548.827,1320.308-550.679z"/>
<path fill="#00242B" d="M1353.641-577.069c-0.05,0.019-0.099,0.037-0.146,0.056c0.046,0.188,0.094,0.394,0.187,0.117
	c-0.092,0.277-0.14,0.07-0.187-0.117c-0.081,0.033-0.153,0.069-0.201,0.117c0.047-0.235,0.083-0.321,0.112-0.326
	c-0.047-0.029-0.095-0.056-0.142-0.083c-0.232,0.021-0.466,0.022-0.745,0.022l0.194-0.194c-1.743,0.581-3.486,1.162-5.422,0.581
	c1.937,0.581,3.679,0,5.422-0.581l-0.194,0.194c0.279,0,0.512-0.001,0.745-0.022c-0.799-0.459-1.725-0.722-2.712-0.722
	c-1.253,0-2.406,0.422-3.328,1.131c-1.296,0.998-2.131,2.565-2.131,4.327c0,3.015,2.444,5.458,5.458,5.458s5.458-2.444,5.458-5.458
	C1356.011-574.437,1355.072-576.085,1353.641-577.069z"/>
<path opacity="0.6" fill="#1C003E" d="M1316.754-526.736c-0.013,0.005-0.026,0.01-0.039,0.015c0.012,0.049,0.025,0.104,0.049,0.031
	c-0.024,0.073-0.037,0.019-0.049-0.031c-0.021,0.009-0.04,0.018-0.053,0.031c0.012-0.062,0.022-0.085,0.03-0.086
	c-0.012-0.008-0.025-0.015-0.038-0.022c-0.061,0.006-0.123,0.006-0.197,0.006l0.051-0.051c-0.46,0.153-0.921,0.307-1.432,0.153
	c0.511,0.153,0.972,0,1.432-0.153l-0.051,0.051c0.074,0,0.135,0,0.197-0.006c-0.211-0.121-0.455-0.191-0.716-0.191
	c-0.331,0-0.636,0.111-0.879,0.299c-0.342,0.264-0.563,0.677-0.563,1.143c0,0.796,0.645,1.442,1.442,1.442s1.442-0.645,1.442-1.442
	C1317.38-526.041,1317.132-526.476,1316.754-526.736z"/>
<path opacity="0.6" fill="#1C003E" d="M1322.86-580.942c-0.032,0.012-0.064,0.024-0.094,0.036c0.03,0.121,0.061,0.255,0.121,0.076
	c-0.06,0.179-0.091,0.046-0.121-0.076c-0.052,0.021-0.099,0.045-0.13,0.076c0.03-0.152,0.053-0.208,0.073-0.211
	c-0.03-0.019-0.061-0.036-0.092-0.054c-0.15,0.014-0.302,0.014-0.482,0.014l0.125-0.125c-1.129,0.376-2.257,0.752-3.511,0.376
	c1.254,0.376,2.383,0,3.511-0.376l-0.125,0.125c0.18,0,0.332,0,0.482-0.014c-0.518-0.297-1.117-0.468-1.756-0.468
	c-0.811,0-1.558,0.273-2.155,0.733c-0.839,0.646-1.38,1.661-1.38,2.802c0,1.952,1.582,3.535,3.535,3.535
	c1.952,0,3.535-1.582,3.535-3.535C1324.395-579.237,1323.787-580.304,1322.86-580.942z"/>
<path fill="#92278F" d="M1315.282-572.86c-0.042,0.016-0.084,0.031-0.124,0.047c0.039,0.159,0.08,0.333,0.158,0.099
	c-0.078,0.234-0.119,0.06-0.158-0.099c-0.068,0.028-0.129,0.059-0.17,0.099c0.04-0.199,0.07-0.272,0.095-0.276
	c-0.04-0.024-0.08-0.047-0.12-0.071c-0.197,0.018-0.395,0.019-0.63,0.019l0.164-0.164c-1.475,0.492-2.951,0.984-4.59,0.492
	c1.639,0.492,3.114,0,4.59-0.492l-0.164,0.164c0.236,0,0.434,0,0.63-0.019c-0.676-0.388-1.46-0.611-2.296-0.611
	c-1.06,0-2.037,0.357-2.817,0.958c-1.097,0.845-1.804,2.171-1.804,3.663c0,2.552,2.069,4.62,4.62,4.62c2.552,0,4.62-2.069,4.62-4.62
	C1317.288-570.632,1316.494-572.027,1315.282-572.86z"/>
<path fill="#662D91" d="M1305.734-536.207c-0.044,0.017-0.088,0.033-0.13,0.05c0.041,0.166,0.084,0.349,0.166,0.104
	c-0.082,0.245-0.125,0.063-0.166-0.104c-0.072,0.029-0.135,0.061-0.178,0.104c0.042-0.208,0.073-0.285,0.1-0.289
	c-0.042-0.026-0.084-0.05-0.126-0.074c-0.206,0.019-0.414,0.019-0.661,0.019l0.172-0.172c-1.547,0.516-3.094,1.031-4.812,0.516
	c1.719,0.516,3.266,0,4.812-0.516l-0.172,0.172c0.247,0,0.455,0,0.661-0.019c-0.709-0.407-1.531-0.641-2.407-0.641
	c-1.112,0-2.136,0.374-2.953,1.004c-1.15,0.886-1.891,2.276-1.891,3.84c0,2.675,2.169,4.844,4.844,4.844
	c2.675,0,4.844-2.169,4.844-4.844C1307.837-533.871,1307.004-535.333,1305.734-536.207z"/>
<path fill="#662D91" d="M1333.888-536.623c-0.049,0.018-0.097,0.036-0.143,0.055c0.045,0.184,0.093,0.386,0.183,0.115
	c-0.09,0.271-0.138,0.069-0.183-0.115c-0.079,0.032-0.15,0.068-0.197,0.115c0.046-0.23,0.081-0.314,0.11-0.319
	c-0.046-0.028-0.093-0.055-0.139-0.082c-0.228,0.021-0.457,0.021-0.73,0.021l0.19-0.19c-1.708,0.569-3.416,1.139-5.314,0.569
	c1.898,0.569,3.606,0,5.314-0.569l-0.19,0.19c0.273,0,0.502-0.001,0.73-0.021c-0.783-0.449-1.69-0.708-2.658-0.708
	c-1.227,0-2.358,0.413-3.261,1.109c-1.27,0.978-2.088,2.513-2.088,4.24c0,2.954,2.395,5.349,5.349,5.349
	c2.954,0,5.349-2.395,5.349-5.349C1336.21-534.043,1335.29-535.658,1333.888-536.623z"/>
<path opacity="0.6" fill="#1C003E" d="M1295.631-570.412c-0.019,0.007-0.038,0.014-0.055,0.021c0.018,0.071,0.036,0.149,0.071,0.044
	c-0.035,0.105-0.053,0.027-0.071-0.044c-0.031,0.013-0.058,0.026-0.076,0.044c0.018-0.089,0.031-0.122,0.043-0.123
	c-0.018-0.011-0.036-0.021-0.054-0.032c-0.088,0.008-0.176,0.008-0.282,0.008l0.073-0.073c-0.66,0.22-1.32,0.44-2.053,0.22
	c0.733,0.22,1.393,0,2.053-0.22l-0.073,0.073c0.105,0,0.194,0,0.282-0.008c-0.303-0.174-0.653-0.273-1.027-0.273
	c-0.474,0-0.911,0.16-1.26,0.428c-0.491,0.378-0.807,0.971-0.807,1.638c0,1.141,0.925,2.067,2.067,2.067s2.067-0.925,2.067-2.067
	C1296.528-569.415,1296.173-570.039,1295.631-570.412z"/>
<polygon opacity="0.7" fill="#92278F" points="1381.973,-537.546 1383.499,-543.739 1389.626,-545.513 1394.226,-541.095 
	1392.699,-534.902 1386.573,-533.127 "/>
<polygon fill="#662D91" points="1340.243,-570.072 1344.24,-586.285 1360.279,-590.93 1372.322,-579.362 1368.325,-563.149 
	1352.285,-558.504 "/>
<polygon fill="#1C003E" points="1382.705,-535.007 1357.623,-549.69 1357.798,-578.753 1383.055,-593.133 1408.137,-578.45 
	1407.962,-549.387 "/>
<polygon fill="#1C003E" points="1351.209,-580.098 1345.245,-582.1 1343.997,-588.266 1348.713,-592.43 1354.677,-590.428 
	1355.925,-584.262 "/>
<polygon opacity="0.4" fill="#2B3990" points="1328.078,-558.561 1329.09,-562.669 1333.154,-563.846 1336.206,-560.915 
	1335.193,-556.807 1331.129,-555.63 "/>
<polygon opacity="0.7" fill="#1C003E" points="1397.736,-538.14 1398.749,-542.248 1402.813,-543.425 1405.864,-540.494 
	1404.852,-536.386 1400.787,-535.209 "/>
<polygon opacity="0.2" fill="#92278F" points="1255.109,-569.303 1262.75,-579.546 1267.801,-567.807 "/>
<polygon fill="#662D91" points="1242.072,-581.828 1252.524,-579.617 1245.383,-571.671 "/>
<polygon fill="#662D91" points="1231.493,-569.192 1261.198,-576.244 1252.654,-546.143 "/>
<polygon fill="#662D91" points="1234.261,-578.703 1237.716,-583.334 1239.999,-578.027 "/>
<polygon opacity="0.6" fill="#1C003E" points="1255.852,-559.688 1261.133,-566.769 1264.625,-558.654 "/>
<polygon fill="#92278F" points="1228.334,-564.087 1240.236,-574.377 1243.196,-558.924 "/>
<path opacity="0.6" fill="#1C003E" d="M1246.505-558.866c-0.013-0.031-0.025-0.062-0.038-0.091c-0.117,0.032-0.246,0.066-0.07,0.119
	c-0.176-0.053-0.047-0.087,0.07-0.119c-0.022-0.05-0.046-0.095-0.077-0.124c0.149,0.025,0.203,0.046,0.207,0.065
	c0.017-0.03,0.034-0.06,0.05-0.091c-0.018-0.146-0.022-0.293-0.027-0.468l0.125,0.118c-0.396-1.086-0.793-2.171-0.462-3.399
	c-0.331,1.228,0.065,2.314,0.462,3.399l-0.125-0.118c0.005,0.175,0.009,0.322,0.027,0.468c0.274-0.511,0.423-1.097,0.406-1.718
	c-0.022-0.788-0.308-1.506-0.771-2.072c-0.651-0.797-1.651-1.294-2.759-1.263c-1.896,0.054-3.389,1.634-3.335,3.529
	c0.054,1.896,1.634,3.389,3.529,3.335C1244.892-557.329,1245.912-557.948,1246.505-558.866z"/>
<path opacity="0.6" fill="#1C003E" d="M1257.516-564.55c-0.005-0.013-0.011-0.026-0.016-0.039c-0.05,0.014-0.105,0.028-0.03,0.051
	c-0.075-0.023-0.02-0.037,0.03-0.051c-0.009-0.021-0.02-0.04-0.033-0.053c0.063,0.011,0.087,0.02,0.088,0.028
	c0.007-0.013,0.014-0.026,0.021-0.039c-0.007-0.062-0.009-0.125-0.012-0.2l0.053,0.05c-0.169-0.463-0.338-0.926-0.197-1.45
	c-0.141,0.524,0.028,0.987,0.197,1.45l-0.053-0.05c0.002,0.075,0.004,0.137,0.012,0.2c0.117-0.218,0.181-0.468,0.173-0.733
	c-0.01-0.336-0.131-0.642-0.329-0.884c-0.278-0.34-0.704-0.552-1.177-0.539c-0.809,0.023-1.446,0.697-1.423,1.506
	c0.023,0.809,0.697,1.446,1.506,1.423C1256.828-563.894,1257.263-564.158,1257.516-564.55z"/>
<path opacity="0.4" fill="#2B3990" d="M1223.436-568.084c-0.092,0.034-0.183,0.068-0.268,0.103c0.085,0.345,0.174,0.724,0.343,0.215
	c-0.169,0.509-0.258,0.13-0.343-0.215c-0.149,0.061-0.281,0.127-0.369,0.215c0.086-0.432,0.152-0.59,0.206-0.599
	c-0.086-0.053-0.174-0.103-0.262-0.153c-0.427,0.039-0.857,0.04-1.369,0.04l0.356-0.356c-3.205,1.068-6.409,2.136-9.97,1.068
	c3.561,1.068,6.765,0,9.97-1.068l-0.356,0.356c0.512,0,0.942-0.001,1.369-0.04c-1.469-0.843-3.171-1.328-4.987-1.328
	c-2.303,0-4.425,0.776-6.119,2.08c-2.383,1.835-3.918,4.716-3.918,7.956c0,5.543,4.493,10.036,10.036,10.036
	c5.543,0,10.036-4.493,10.036-10.036C1227.793-563.244,1226.067-566.274,1223.436-568.084z"/>
<path fill="#662D91" d="M1203.236-565.829c-0.032,0.012-0.063,0.023-0.092,0.035c0.029,0.119,0.06,0.249,0.118,0.074
	c-0.058,0.175-0.089,0.045-0.118-0.074c-0.051,0.021-0.097,0.044-0.127,0.074c0.03-0.149,0.052-0.203,0.071-0.206
	c-0.03-0.018-0.06-0.035-0.09-0.053c-0.147,0.013-0.295,0.014-0.471,0.014l0.123-0.123c-1.103,0.368-2.206,0.735-3.432,0.368
	c1.226,0.368,2.329,0,3.432-0.368l-0.123,0.123c0.176,0,0.324,0,0.471-0.014c-0.506-0.29-1.091-0.457-1.716-0.457
	c-0.793,0-1.523,0.267-2.106,0.716c-0.82,0.632-1.348,1.623-1.348,2.739c0,1.908,1.547,3.455,3.455,3.455
	c1.908,0,3.455-1.547,3.455-3.455C1204.736-564.163,1204.142-565.206,1203.236-565.829z"/>
<path fill="#662D91" d="M1226.436-556.484c-0.048,0.018-0.095,0.035-0.14,0.054c0.044,0.18,0.09,0.377,0.179,0.112
	c-0.088,0.265-0.135,0.067-0.179-0.112c-0.077,0.032-0.146,0.066-0.192,0.112c0.045-0.225,0.079-0.307,0.107-0.312
	c-0.045-0.028-0.091-0.054-0.136-0.08c-0.222,0.02-0.446,0.021-0.713,0.021l0.185-0.185c-1.669,0.556-3.338,1.113-5.193,0.556
	c1.855,0.556,3.524,0,5.193-0.556l-0.185,0.185c0.267,0,0.491-0.001,0.713-0.021c-0.765-0.439-1.652-0.692-2.597-0.692
	c-1.2,0-2.305,0.404-3.187,1.083c-1.241,0.956-2.041,2.457-2.041,4.144c0,2.887,2.34,5.228,5.228,5.228
	c2.888,0,5.228-2.34,5.228-5.228C1228.706-553.964,1227.807-555.542,1226.436-556.484z"/>
<polygon fill="#1C003E" points="1217.757,-591.926 1218.747,-595.941 1222.719,-597.092 1225.701,-594.227 1224.711,-590.212 
	1220.739,-589.061 "/>
<polygon fill="#662D91" points="1377.906,-492.322 1370.172,-529.552 1407.346,-517.856 "/>
<polygon fill="#2B3990" points="1390.421,-513.414 1393.956,-528.065 1404.877,-517.679 "/>
<polygon fill="#1C003E" points="1363.724,-515.258 1375.626,-525.548 1378.586,-510.095 "/>
<polygon fill="#1C003E" points="1401.704,-497.205 1393.635,-499.914 1391.947,-508.256 1398.327,-513.89 1406.396,-511.181 
	1408.085,-502.839 "/>
<polygon fill="#662D91" points="1389.301,-586.45 1396.216,-592.197 1404.651,-589.082 1406.171,-580.219 1399.256,-574.472 
	1390.821,-577.587 "/>
</svg>
