<?xml version="1.0" encoding="utf-8"?>
<!-- Generator: Adobe Illustrator 17.0.0, SVG Export Plug-In . SVG Version: 6.00 Build 0)  -->
<!DOCTYPE svg PUBLIC "-//W3C//DTD SVG 1.1//EN" "http://www.w3.org/Graphics/SVG/1.1/DTD/svg11.dtd">
<svg version="1.1" id="Calque_1" xmlns="http://www.w3.org/2000/svg" xmlns:xlink="http://www.w3.org/1999/xlink" x="0px" y="0px"
	 width="200.348px" height="112.215px" viewBox="0 0 200.348 112.215" enable-background="new 0 0 200.348 112.215"
	 xml:space="preserve">
<polygon fill="#006838" points="50.759,15.477 52.129,9.919 57.627,8.327 61.755,12.293 60.385,17.851 54.887,19.443 "/>
<polygon fill="#8DC63F" points="180.12,15.635 178.725,3.688 189.769,8.453 "/>
<polygon opacity="0.5" fill="#009444" points="115.576,72.125 120.466,52.287 140.092,46.603 154.826,60.758 149.936,80.595 
	130.311,86.279 "/>
<polygon fill="#39B54A" points="43.956,25.758 48.738,5.936 63.513,19.988 "/>
<polygon fill="#8DC63F" points="30.52,69.56 21.87,62.718 32.12,58.648 "/>
<polygon fill="#8DC63F" points="58.9,39.007 45.676,28.548 61.346,22.325 "/>
<polygon opacity="0.8" fill="#006838" points="45.985,65.544 26.995,42.28 56.637,37.466 "/>
<circle opacity="0.4" fill="#39B54A" cx="94.439" cy="42.058" r="30.501"/>
<path fill="#8DC63F" d="M105.452,7.301c-0.127,0.048-0.253,0.094-0.371,0.142c0.118,0.477,0.241,1.002,0.475,0.298
	c-0.235,0.704-0.358,0.179-0.475-0.298c-0.206,0.084-0.388,0.176-0.511,0.298c0.12-0.598,0.21-0.817,0.286-0.829
	c-0.119-0.073-0.241-0.143-0.362-0.212c-0.591,0.054-1.186,0.056-1.895,0.056l0.493-0.493c-4.436,1.479-8.872,2.957-13.801,1.479
	c4.929,1.479,9.365,0,13.801-1.479l-0.493,0.493c0.709,0,1.304-0.001,1.895-0.056c-2.034-1.167-4.39-1.838-6.903-1.838
	c-3.188,0-6.125,1.074-8.47,2.88c-3.298,2.54-5.423,6.529-5.423,11.014c0,7.673,6.22,13.893,13.893,13.893
	c7.673,0,13.893-6.22,13.893-13.893C111.483,14,109.094,9.806,105.452,7.301z"/>
<path opacity="0.3" fill="#00242B" d="M122.114,40.508c-0.018,0.007-0.035,0.013-0.052,0.02c0.017,0.067,0.034,0.141,0.067,0.042
	c-0.033,0.099-0.05,0.025-0.067-0.042c-0.029,0.012-0.055,0.025-0.072,0.042c0.017-0.084,0.029-0.115,0.04-0.116
	c-0.017-0.01-0.034-0.02-0.051-0.03c-0.083,0.008-0.167,0.008-0.266,0.008l0.069-0.069c-0.623,0.208-1.245,0.415-1.937,0.208
	c0.692,0.208,1.315,0,1.937-0.208l-0.069,0.069c0.1,0,0.183,0,0.266-0.008c-0.286-0.164-0.616-0.258-0.969-0.258
	c-0.448,0-0.86,0.151-1.189,0.404c-0.463,0.357-0.761,0.916-0.761,1.546c0,1.077,0.873,1.95,1.95,1.95c1.077,0,1.95-0.873,1.95-1.95
	C122.96,41.448,122.625,40.859,122.114,40.508z"/>
<path fill="#8DC63F" d="M82.496,7.793c-0.044,0.016-0.087,0.032-0.128,0.049c0.04,0.164,0.083,0.345,0.164,0.103
	c-0.081,0.242-0.123,0.062-0.164-0.103c-0.071,0.029-0.134,0.061-0.176,0.103c0.041-0.206,0.072-0.281,0.098-0.285
	c-0.041-0.025-0.083-0.049-0.125-0.073c-0.203,0.019-0.408,0.019-0.652,0.019l0.17-0.17c-1.527,0.509-3.054,1.018-4.751,0.509
	c1.697,0.509,3.224,0,4.751-0.509l-0.17,0.17c0.244,0,0.449,0,0.652-0.019c-0.7-0.402-1.511-0.633-2.376-0.633
	c-1.097,0-2.108,0.37-2.915,0.991c-1.135,0.874-1.867,2.247-1.867,3.791c0,2.641,2.141,4.782,4.782,4.782
	c2.641,0,4.782-2.141,4.782-4.782C84.572,10.099,83.749,8.656,82.496,7.793z"/>
<path fill="#006838" d="M72.243,18.728c-0.057,0.021-0.114,0.042-0.167,0.064c0.053,0.215,0.108,0.451,0.214,0.134
	c-0.106,0.317-0.161,0.081-0.214-0.134c-0.093,0.038-0.175,0.079-0.23,0.134c0.054-0.269,0.094-0.367,0.129-0.373
	c-0.054-0.033-0.108-0.064-0.163-0.095c-0.266,0.024-0.534,0.025-0.853,0.025l0.222-0.222c-1.996,0.665-3.992,1.331-6.21,0.665
	c2.218,0.665,4.214,0,6.21-0.665l-0.222,0.222c0.319,0,0.587-0.001,0.853-0.025c-0.915-0.525-1.975-0.827-3.106-0.827
	c-1.434,0-2.756,0.483-3.811,1.296c-1.484,1.143-2.44,2.937-2.44,4.955c0,3.452,2.799,6.251,6.251,6.251
	c3.452,0,6.251-2.799,6.251-6.251C74.957,21.742,73.882,19.855,72.243,18.728z"/>
<path fill="#8DC63F" d="M59.966,56.884c-0.06,0.022-0.119,0.044-0.175,0.067c0.055,0.225,0.113,0.473,0.224,0.141
	c-0.111,0.332-0.169,0.085-0.224-0.141c-0.097,0.04-0.183,0.083-0.241,0.141c0.056-0.282,0.099-0.385,0.135-0.391
	c-0.056-0.035-0.114-0.067-0.171-0.1c-0.279,0.026-0.56,0.026-0.894,0.026l0.233-0.233c-2.093,0.698-4.185,1.395-6.511,0.698
	c2.325,0.698,4.418,0,6.511-0.698l-0.233,0.233c0.334,0,0.615-0.001,0.894-0.026c-0.96-0.551-2.071-0.867-3.256-0.867
	c-1.504,0-2.89,0.507-3.996,1.358c-1.556,1.198-2.558,3.08-2.558,5.196c0,3.62,2.934,6.554,6.554,6.554
	c3.62,0,6.554-2.934,6.554-6.554C62.811,60.044,61.684,58.065,59.966,56.884z"/>
<path fill="#8DC63F" d="M43.672,54.105c-0.066,0.025-0.132,0.049-0.193,0.074c0.061,0.249,0.125,0.522,0.248,0.155
	c-0.122,0.367-0.186,0.093-0.248-0.155c-0.107,0.044-0.202,0.092-0.266,0.155c0.062-0.311,0.109-0.425,0.149-0.432
	c-0.062-0.038-0.125-0.074-0.189-0.111c-0.308,0.028-0.618,0.029-0.987,0.029l0.257-0.257c-2.311,0.77-4.621,1.54-7.189,0.77
	c2.567,0.77,4.878,0,7.189-0.77l-0.257,0.257c0.369,0,0.679-0.001,0.987-0.029c-1.06-0.608-2.286-0.957-3.596-0.957
	c-1.661,0-3.191,0.559-4.412,1.5c-1.718,1.323-2.825,3.401-2.825,5.737c0,3.997,3.24,7.236,7.236,7.236
	c3.997,0,7.237-3.24,7.237-7.236C46.814,57.595,45.569,55.41,43.672,54.105z"/>
<path opacity="0.3" fill="#00A79D" d="M49.715,35.569c-0.026,0.01-0.051,0.019-0.075,0.029c0.024,0.096,0.048,0.202,0.096,0.06
	c-0.047,0.142-0.072,0.036-0.096-0.06c-0.041,0.017-0.078,0.035-0.103,0.06c0.024-0.12,0.042-0.164,0.057-0.167
	c-0.024-0.015-0.048-0.029-0.073-0.043c-0.119,0.011-0.239,0.011-0.381,0.011l0.099-0.099c-0.893,0.298-1.786,0.595-2.778,0.298
	c0.992,0.298,1.885,0,2.778-0.298l-0.099,0.099c0.143,0,0.263,0,0.381-0.011c-0.409-0.235-0.884-0.37-1.389-0.37
	c-0.642,0-1.233,0.216-1.705,0.58c-0.664,0.511-1.092,1.314-1.092,2.217c0,1.544,1.252,2.796,2.796,2.796
	c1.544,0,2.796-1.252,2.796-2.796C50.929,36.917,50.448,36.073,49.715,35.569z"/>
<polygon fill="#009444" points="166.802,76.504 168.867,68.125 177.156,65.725 183.38,71.703 181.314,80.082 173.025,82.482 "/>
<polygon opacity="0.7" fill="#8DC63F" points="112.501,28.22 117.908,6.284 139.609,0 155.901,15.651 150.494,37.586 128.793,43.87 
	"/>
<polygon opacity="0.5" fill="#006838" points="166.461,83.234 132.527,63.369 132.763,24.048 166.934,4.593 200.868,24.458 
	200.631,63.779 "/>
<polygon fill="#006838" points="123.849,20.935 115.78,18.226 114.091,9.884 120.472,4.25 128.54,6.959 130.229,15.302 "/>
<polygon fill="#009444" points="186.796,75.701 188.167,70.143 193.665,68.55 197.793,72.516 196.423,78.074 190.925,79.666 "/>
<polygon opacity="0.2" fill="#8DC63F" points="137.373,66.235 140.988,51.572 155.494,47.371 166.385,57.833 162.77,72.496 
	148.264,76.697 "/>
<polygon opacity="0.8" fill="#39B54A" points="81.112,39.812 66.97,28.627 83.727,21.973 "/>
<polygon fill="#009444" points="59.928,54.698 63.463,40.047 74.384,50.433 "/>
<polygon opacity="0.7" fill="#8DC63F" points="80.326,73.12 71.566,30.948 113.674,44.197 "/>
<polygon fill="#009444" points="67.024,68.838 60.63,63.781 68.206,60.773 "/>
<polygon opacity="0.8" fill="#39B54A" points="94.699,39.148 84.925,31.417 96.507,26.817 "/>
<polygon fill="#006838" points="87.399,70.779 73.362,53.584 95.272,50.025 "/>
<circle opacity="0.9" fill="#39B54A" cx="125.446" cy="52.882" r="22.545"/>
<path fill="#8DC63F" d="M112.587,56.34c-0.094,0.035-0.187,0.069-0.275,0.105c0.087,0.353,0.178,0.741,0.351,0.22
	c-0.173,0.52-0.264,0.133-0.351-0.22c-0.152,0.062-0.287,0.13-0.377,0.22c0.088-0.442,0.155-0.604,0.211-0.613
	c-0.088-0.054-0.178-0.105-0.268-0.157c-0.437,0.04-0.877,0.041-1.401,0.041l0.364-0.364c-3.279,1.093-6.558,2.186-10.201,1.093
	c3.643,1.093,6.922,0,10.201-1.093l-0.364,0.364c0.524,0,0.964-0.001,1.401-0.041c-1.503-0.863-3.244-1.359-5.102-1.359
	c-2.356,0-4.527,0.794-6.26,2.128c-2.438,1.878-4.009,4.826-4.009,8.141c0,5.671,4.598,10.269,10.269,10.269
	c5.671,0,10.269-4.598,10.269-10.269C117.045,61.291,115.279,58.191,112.587,56.34z"/>
<path fill="#8DC63F" d="M145.92,29.949c-0.05,0.019-0.099,0.037-0.146,0.056c0.046,0.188,0.094,0.394,0.187,0.117
	c-0.092,0.277-0.14,0.07-0.187-0.117c-0.081,0.033-0.153,0.069-0.201,0.117c0.047-0.235,0.083-0.321,0.112-0.326
	c-0.047-0.029-0.095-0.056-0.142-0.083c-0.232,0.021-0.466,0.022-0.745,0.022l0.194-0.194c-1.743,0.581-3.486,1.162-5.422,0.581
	c1.937,0.581,3.679,0,5.422-0.581l-0.194,0.194c0.279,0,0.512-0.001,0.745-0.022c-0.799-0.459-1.725-0.722-2.712-0.722
	c-1.253,0-2.406,0.422-3.328,1.131c-1.296,0.998-2.131,2.565-2.131,4.327c0,3.014,2.444,5.458,5.458,5.458
	c3.014,0,5.458-2.444,5.458-5.458C148.29,32.581,147.351,30.933,145.92,29.949z"/>
<path fill="#009444" d="M109.033,80.282c-0.013,0.005-0.026,0.01-0.039,0.015c0.012,0.05,0.025,0.104,0.049,0.031
	c-0.024,0.073-0.037,0.019-0.049-0.031c-0.021,0.009-0.04,0.018-0.053,0.031c0.012-0.062,0.022-0.085,0.03-0.086
	c-0.012-0.008-0.025-0.015-0.038-0.022c-0.061,0.006-0.123,0.006-0.197,0.006l0.051-0.051c-0.46,0.153-0.921,0.307-1.432,0.153
	c0.511,0.153,0.972,0,1.432-0.153l-0.051,0.051c0.074,0,0.135,0,0.197-0.006c-0.211-0.121-0.455-0.191-0.716-0.191
	c-0.331,0-0.636,0.111-0.879,0.299c-0.342,0.264-0.563,0.677-0.563,1.143c0,0.796,0.645,1.442,1.442,1.442
	c0.796,0,1.442-0.645,1.442-1.442C109.659,80.978,109.411,80.542,109.033,80.282z"/>
<path fill="#8DC63F" d="M115.14,26.077c-0.032,0.012-0.064,0.024-0.095,0.036c0.03,0.121,0.061,0.255,0.121,0.076
	c-0.06,0.179-0.091,0.046-0.121-0.076c-0.052,0.021-0.099,0.045-0.13,0.076c0.03-0.152,0.053-0.208,0.073-0.211
	c-0.03-0.019-0.061-0.036-0.092-0.054c-0.15,0.014-0.302,0.014-0.482,0.014l0.125-0.125c-1.129,0.376-2.257,0.752-3.511,0.376
	c1.254,0.376,2.383,0,3.511-0.376l-0.125,0.125c0.18,0,0.332,0,0.482-0.014c-0.518-0.297-1.117-0.468-1.756-0.468
	c-0.811,0-1.558,0.273-2.155,0.733c-0.839,0.646-1.38,1.661-1.38,2.802c0,1.952,1.583,3.535,3.535,3.535
	c1.952,0,3.535-1.583,3.535-3.535C116.674,27.781,116.066,26.714,115.14,26.077z"/>
<path fill="#006838" d="M107.562,34.159c-0.042,0.016-0.084,0.031-0.124,0.047c0.039,0.159,0.08,0.333,0.158,0.099
	c-0.078,0.234-0.119,0.06-0.158-0.099c-0.068,0.028-0.129,0.058-0.17,0.099c0.04-0.199,0.07-0.272,0.095-0.276
	c-0.04-0.024-0.08-0.047-0.12-0.071c-0.197,0.018-0.395,0.019-0.63,0.019l0.164-0.164c-1.475,0.492-2.951,0.984-4.59,0.492
	c1.639,0.492,3.114,0,4.59-0.492l-0.164,0.164c0.236,0,0.434,0,0.63-0.019c-0.676-0.388-1.46-0.611-2.296-0.611
	c-1.06,0-2.037,0.357-2.817,0.958c-1.097,0.845-1.804,2.171-1.804,3.663c0,2.552,2.069,4.62,4.62,4.62c2.552,0,4.62-2.069,4.62-4.62
	C109.568,36.387,108.773,34.992,107.562,34.159z"/>
<path fill="#009444" d="M98.013,70.812c-0.044,0.017-0.088,0.033-0.13,0.05c0.041,0.166,0.084,0.349,0.166,0.104
	c-0.082,0.245-0.125,0.063-0.166-0.104c-0.072,0.029-0.135,0.061-0.178,0.104c0.042-0.208,0.073-0.285,0.1-0.289
	c-0.042-0.026-0.084-0.05-0.126-0.074c-0.206,0.019-0.414,0.019-0.661,0.019l0.172-0.172c-1.547,0.516-3.094,1.031-4.812,0.516
	c1.719,0.516,3.265,0,4.812-0.516l-0.172,0.172c0.247,0,0.455-0.001,0.661-0.019c-0.709-0.407-1.531-0.641-2.407-0.641
	c-1.112,0-2.136,0.374-2.953,1.004c-1.15,0.886-1.891,2.276-1.891,3.84c0,2.675,2.169,4.844,4.844,4.844
	c2.675,0,4.844-2.169,4.844-4.844C100.116,73.148,99.283,71.685,98.013,70.812z"/>
<path fill="#8DC63F" d="M126.167,70.396c-0.049,0.018-0.097,0.036-0.143,0.055c0.045,0.184,0.093,0.386,0.183,0.115
	c-0.09,0.271-0.138,0.069-0.183-0.115c-0.079,0.032-0.15,0.068-0.197,0.115c0.046-0.23,0.081-0.314,0.11-0.319
	c-0.046-0.028-0.093-0.055-0.139-0.082c-0.228,0.021-0.457,0.021-0.73,0.021l0.19-0.19c-1.708,0.569-3.416,1.139-5.313,0.569
	c1.898,0.569,3.606,0,5.313-0.569l-0.19,0.19c0.273,0,0.502-0.001,0.73-0.021c-0.783-0.449-1.69-0.708-2.658-0.708
	c-1.227,0-2.358,0.413-3.261,1.109c-1.27,0.978-2.088,2.514-2.088,4.24c0,2.954,2.395,5.349,5.349,5.349
	c2.954,0,5.349-2.395,5.349-5.349C128.49,72.975,127.57,71.36,126.167,70.396z"/>
<path fill="#009444" d="M87.91,36.607c-0.019,0.007-0.038,0.014-0.055,0.021c0.017,0.071,0.036,0.149,0.071,0.044
	c-0.035,0.105-0.053,0.027-0.071-0.044c-0.031,0.013-0.058,0.026-0.076,0.044c0.018-0.089,0.031-0.122,0.042-0.123
	c-0.018-0.011-0.036-0.021-0.054-0.032c-0.088,0.008-0.176,0.008-0.282,0.008l0.073-0.073c-0.66,0.22-1.32,0.44-2.053,0.22
	c0.733,0.22,1.393,0,2.053-0.22l-0.073,0.073c0.105,0,0.194,0,0.282-0.008c-0.303-0.174-0.653-0.273-1.027-0.273
	c-0.474,0-0.911,0.16-1.26,0.428c-0.491,0.378-0.807,0.971-0.807,1.638c0,1.142,0.925,2.067,2.067,2.067
	c1.142,0,2.067-0.925,2.067-2.067C88.807,37.603,88.452,36.979,87.91,36.607z"/>
<polygon fill="#009444" points="175.252,69.472 176.779,63.279 182.905,61.505 187.505,65.924 185.979,72.117 179.852,73.891 "/>
<polygon fill="#006838" points="174.916,73.129 149.834,58.446 150.009,29.383 175.266,15.003 200.348,29.686 200.173,58.749 "/>
<polygon fill="#8DC63F" points="143.488,26.921 137.524,24.918 136.276,18.752 140.992,14.588 146.956,16.591 148.204,22.757 "/>
<polygon fill="#006838" points="120.357,48.457 121.37,44.349 125.434,43.172 128.485,46.103 127.472,50.211 123.408,51.388 "/>
<polygon fill="#8DC63F" points="190.015,68.878 191.028,64.77 195.092,63.593 198.144,66.524 197.131,70.632 193.067,71.809 "/>
<polygon fill="#006838" points="47.388,37.716 55.03,27.472 60.08,39.212 "/>
<polygon fill="#8DC63F" points="34.351,25.19 44.803,27.401 37.662,35.347 "/>
<polygon opacity="0.7" fill="#39B54A" points="23.772,37.826 53.477,30.775 44.934,60.875 "/>
<polygon fill="#8DC63F" points="26.54,28.315 29.995,23.684 32.278,28.992 "/>
<polygon fill="#009444" points="48.131,47.33 53.413,40.249 56.904,48.364 "/>
<polygon fill="#8DC63F" points="20.613,42.931 32.516,32.641 35.476,48.094 "/>
<path fill="#009444" d="M38.784,48.153c-0.013-0.031-0.025-0.062-0.038-0.091c-0.117,0.032-0.246,0.066-0.07,0.119
	c-0.176-0.053-0.047-0.087,0.07-0.119c-0.022-0.05-0.046-0.095-0.077-0.124c0.149,0.025,0.203,0.046,0.207,0.065
	c0.017-0.03,0.034-0.06,0.05-0.091c-0.018-0.146-0.022-0.293-0.027-0.468l0.125,0.118c-0.396-1.086-0.793-2.171-0.462-3.399
	c-0.331,1.228,0.065,2.314,0.462,3.399l-0.125-0.118c0.005,0.175,0.009,0.322,0.027,0.468c0.274-0.511,0.423-1.097,0.406-1.718
	c-0.022-0.788-0.308-1.506-0.771-2.072c-0.651-0.797-1.651-1.294-2.759-1.263c-1.896,0.054-3.389,1.634-3.335,3.529
	c0.054,1.896,1.634,3.389,3.529,3.335C37.172,49.689,38.191,49.07,38.784,48.153z"/>
<path fill="#009444" d="M49.795,42.468c-0.005-0.013-0.011-0.026-0.016-0.039c-0.05,0.014-0.105,0.028-0.03,0.051
	c-0.075-0.023-0.02-0.037,0.03-0.051c-0.009-0.021-0.02-0.04-0.033-0.053c0.063,0.011,0.087,0.02,0.088,0.028
	c0.007-0.013,0.014-0.026,0.021-0.039c-0.007-0.062-0.009-0.125-0.012-0.2l0.053,0.05c-0.169-0.463-0.338-0.926-0.197-1.45
	c-0.141,0.524,0.028,0.987,0.197,1.45l-0.053-0.05c0.002,0.075,0.004,0.137,0.012,0.2c0.117-0.218,0.181-0.468,0.173-0.733
	c-0.009-0.336-0.131-0.642-0.329-0.884c-0.278-0.34-0.704-0.552-1.177-0.539c-0.809,0.023-1.446,0.697-1.423,1.506
	c0.023,0.809,0.697,1.446,1.506,1.423C49.107,43.124,49.542,42.86,49.795,42.468z"/>
<path opacity="0.6" fill="#39B54A" d="M15.715,38.935c-0.092,0.034-0.183,0.068-0.268,0.103c0.085,0.345,0.174,0.724,0.343,0.215
	c-0.17,0.509-0.258,0.13-0.343-0.215c-0.149,0.061-0.281,0.127-0.369,0.215c0.086-0.432,0.152-0.59,0.206-0.599
	c-0.086-0.053-0.174-0.103-0.262-0.153c-0.427,0.039-0.857,0.04-1.369,0.04l0.356-0.356c-3.205,1.068-6.409,2.136-9.97,1.068
	c3.561,1.068,6.765,0,9.97-1.068l-0.356,0.356c0.512,0,0.942-0.001,1.369-0.04c-1.469-0.843-3.171-1.328-4.987-1.328
	c-2.303,0-4.425,0.776-6.119,2.08C1.535,41.088,0,43.969,0,47.209c0,5.543,4.493,10.036,10.036,10.036
	c5.543,0,10.036-4.493,10.036-10.036C20.073,43.774,18.346,40.744,15.715,38.935z"/>
<path opacity="0.8" fill="#8DC63F" d="M16.966,50.534c-0.048,0.018-0.095,0.035-0.14,0.054c0.044,0.18,0.091,0.377,0.179,0.112
	c-0.088,0.265-0.135,0.067-0.179-0.112c-0.077,0.032-0.146,0.066-0.192,0.112c0.045-0.225,0.079-0.307,0.107-0.312
	c-0.045-0.028-0.091-0.054-0.136-0.08c-0.222,0.02-0.446,0.021-0.713,0.021l0.185-0.185c-1.669,0.556-3.338,1.113-5.193,0.556
	c1.855,0.556,3.524,0,5.193-0.556l-0.185,0.185c0.267,0,0.491-0.001,0.713-0.021c-0.765-0.439-1.652-0.692-2.597-0.692
	c-1.2,0-2.305,0.404-3.187,1.083c-1.241,0.956-2.041,2.457-2.041,4.144c0,2.887,2.34,5.228,5.228,5.228
	c2.887,0,5.228-2.34,5.228-5.228C19.236,53.055,18.337,51.476,16.966,50.534z"/>
<polygon fill="#006838" points="10.036,15.092 11.026,11.077 14.998,9.927 17.98,12.791 16.991,16.807 13.019,17.957 "/>
<polygon opacity="0.7" fill="#8DC63F" points="168.753,114.697 161.019,77.466 198.193,89.163 "/>
<polygon fill="#009444" points="182.541,93.604 186.076,78.953 196.997,89.34 "/>
<polygon opacity="0.6" fill="#006838" points="156.003,91.76 167.905,81.471 170.865,96.923 "/>
<polygon fill="#006838" points="193.983,109.813 185.915,107.104 184.226,98.762 190.606,93.128 198.675,95.837 200.364,104.18 "/>
<polygon opacity="0.6" fill="#8DC63F" points="181.581,20.569 188.496,14.821 196.931,17.937 198.45,26.799 191.535,32.546 
	183.1,29.431 "/>
<polygon opacity="0.5" fill="#009444" points="144.98,37.191 148.977,20.978 165.016,16.333 177.059,27.901 173.062,44.114 
	157.022,48.759 "/>
</svg>
