<?xml version="1.0" encoding="utf-8"?>
<!-- Generator: Adobe Illustrator 17.0.0, SVG Export Plug-In . SVG Version: 6.00 Build 0)  -->
<!DOCTYPE svg PUBLIC "-//W3C//DTD SVG 1.1//EN" "http://www.w3.org/Graphics/SVG/1.1/DTD/svg11.dtd">
<svg version="1.1" id="headerPage" xmlns="http://www.w3.org/2000/svg" xmlns:xlink="http://www.w3.org/1999/xlink" x="0px" y="0px"
	 width="280.802px" height="132.066px" viewBox="0 0 280.802 132.066" enable-background="new 0 0 280.802 132.066"
	 xml:space="preserve">
<path opacity="0.3" fill="#27AAE1" d="M223.328,9.333c-0.213,0.08-0.424,0.158-0.624,0.239c0.197,0.801,0.404,1.682,0.798,0.5
	c-0.394,1.182-0.6,0.301-0.798-0.5c-0.345,0.141-0.652,0.295-0.857,0.5c0.201-1.004,0.353-1.371,0.48-1.392
	c-0.2-0.123-0.404-0.239-0.608-0.356c-0.992,0.091-1.991,0.094-3.181,0.094l0.827-0.827c-7.447,2.482-14.894,4.965-23.168,2.482
	c8.274,2.482,15.721,0,23.168-2.482l-0.827,0.827c1.19,0,2.189-0.002,3.181-0.094c-3.415-1.96-7.369-3.086-11.588-3.086
	c-5.352,0-10.283,1.803-14.218,4.834c-5.537,4.264-9.104,10.96-9.104,18.488c0,12.881,10.442,23.322,23.322,23.322
	c12.881,0,23.322-10.442,23.322-23.322C233.453,20.579,229.442,13.537,223.328,9.333z"/>
<circle opacity="0.3" fill="#00242B" cx="254.401" cy="78.965" r="25.18"/>
<polygon fill="#00242B" points="239.344,17.865 237.786,4.522 250.121,9.844 "/>
<polygon class="test" opacity="0.3" fill="#27AAE1" points="166.942,84.518 172.404,62.361 194.324,56.013 210.781,71.822 205.318,93.979 
	183.399,100.326 "/>
<polygon opacity="0.3" fill="#00A79D" points="71.944,81.653 62.282,74.012 73.73,69.466 "/>
<polygon opacity="0.3" fill="#00242B" points="89.216,77.168 68.006,51.184 101.114,45.808 "/>
<circle opacity="0.3" fill="#006160" cx="143.334" cy="50.937" r="34.067"/>
<path class="fadeOut" opacity="0.3" fill="#27AAE1" d="M160.647,9.986c-0.142,0.053-0.282,0.105-0.415,0.159c0.131,0.533,0.269,1.119,0.531,0.333
	c-0.262,0.786-0.399,0.2-0.531-0.333c-0.23,0.094-0.434,0.196-0.57,0.333c0.134-0.668,0.235-0.912,0.319-0.926
	c-0.133-0.082-0.269-0.159-0.404-0.237c-0.66,0.061-1.325,0.062-2.117,0.062l0.551-0.551c-4.955,1.652-9.909,3.303-15.415,1.652
	c5.505,1.652,10.46,0,15.415-1.652l-0.551,0.551c0.792,0,1.457-0.002,2.117-0.062c-2.272-1.304-4.903-2.053-7.71-2.053
	c-3.561,0-6.841,1.199-9.46,3.216c-3.684,2.837-6.057,7.292-6.057,12.301c0,8.57,6.947,15.517,15.517,15.517
	c8.57,0,15.517-6.947,15.517-15.517C167.384,17.468,164.715,12.783,160.647,9.986z"/>
<path opacity="0.3" fill="#00242B" d="M179.857,29.687c-0.075,0.028-0.15,0.056-0.221,0.084c0.07,0.283,0.143,0.595,0.282,0.177
	c-0.139,0.418-0.212,0.106-0.282-0.177c-0.122,0.05-0.231,0.104-0.303,0.177c0.071-0.355,0.125-0.485,0.17-0.492
	c-0.071-0.043-0.143-0.085-0.215-0.126c-0.351,0.032-0.704,0.033-1.125,0.033l0.293-0.293c-2.634,0.878-5.267,1.756-8.193,0.878
	c2.926,0.878,5.56,0,8.193-0.878l-0.293,0.293c0.421,0,0.774-0.001,1.125-0.033c-1.208-0.693-2.606-1.091-4.098-1.091
	c-1.893,0-3.636,0.637-5.028,1.709c-1.958,1.508-3.22,3.876-3.22,6.538c0,4.555,3.693,8.248,8.248,8.248
	c4.555,0,8.248-3.693,8.248-8.248C183.438,33.664,182.019,31.174,179.857,29.687z"/>
<path opacity="0.3" fill="#00242B" d="M174.244,49.205c-0.02,0.007-0.04,0.015-0.058,0.022c0.018,0.075,0.038,0.157,0.074,0.047
	c-0.037,0.11-0.056,0.028-0.074-0.047c-0.032,0.013-0.061,0.028-0.08,0.047c0.019-0.094,0.033-0.128,0.045-0.13
	c-0.019-0.011-0.038-0.022-0.057-0.033c-0.093,0.009-0.186,0.009-0.297,0.009l0.077-0.077c-0.696,0.232-1.391,0.464-2.164,0.232
	c0.773,0.232,1.468,0,2.164-0.232l-0.077,0.077c0.111,0,0.204,0,0.297-0.009c-0.319-0.183-0.688-0.288-1.082-0.288
	c-0.5,0-0.96,0.168-1.328,0.451c-0.517,0.398-0.85,1.024-0.85,1.727c0,1.203,0.975,2.178,2.178,2.178
	c1.203,0,2.178-0.975,2.178-2.178C175.19,50.255,174.815,49.598,174.244,49.205z"/>
<path opacity="0.3" fill="#00A79D" d="M129.995,12.666c-0.049,0.018-0.097,0.036-0.143,0.055c0.045,0.184,0.092,0.385,0.183,0.115
	c-0.09,0.271-0.137,0.069-0.183-0.115c-0.079,0.032-0.149,0.068-0.196,0.115c0.046-0.23,0.081-0.314,0.11-0.319
	c-0.046-0.028-0.093-0.055-0.139-0.082c-0.227,0.021-0.456,0.021-0.729,0.021l0.189-0.189c-1.705,0.568-3.411,1.137-5.306,0.568
	c1.895,0.568,3.6,0,5.306-0.568l-0.189,0.189c0.273,0,0.501-0.001,0.729-0.021c-0.782-0.449-1.688-0.707-2.654-0.707
	c-1.226,0-2.355,0.413-3.256,1.107c-1.268,0.977-2.085,2.51-2.085,4.234c0,2.95,2.391,5.341,5.341,5.341
	c2.95,0,5.341-2.391,5.341-5.341C132.314,15.242,131.395,13.629,129.995,12.666z"/>
<path opacity="0.3" fill="#00242B" d="M118.544,24.879c-0.064,0.024-0.127,0.047-0.187,0.072c0.059,0.24,0.121,0.504,0.239,0.15
	c-0.118,0.354-0.18,0.09-0.239-0.15c-0.103,0.042-0.195,0.088-0.257,0.15c0.06-0.3,0.106-0.41,0.144-0.417
	c-0.06-0.037-0.121-0.072-0.182-0.107c-0.297,0.027-0.596,0.028-0.952,0.028l0.248-0.248c-2.229,0.743-4.458,1.486-6.935,0.743
	c2.477,0.743,4.706,0,6.935-0.743l-0.248,0.248c0.356,0,0.655-0.001,0.952-0.028c-1.022-0.587-2.206-0.924-3.469-0.924
	c-1.602,0-3.078,0.54-4.256,1.447c-1.657,1.276-2.725,3.281-2.725,5.534c0,3.856,3.126,6.982,6.982,6.982
	c3.856,0,6.982-3.126,6.982-6.982C121.575,28.246,120.374,26.138,118.544,24.879z"/>
<path fill="#006160" d="M110.871,65.069c-0.11,0.041-0.22,0.082-0.323,0.124c0.102,0.415,0.209,0.87,0.413,0.259
	c-0.204,0.612-0.311,0.156-0.413-0.259c-0.179,0.073-0.337,0.153-0.444,0.259c0.104-0.519,0.182-0.71,0.248-0.72
	c-0.103-0.064-0.209-0.124-0.315-0.184c-0.513,0.047-1.031,0.048-1.646,0.048l0.428-0.428c-3.854,1.285-7.708,2.569-11.99,1.285
	c4.282,1.285,8.136,0,11.99-1.285l-0.428,0.428c0.616,0,1.133-0.001,1.646-0.048c-1.767-1.014-3.813-1.597-5.997-1.597
	c-2.77,0-5.321,0.933-7.358,2.502c-2.865,2.207-4.711,5.672-4.711,9.568c0,6.666,5.404,12.069,12.069,12.069
	c6.666,0,12.069-5.404,12.069-12.069C116.111,70.889,114.035,67.245,110.871,65.069z"/>
<path opacity="0.3" fill="#00A79D" d="M86.633,64.392c-0.074,0.028-0.147,0.055-0.216,0.083c0.068,0.278,0.14,0.583,0.276,0.173
	c-0.137,0.41-0.208,0.104-0.276-0.173c-0.12,0.049-0.226,0.102-0.297,0.173c0.07-0.348,0.122-0.475,0.166-0.482
	c-0.069-0.043-0.14-0.083-0.211-0.123c-0.344,0.032-0.69,0.032-1.103,0.032l0.287-0.287c-2.581,0.86-5.162,1.721-8.029,0.86
	c2.868,0.86,5.448,0,8.029-0.86l-0.287,0.287c0.412,0,0.759-0.001,1.103-0.032c-1.183-0.679-2.554-1.069-4.016-1.069
	c-1.855,0-3.563,0.625-4.927,1.675c-1.919,1.478-3.155,3.798-3.155,6.407c0,4.464,3.619,8.082,8.082,8.082
	c4.464,0,8.082-3.619,8.082-8.082C90.142,68.29,88.752,65.849,86.633,64.392z"/>
<path opacity="0.3" fill="#00A79D" d="M93.382,43.689c-0.028,0.011-0.057,0.021-0.084,0.032c0.026,0.107,0.054,0.225,0.107,0.067
	c-0.053,0.158-0.08,0.04-0.107-0.067c-0.046,0.019-0.087,0.04-0.115,0.067c0.027-0.134,0.047-0.184,0.064-0.186
	c-0.027-0.016-0.054-0.032-0.081-0.048c-0.133,0.012-0.267,0.013-0.426,0.013l0.111-0.111c-0.997,0.332-1.995,0.665-3.103,0.332
	c1.108,0.332,2.105,0,3.103-0.332l-0.111,0.111c0.159,0,0.293,0,0.426-0.013c-0.457-0.262-0.987-0.413-1.552-0.413
	c-0.717,0-1.377,0.241-1.904,0.647c-0.741,0.571-1.219,1.468-1.219,2.476c0,1.725,1.398,3.123,3.123,3.123
	c1.725,0,3.123-1.398,3.123-3.123C94.738,45.195,94.201,44.252,93.382,43.689z"/>
<polygon opacity="0.3" fill="#00A79D" points="224.179,89.409 226.486,80.051 235.744,77.37 242.695,84.047 240.388,93.405 
	231.13,96.086 "/>
<polygon class="rotates" opacity="0.7" fill="#00242B" points="226.217,92.458 188.317,70.271 188.581,26.354 226.746,4.624 264.647,26.812 
	264.383,70.729 "/>
<polygon opacity="0.3" fill="#00242B" points="176.182,25.111 167.17,22.085 165.284,12.768 172.41,6.476 181.422,9.501 
	183.308,18.819 "/>
<polygon opacity="0.3" fill="#00242B" points="137.878,46.485 139.409,40.277 145.55,38.499 150.161,42.928 148.63,49.135 
	142.489,50.914 "/>
<polygon class="fadeOut" opacity="0.8" fill="#27AAE1" points="191.288,77.94 195.325,61.563 211.526,56.871 223.69,68.556 219.653,84.933 
	203.452,89.625 "/>
<polygon fill="#00242B" points="128.449,48.428 112.654,35.936 131.37,28.503 "/>
<polygon opacity="0.8" fill="#27AAE1" points="108.14,68.405 112.088,52.041 124.286,63.642 "/>
<polygon fill="#00A79D" points="127.572,85.63 117.787,38.528 164.818,53.325 "/>
<polygon fill="#00A79D" points="112.714,80.847 105.573,75.199 114.035,71.839 "/>
<polygon opacity="0.8" fill="#27AAE1" points="143.625,47.686 132.708,39.052 145.644,33.914 "/>
<polygon fill="#00242B" points="135.471,84.132 119.794,64.926 144.265,60.952 "/>
<circle fill="#006160" cx="177.966" cy="63.025" r="25.18"/>
<path class="rotates" opacity="0.8" fill="#27AAE1" d="M189.111,34.408c-0.105,0.039-0.209,0.077-0.307,0.117c0.097,0.394,0.199,0.827,0.392,0.246
	c-0.194,0.581-0.295,0.148-0.392-0.246c-0.17,0.069-0.321,0.145-0.422,0.246c0.099-0.494,0.173-0.674,0.236-0.685
	c-0.098-0.06-0.199-0.118-0.299-0.175c-0.488,0.045-0.979,0.046-1.565,0.046l0.407-0.407c-3.662,1.221-7.324,2.441-11.394,1.221
	c4.069,1.221,7.731,0,11.394-1.221l-0.407,0.407c0.585,0,1.077-0.001,1.565-0.046c-1.679-0.964-3.624-1.518-5.699-1.518
	c-2.632,0-5.057,0.887-6.992,2.377c-2.723,2.097-4.477,5.39-4.477,9.092c0,6.334,5.135,11.469,11.469,11.469
	c6.334,0,11.469-5.135,11.469-11.469C194.09,39.938,192.118,36.475,189.111,34.408z"/>
<path fill="#00242B" d="M200.834,37.412c-0.056,0.021-0.111,0.041-0.163,0.062c0.052,0.209,0.106,0.44,0.209,0.131
	c-0.103,0.309-0.157,0.079-0.209-0.131c-0.09,0.037-0.17,0.077-0.224,0.131c0.052-0.262,0.092-0.358,0.125-0.364
	c-0.052-0.032-0.106-0.063-0.159-0.093c-0.259,0.024-0.521,0.024-0.832,0.024l0.216-0.216c-1.947,0.649-3.893,1.298-6.056,0.649
	c2.163,0.649,4.109,0,6.056-0.649l-0.216,0.216c0.311,0,0.572-0.001,0.832-0.024c-0.893-0.512-1.926-0.807-3.029-0.807
	c-1.399,0-2.688,0.471-3.717,1.264c-1.447,1.115-2.38,2.865-2.38,4.833c0,3.367,2.729,6.096,6.096,6.096s6.096-2.729,6.096-6.096
	C203.48,40.352,202.432,38.511,200.834,37.412z"/>
<path fill="#00242B" d="M196.685,51.839c-0.015,0.006-0.029,0.011-0.043,0.016c0.014,0.055,0.028,0.116,0.055,0.035
	c-0.027,0.082-0.041,0.021-0.055-0.035c-0.024,0.01-0.045,0.02-0.059,0.035c0.014-0.069,0.024-0.095,0.033-0.096
	c-0.014-0.008-0.028-0.017-0.042-0.025c-0.068,0.006-0.137,0.006-0.22,0.006l0.057-0.057c-0.514,0.171-1.028,0.343-1.599,0.171
	c0.571,0.171,1.085,0,1.599-0.171l-0.057,0.057c0.082,0,0.151,0,0.22-0.006c-0.236-0.135-0.509-0.213-0.8-0.213
	c-0.369,0-0.71,0.124-0.982,0.334c-0.382,0.294-0.628,0.757-0.628,1.276c0,0.889,0.721,1.61,1.61,1.61s1.61-0.721,1.61-1.61
	C197.384,52.615,197.107,52.129,196.685,51.839z"/>
<path fill="#00A79D" d="M166.455,33.087c-0.036,0.014-0.072,0.027-0.106,0.04c0.033,0.136,0.068,0.285,0.135,0.085
	c-0.067,0.2-0.102,0.051-0.135-0.085c-0.058,0.024-0.11,0.05-0.145,0.085c0.034-0.17,0.06-0.232,0.081-0.236
	c-0.034-0.021-0.068-0.041-0.103-0.06c-0.168,0.015-0.337,0.016-0.539,0.016l0.14-0.14c-1.261,0.42-2.521,0.84-3.922,0.42
	c1.401,0.42,2.661,0,3.922-0.42l-0.14,0.14c0.201,0,0.371,0,0.539-0.016c-0.578-0.332-1.247-0.522-1.962-0.522
	c-0.906,0-1.741,0.305-2.407,0.818c-0.937,0.722-1.541,1.855-1.541,3.13c0,2.18,1.768,3.948,3.948,3.948
	c2.18,0,3.948-1.767,3.948-3.948C168.169,34.991,167.49,33.799,166.455,33.087z"/>
<path fill="#00242B" d="M157.991,42.114c-0.047,0.018-0.094,0.035-0.138,0.053c0.044,0.177,0.089,0.372,0.177,0.111
	c-0.087,0.261-0.133,0.067-0.177-0.111c-0.076,0.031-0.144,0.065-0.19,0.111c0.044-0.222,0.078-0.303,0.106-0.308
	c-0.044-0.027-0.089-0.053-0.135-0.079c-0.219,0.02-0.441,0.021-0.704,0.021l0.183-0.183c-1.648,0.549-3.295,1.098-5.126,0.549
	c1.831,0.549,3.479,0,5.126-0.549l-0.183,0.183c0.263,0,0.484-0.001,0.704-0.021c-0.756-0.434-1.63-0.683-2.564-0.683
	c-1.184,0-2.275,0.399-3.146,1.07c-1.225,0.943-2.014,2.425-2.014,4.091c0,2.85,2.31,5.16,5.16,5.16c2.85,0,5.16-2.31,5.16-5.16
	C160.231,44.602,159.344,43.044,157.991,42.114z"/>
<path fill="#27AAE1" d="M144.505,62.444c-0.049,0.019-0.098,0.037-0.145,0.055c0.046,0.186,0.094,0.39,0.185,0.116
	c-0.091,0.274-0.139,0.07-0.185-0.116c-0.08,0.033-0.151,0.069-0.199,0.116c0.047-0.233,0.082-0.318,0.111-0.323
	c-0.046-0.029-0.094-0.056-0.141-0.083c-0.23,0.021-0.462,0.022-0.738,0.022l0.192-0.192c-1.728,0.576-3.455,1.152-5.375,0.576
	c1.92,0.576,3.647,0,5.375-0.576l-0.192,0.192c0.276,0,0.508-0.001,0.738-0.022c-0.792-0.455-1.709-0.716-2.688-0.716
	c-1.242,0-2.385,0.418-3.299,1.121c-1.284,0.989-2.112,2.543-2.112,4.289c0,2.988,2.422,5.411,5.411,5.411s5.411-2.422,5.411-5.411
	C146.854,65.053,145.923,63.42,144.505,62.444z"/>
<path fill="#00A79D" d="M178.772,82.587c-0.055,0.02-0.109,0.04-0.16,0.061c0.051,0.205,0.103,0.431,0.204,0.128
	c-0.101,0.303-0.154,0.077-0.204-0.128c-0.088,0.036-0.167,0.076-0.22,0.128c0.051-0.257,0.09-0.351,0.123-0.357
	c-0.051-0.031-0.104-0.061-0.156-0.091c-0.254,0.023-0.51,0.024-0.815,0.024l0.212-0.212c-1.908,0.636-3.815,1.272-5.935,0.636
	c2.12,0.636,4.027,0,5.935-0.636l-0.212,0.212c0.305,0,0.561-0.001,0.815-0.024c-0.875-0.502-1.888-0.79-2.968-0.79
	c-1.371,0-2.634,0.462-3.642,1.238c-1.418,1.092-2.332,2.807-2.332,4.736c0,3.299,2.675,5.974,5.974,5.974
	c3.299,0,5.974-2.675,5.974-5.974C181.365,85.468,180.338,83.664,178.772,82.587z"/>
<path fill="#00A79D" d="M136.042,44.848c-0.021,0.008-0.042,0.016-0.062,0.024c0.02,0.079,0.04,0.166,0.079,0.05
	c-0.039,0.117-0.059,0.03-0.079-0.05c-0.034,0.014-0.065,0.029-0.085,0.05c0.02-0.099,0.035-0.136,0.047-0.138
	c-0.02-0.012-0.04-0.024-0.06-0.035c-0.098,0.009-0.197,0.009-0.315,0.009l0.082-0.082c-0.737,0.246-1.474,0.491-2.293,0.246
	c0.819,0.246,1.556,0,2.293-0.246l-0.082,0.082c0.118,0,0.217,0,0.315-0.009c-0.338-0.194-0.729-0.305-1.147-0.305
	c-0.53,0-1.018,0.178-1.407,0.478c-0.548,0.422-0.901,1.085-0.901,1.83c0,1.275,1.034,2.308,2.308,2.308
	c1.275,0,2.309-1.034,2.309-2.308C137.044,45.961,136.647,45.264,136.042,44.848z"/>
<polygon fill="#00A79D" points="233.594,75.971 235.299,69.054 242.142,67.072 247.28,72.008 245.575,78.925 238.732,80.906 "/>
<polygon class="test" fill="#00A79D" points="184.566,45.228 189.03,27.119 206.945,21.931 220.395,34.852 215.931,52.96 198.016,58.148 "/>
<polygon fill="#00242B" points="252.397,79.687 224.383,63.287 224.579,30.826 252.788,14.765 280.802,31.165 280.607,63.626 "/>
<polygon fill="#00242B" points="198.117,34.03 191.456,31.793 190.062,24.906 195.329,20.256 201.99,22.492 203.384,29.379 "/>
<polygon class="rotates" fill="#00242B" points="172.282,58.084 173.413,53.495 177.952,52.181 181.36,55.454 180.229,60.043 175.69,61.357 "/>
<polygon opacity="0.8" fill="#27AAE1" points="251.2,78.658 252.331,74.07 256.871,72.755 260.279,76.029 259.147,80.617 
	254.608,81.932 "/>
<polygon fill="#00242B" points="90.784,46.087 99.318,34.645 104.959,47.757 "/>
<polygon opacity="0.8" fill="#27AAE1" points="76.222,32.097 87.896,34.566 79.921,43.441 "/>
<polygon fill="#00A79D" points="64.407,46.21 97.584,38.334 88.042,71.954 "/>
<polygon fill="#00A79D" points="67.498,35.587 71.357,30.414 73.907,36.343 "/>
<polygon opacity="0.8" fill="#27AAE1" points="91.613,56.825 97.512,48.916 101.411,57.979 "/>
<polygon fill="#00242B" points="60.879,51.911 74.172,40.419 77.478,57.678 "/>
<path fill="#27AAE1" d="M81.174,57.743c-0.014-0.035-0.028-0.069-0.042-0.101c-0.131,0.036-0.275,0.074-0.079,0.133
	c-0.196-0.059-0.052-0.097,0.079-0.133c-0.025-0.056-0.052-0.106-0.086-0.139c0.166,0.028,0.227,0.052,0.231,0.072
	c0.019-0.033,0.037-0.068,0.056-0.102c-0.02-0.163-0.025-0.327-0.03-0.523l0.14,0.132c-0.443-1.213-0.885-2.425-0.516-3.797
	c-0.37,1.372,0.073,2.584,0.516,3.797l-0.14-0.132c0.006,0.196,0.011,0.36,0.03,0.523c0.306-0.57,0.473-1.226,0.453-1.919
	c-0.025-0.88-0.344-1.682-0.861-2.315c-0.727-0.89-1.844-1.446-3.081-1.411c-2.117,0.06-3.785,1.825-3.725,3.942
	c0.06,2.117,1.825,3.785,3.942,3.725C79.372,59.46,80.511,58.768,81.174,57.743z"/>
<path fill="#00A79D" d="M93.472,51.395c-0.006-0.015-0.012-0.029-0.018-0.043c-0.056,0.015-0.117,0.032-0.034,0.057
	c-0.084-0.025-0.022-0.042,0.034-0.057c-0.011-0.024-0.022-0.045-0.037-0.059c0.071,0.012,0.097,0.022,0.099,0.031
	c0.008-0.014,0.016-0.029,0.024-0.043c-0.008-0.069-0.011-0.139-0.013-0.223l0.06,0.056c-0.189-0.517-0.378-1.035-0.22-1.62
	c-0.158,0.585,0.031,1.103,0.22,1.62l-0.06-0.056c0.002,0.083,0.005,0.154,0.013,0.223c0.131-0.243,0.202-0.523,0.193-0.819
	c-0.011-0.375-0.147-0.718-0.367-0.988c-0.31-0.38-0.787-0.617-1.315-0.602c-0.903,0.026-1.615,0.779-1.589,1.682
	c0.026,0.903,0.779,1.615,1.682,1.589C92.704,52.127,93.189,51.832,93.472,51.395z"/>
<path fill="#006160" d="M55.408,47.448c-0.102,0.038-0.204,0.076-0.3,0.115c0.095,0.385,0.194,0.808,0.383,0.24
	c-0.189,0.568-0.289,0.145-0.383-0.24c-0.166,0.068-0.313,0.142-0.412,0.24c0.096-0.482,0.169-0.659,0.23-0.669
	c-0.096-0.059-0.194-0.115-0.292-0.171c-0.477,0.044-0.957,0.045-1.529,0.045l0.398-0.398c-3.579,1.193-7.159,2.386-11.136,1.193
	c3.977,1.193,7.556,0,11.136-1.193l-0.398,0.398c0.572,0,1.052-0.001,1.529-0.045c-1.641-0.942-3.542-1.483-5.57-1.483
	c-2.572,0-4.942,0.866-6.834,2.323c-2.661,2.05-4.376,5.268-4.376,8.886c0,6.191,5.019,11.209,11.209,11.209
	c6.191,0,11.21-5.019,11.21-11.209C60.275,52.853,58.347,49.469,55.408,47.448z"/>
<path fill="#00A79D" d="M6.042,39.185c-0.035,0.013-0.07,0.026-0.103,0.04c0.033,0.133,0.067,0.278,0.132,0.083
	c-0.065,0.196-0.099,0.05-0.132-0.083c-0.057,0.023-0.108,0.049-0.142,0.083c0.033-0.166,0.058-0.227,0.079-0.23
	c-0.033-0.02-0.067-0.04-0.101-0.059c-0.164,0.015-0.329,0.015-0.526,0.015l0.137-0.137c-1.232,0.411-2.464,0.821-3.833,0.411
	c1.369,0.411,2.601,0,3.833-0.411l-0.137,0.137c0.197,0,0.362,0,0.526-0.015c-0.565-0.324-1.219-0.511-1.917-0.511
	c-0.885,0-1.701,0.298-2.352,0.8C0.59,40.012,0,41.12,0,42.366c0,2.131,1.727,3.858,3.858,3.858c2.131,0,3.858-1.727,3.858-3.858
	C7.717,41.045,7.053,39.88,6.042,39.185z"/>
<path fill="#00A79D" d="M58.759,60.403c-0.053,0.02-0.106,0.039-0.156,0.06c0.049,0.201,0.101,0.421,0.2,0.125
	c-0.099,0.296-0.15,0.075-0.2-0.125c-0.086,0.035-0.163,0.074-0.215,0.125c0.05-0.251,0.088-0.343,0.12-0.349
	c-0.05-0.031-0.101-0.06-0.152-0.089c-0.248,0.023-0.499,0.023-0.796,0.023l0.207-0.207c-1.864,0.621-3.729,1.243-5.8,0.621
	c2.071,0.621,3.936,0,5.8-0.621l-0.207,0.207c0.298,0,0.548-0.001,0.796-0.023c-0.855-0.491-1.845-0.773-2.901-0.773
	c-1.34,0-2.574,0.451-3.56,1.21c-1.386,1.068-2.279,2.744-2.279,4.629c0,3.225,2.614,5.839,5.839,5.839
	c3.225,0,5.839-2.614,5.839-5.839C61.294,63.219,60.289,61.456,58.759,60.403z"/>
<polygon fill="#00242B" points="49.065,20.818 50.171,16.334 54.607,15.049 57.938,18.249 56.832,22.733 52.396,24.018 "/>
<polygon fill="#00A79D" points="227.935,132.066 219.297,90.484 260.817,103.547 "/>
<polygon opacity="0.8" fill="#27AAE1" points="241.913,108.509 245.861,92.144 258.059,103.745 "/>
<polygon fill="#00242B" points="212.095,106.449 225.389,94.957 228.695,112.215 "/>
<polygon opacity="0.3" fill="#00242B" points="254.515,126.612 245.503,123.587 243.617,114.269 250.743,107.977 259.756,111.002 
	261.642,120.32 "/>
<polygon opacity="0.5" fill="#00A79D" points="281.273,90.611 239.281,67.138 281.276,41.307 "/>
<polygon class="test" fill="#00A79D" points="254.401,24.443 254.529,14.402 263.29,9.492 271.922,14.624 271.794,24.666 263.033,29.576 "/>
</svg>
