<?xml version="1.0" encoding="utf-8"?>
<!-- Generator: Adobe Illustrator 17.0.0, SVG Export Plug-In . SVG Version: 6.00 Build 0)  -->
<!DOCTYPE svg PUBLIC "-//W3C//DTD SVG 1.1//EN" "http://www.w3.org/Graphics/SVG/1.1/DTD/svg11.dtd">
<svg version="1.1" id="Calque_1" xmlns="http://www.w3.org/2000/svg" xmlns:xlink="http://www.w3.org/1999/xlink" x="0px" y="0px"
	 width="234.147px" height="117.075px" viewBox="0 0 234.147 117.075" enable-background="new 0 0 234.147 117.075"
	 xml:space="preserve">
<polygon fill="#00242B" points="214.014,18.013 212.619,6.066 223.663,10.832 "/>
<polygon opacity="0.3" fill="#27AAE1" points="149.47,74.503 154.36,54.665 173.985,48.982 188.72,63.136 183.829,82.973 
	164.204,88.657 "/>
<polygon opacity="0.3" fill="#27AAE1" points="66.789,27.746 71.571,7.923 86.346,21.976 "/>
<polygon opacity="0.3" fill="#00A79D" points="64.414,71.938 55.764,65.097 66.014,61.026 "/>
<polygon opacity="0.3" fill="#27AAE1" points="92.794,41.385 79.569,30.926 95.24,24.703 "/>
<polygon opacity="0.3" fill="#00242B" points="79.879,67.922 60.889,44.658 90.531,39.844 "/>
<circle opacity="0.3" fill="#006160" cx="128.332" cy="44.436" r="30.501"/>
<path opacity="0.3" fill="#27AAE1" d="M143.833,9.771c-0.127,0.048-0.253,0.094-0.371,0.142c0.118,0.477,0.241,1.002,0.475,0.298
	c-0.235,0.704-0.358,0.179-0.475-0.298c-0.206,0.084-0.388,0.176-0.511,0.298c0.12-0.598,0.21-0.817,0.286-0.829
	c-0.119-0.073-0.241-0.143-0.362-0.212c-0.591,0.054-1.186,0.056-1.895,0.056l0.493-0.493c-4.436,1.479-8.872,2.957-13.801,1.479
	c4.929,1.479,9.365,0,13.801-1.479l-0.493,0.493c0.709,0,1.304-0.001,1.895-0.056c-2.034-1.167-4.39-1.838-6.903-1.838
	c-3.188,0-6.125,1.074-8.47,2.88c-3.298,2.54-5.423,6.529-5.423,11.014c0,7.673,6.22,13.893,13.893,13.893
	c7.673,0,13.893-6.22,13.893-13.893C149.865,16.471,147.475,12.276,143.833,9.771z"/>
<path opacity="0.3" fill="#00242B" d="M161.033,25.411c-0.067,0.025-0.134,0.05-0.197,0.076c0.063,0.254,0.128,0.533,0.253,0.158
	c-0.125,0.374-0.19,0.095-0.253-0.158c-0.109,0.045-0.206,0.093-0.271,0.158c0.064-0.318,0.112-0.434,0.152-0.441
	c-0.063-0.039-0.128-0.076-0.192-0.113c-0.314,0.029-0.631,0.03-1.007,0.03l0.262-0.262c-2.358,0.786-4.716,1.572-7.336,0.786
	c2.62,0.786,4.978,0,7.336-0.786l-0.262,0.262c0.377,0,0.693-0.001,1.007-0.03c-1.081-0.62-2.333-0.977-3.669-0.977
	c-1.695,0-3.256,0.571-4.502,1.531c-1.753,1.35-2.883,3.47-2.883,5.854c0,4.078,3.306,7.385,7.385,7.385
	c4.078,0,7.385-3.306,7.385-7.385C164.239,28.972,162.969,26.742,161.033,25.411z"/>
<path opacity="0.3" fill="#00242B" d="M156.007,42.886c-0.018,0.007-0.035,0.013-0.052,0.02c0.017,0.067,0.034,0.141,0.067,0.042
	c-0.033,0.099-0.05,0.025-0.067-0.042c-0.029,0.012-0.055,0.025-0.072,0.042c0.017-0.084,0.029-0.115,0.04-0.116
	c-0.017-0.01-0.034-0.02-0.051-0.03c-0.083,0.008-0.167,0.008-0.266,0.008l0.069-0.069c-0.623,0.208-1.245,0.415-1.937,0.208
	c0.692,0.208,1.315,0,1.937-0.208l-0.069,0.069c0.1,0,0.183,0,0.266-0.008c-0.286-0.164-0.616-0.258-0.969-0.258
	c-0.448,0-0.86,0.151-1.189,0.404c-0.463,0.357-0.761,0.916-0.761,1.546c0,1.077,0.873,1.95,1.95,1.95s1.95-0.873,1.95-1.95
	C156.854,43.826,156.519,43.238,156.007,42.886z"/>
<path opacity="0.3" fill="#00A79D" d="M116.389,10.172c-0.044,0.016-0.087,0.032-0.128,0.049c0.04,0.164,0.083,0.345,0.164,0.103
	c-0.081,0.242-0.123,0.062-0.164-0.103c-0.071,0.029-0.134,0.061-0.176,0.103c0.041-0.206,0.072-0.281,0.098-0.285
	c-0.041-0.025-0.083-0.049-0.125-0.073c-0.203,0.019-0.408,0.019-0.652,0.019l0.17-0.17c-1.527,0.509-3.054,1.018-4.751,0.509
	c1.697,0.509,3.224,0,4.751-0.509l-0.17,0.17c0.244,0,0.449,0,0.652-0.019c-0.7-0.402-1.511-0.633-2.376-0.633
	c-1.097,0-2.108,0.37-2.915,0.991c-1.135,0.874-1.867,2.247-1.867,3.791c0,2.641,2.141,4.782,4.782,4.782
	c2.641,0,4.782-2.141,4.782-4.782C118.465,12.478,117.643,11.034,116.389,10.172z"/>
<path opacity="0.3" fill="#00242B" d="M106.137,21.106c-0.057,0.021-0.114,0.042-0.167,0.064c0.053,0.215,0.108,0.451,0.214,0.134
	c-0.106,0.317-0.161,0.081-0.214-0.134c-0.093,0.038-0.175,0.079-0.23,0.134c0.054-0.269,0.094-0.367,0.129-0.373
	c-0.054-0.033-0.108-0.064-0.163-0.095c-0.266,0.024-0.534,0.025-0.853,0.025l0.222-0.222c-1.996,0.665-3.992,1.331-6.21,0.665
	c2.218,0.665,4.214,0,6.21-0.665l-0.222,0.222c0.319,0,0.587-0.001,0.853-0.025c-0.915-0.525-1.975-0.827-3.106-0.827
	c-1.434,0-2.756,0.483-3.811,1.296c-1.484,1.143-2.44,2.937-2.44,4.955c0,3.452,2.799,6.251,6.251,6.251
	c3.452,0,6.251-2.799,6.251-6.251C108.851,24.12,107.775,22.233,106.137,21.106z"/>
<path opacity="0.3" fill="#27AAE1" d="M93.859,59.262c-0.06,0.022-0.119,0.044-0.175,0.067c0.055,0.225,0.113,0.473,0.224,0.141
	c-0.111,0.332-0.169,0.085-0.224-0.141c-0.097,0.04-0.183,0.083-0.241,0.141c0.056-0.282,0.099-0.385,0.135-0.391
	c-0.056-0.035-0.114-0.067-0.171-0.1c-0.279,0.026-0.56,0.026-0.894,0.026l0.233-0.233c-2.093,0.698-4.185,1.395-6.511,0.698
	c2.325,0.698,4.418,0,6.511-0.698l-0.233,0.233c0.334,0,0.615-0.001,0.894-0.026c-0.96-0.551-2.071-0.867-3.256-0.867
	c-1.504,0-2.89,0.507-3.996,1.358c-1.556,1.198-2.558,3.08-2.558,5.196c0,3.62,2.934,6.554,6.554,6.554
	c3.62,0,6.554-2.934,6.554-6.554C96.705,62.422,95.577,60.443,93.859,59.262z"/>
<path opacity="0.3" fill="#00A79D" d="M77.566,56.484c-0.066,0.025-0.132,0.049-0.193,0.074c0.061,0.249,0.125,0.522,0.248,0.155
	c-0.122,0.367-0.186,0.093-0.248-0.155c-0.107,0.044-0.202,0.092-0.266,0.155c0.062-0.311,0.109-0.425,0.149-0.432
	c-0.062-0.038-0.125-0.074-0.189-0.111c-0.308,0.028-0.618,0.029-0.987,0.029l0.257-0.257c-2.311,0.77-4.621,1.54-7.189,0.77
	c2.567,0.77,4.878,0,7.189-0.77L76.079,56.2c0.369,0,0.679-0.001,0.987-0.029c-1.06-0.608-2.286-0.957-3.596-0.957
	c-1.661,0-3.191,0.559-4.412,1.5c-1.718,1.323-2.825,3.401-2.825,5.737c0,3.997,3.24,7.237,7.236,7.237
	c3.997,0,7.237-3.24,7.237-7.237C80.707,59.973,79.463,57.788,77.566,56.484z"/>
<path opacity="0.3" fill="#00A79D" d="M83.608,37.947c-0.026,0.01-0.051,0.019-0.075,0.029c0.024,0.096,0.048,0.202,0.096,0.06
	c-0.047,0.142-0.072,0.036-0.096-0.06c-0.041,0.017-0.078,0.035-0.103,0.06c0.024-0.12,0.042-0.164,0.057-0.167
	c-0.024-0.015-0.048-0.029-0.073-0.043c-0.119,0.011-0.239,0.011-0.381,0.011l0.099-0.099c-0.893,0.298-1.786,0.595-2.778,0.298
	c0.992,0.298,1.885,0,2.778-0.298l-0.099,0.099c0.143,0,0.262,0,0.381-0.011c-0.409-0.235-0.884-0.37-1.389-0.37
	c-0.642,0-1.233,0.216-1.705,0.58c-0.664,0.511-1.092,1.314-1.092,2.217c0,1.544,1.252,2.796,2.796,2.796s2.796-1.252,2.796-2.796
	C84.822,39.296,84.341,38.451,83.608,37.947z"/>
<polygon opacity="0.3" fill="#00A79D" points="200.716,78.883 202.782,70.504 211.071,68.103 217.294,74.082 215.229,82.46 
	206.94,84.861 "/>
<polygon opacity="0.3" fill="#00A79D" points="141.327,34.878 146.735,12.943 168.435,6.658 184.728,22.309 179.32,44.244 
	157.62,50.529 "/>
<polygon opacity="0.3" fill="#00242B" points="200.354,85.612 166.42,65.747 166.657,26.427 200.828,6.971 234.762,26.837 
	234.525,66.157 "/>
<polygon opacity="0.3" fill="#00242B" points="157.742,23.313 149.673,20.605 147.985,12.262 154.365,6.629 162.434,9.338 
	164.123,17.68 "/>
<polygon opacity="0.3" fill="#00242B" points="123.447,40.45 124.818,34.892 130.316,33.3 134.444,37.266 133.074,42.824 
	127.576,44.416 "/>
<polygon opacity="0.3" fill="#27AAE1" points="220.69,78.079 222.06,72.521 227.559,70.929 231.687,74.894 230.317,80.452 
	224.818,82.045 "/>
<polygon opacity="0.8" fill="#27AAE1" points="171.267,68.613 174.882,53.951 189.387,49.75 200.278,60.212 196.664,74.874 
	182.158,79.075 "/>
<polygon fill="#00242B" points="115.005,42.19 100.864,31.006 117.621,24.351 "/>
<polygon opacity="0.8" fill="#27AAE1" points="96.822,60.076 100.356,45.425 111.278,55.812 "/>
<polygon fill="#00A79D" points="114.22,75.498 105.459,33.327 147.568,46.575 "/>
<polygon fill="#00A79D" points="100.917,71.216 94.524,66.16 102.1,63.151 "/>
<polygon opacity="0.8" fill="#27AAE1" points="128.593,41.526 118.818,33.795 130.401,29.196 "/>
<polygon fill="#00242B" points="121.292,74.157 107.256,56.962 129.166,53.404 "/>
<circle fill="#006160" cx="159.339" cy="55.26" r="22.545"/>
<path opacity="0.8" fill="#27AAE1" d="M169.318,29.638c-0.094,0.035-0.187,0.069-0.275,0.105c0.087,0.353,0.178,0.741,0.351,0.22
	c-0.173,0.52-0.264,0.133-0.351-0.22c-0.152,0.062-0.287,0.13-0.377,0.22c0.088-0.442,0.155-0.604,0.211-0.613
	c-0.088-0.054-0.178-0.105-0.268-0.157c-0.437,0.04-0.877,0.041-1.401,0.041l0.364-0.364c-3.279,1.093-6.558,2.186-10.201,1.093
	c3.643,1.093,6.922,0,10.201-1.093l-0.364,0.364c0.524,0,0.964-0.001,1.401-0.041c-1.503-0.863-3.244-1.359-5.102-1.359
	c-2.356,0-4.527,0.794-6.26,2.128c-2.438,1.878-4.008,4.826-4.008,8.141c0,5.671,4.598,10.269,10.269,10.269
	c5.671,0,10.269-4.598,10.269-10.269C173.777,34.589,172.01,31.489,169.318,29.638z"/>
<path fill="#00242B" d="M179.814,32.327c-0.05,0.019-0.099,0.037-0.146,0.056c0.046,0.188,0.094,0.394,0.187,0.117
	c-0.092,0.277-0.14,0.07-0.187-0.117c-0.081,0.033-0.153,0.069-0.201,0.117c0.047-0.235,0.083-0.321,0.112-0.326
	c-0.047-0.029-0.095-0.056-0.142-0.083c-0.232,0.021-0.466,0.022-0.745,0.022l0.194-0.194c-1.743,0.581-3.486,1.162-5.422,0.581
	c1.936,0.581,3.679,0,5.422-0.581l-0.194,0.194c0.279,0,0.512-0.001,0.745-0.022c-0.799-0.459-1.725-0.722-2.712-0.722
	c-1.253,0-2.406,0.422-3.328,1.131c-1.296,0.998-2.131,2.565-2.131,4.327c0,3.014,2.444,5.458,5.458,5.458
	c3.014,0,5.458-2.444,5.458-5.458C182.183,34.959,181.245,33.311,179.814,32.327z"/>
<path fill="#00242B" d="M176.099,45.244c-0.013,0.005-0.026,0.01-0.039,0.015c0.012,0.05,0.025,0.104,0.049,0.031
	c-0.024,0.073-0.037,0.019-0.049-0.031c-0.021,0.009-0.04,0.018-0.053,0.031c0.012-0.062,0.022-0.085,0.03-0.086
	c-0.012-0.008-0.025-0.015-0.038-0.022c-0.061,0.006-0.123,0.006-0.197,0.006l0.051-0.051c-0.46,0.153-0.921,0.307-1.432,0.153
	c0.511,0.153,0.972,0,1.432-0.153l-0.051,0.051c0.074,0,0.135,0,0.197-0.006c-0.211-0.121-0.455-0.191-0.716-0.191
	c-0.331,0-0.636,0.111-0.879,0.299c-0.342,0.264-0.563,0.677-0.563,1.143c0,0.796,0.645,1.442,1.442,1.442s1.442-0.645,1.442-1.442
	C176.725,45.939,176.477,45.504,176.099,45.244z"/>
<path fill="#00A79D" d="M149.033,28.455c-0.032,0.012-0.064,0.024-0.094,0.036c0.03,0.121,0.061,0.255,0.121,0.076
	c-0.06,0.179-0.091,0.046-0.121-0.076c-0.052,0.021-0.099,0.045-0.13,0.076c0.03-0.152,0.053-0.208,0.073-0.211
	c-0.03-0.019-0.061-0.036-0.092-0.054c-0.15,0.014-0.302,0.014-0.482,0.014l0.125-0.125c-1.129,0.376-2.257,0.752-3.511,0.376
	c1.254,0.376,2.383,0,3.511-0.376l-0.125,0.125c0.18,0,0.332,0,0.482-0.014c-0.518-0.297-1.117-0.468-1.756-0.468
	c-0.811,0-1.558,0.273-2.155,0.733c-0.839,0.646-1.38,1.661-1.38,2.802c0,1.952,1.583,3.535,3.535,3.535s3.535-1.583,3.535-3.535
	C150.568,30.159,149.96,29.092,149.033,28.455z"/>
<path fill="#00242B" d="M141.455,36.537c-0.042,0.016-0.084,0.031-0.124,0.047c0.039,0.159,0.08,0.333,0.158,0.099
	c-0.078,0.234-0.119,0.06-0.158-0.099c-0.068,0.028-0.129,0.058-0.17,0.099c0.04-0.199,0.07-0.272,0.095-0.276
	c-0.04-0.024-0.08-0.047-0.12-0.071c-0.197,0.018-0.395,0.019-0.63,0.019l0.164-0.164c-1.475,0.492-2.951,0.984-4.59,0.492
	c1.639,0.492,3.114,0,4.59-0.492l-0.164,0.164c0.236,0,0.434,0,0.63-0.019c-0.676-0.388-1.46-0.611-2.296-0.611
	c-1.06,0-2.037,0.357-2.817,0.958c-1.097,0.845-1.804,2.171-1.804,3.663c0,2.552,2.069,4.62,4.62,4.62c2.552,0,4.62-2.069,4.62-4.62
	C143.461,38.765,142.667,37.37,141.455,36.537z"/>
<path fill="#27AAE1" d="M129.381,54.74c-0.044,0.017-0.088,0.033-0.13,0.05c0.041,0.166,0.084,0.349,0.166,0.104
	c-0.082,0.245-0.125,0.063-0.166-0.104c-0.072,0.029-0.135,0.061-0.178,0.104c0.042-0.208,0.073-0.285,0.1-0.289
	c-0.042-0.026-0.084-0.05-0.126-0.074c-0.206,0.019-0.414,0.019-0.661,0.019l0.172-0.172c-1.547,0.516-3.094,1.031-4.812,0.516
	c1.719,0.516,3.265,0,4.812-0.516l-0.172,0.172c0.247,0,0.455-0.001,0.661-0.019c-0.709-0.407-1.531-0.641-2.407-0.641
	c-1.112,0-2.136,0.374-2.953,1.004c-1.15,0.886-1.891,2.276-1.891,3.84c0,2.675,2.169,4.844,4.844,4.844
	c2.675,0,4.844-2.169,4.844-4.844C131.484,57.076,130.65,55.613,129.381,54.74z"/>
<path fill="#00A79D" d="M160.061,72.774c-0.049,0.018-0.097,0.036-0.143,0.055c0.045,0.184,0.093,0.386,0.183,0.115
	c-0.09,0.271-0.138,0.069-0.183-0.115c-0.079,0.032-0.15,0.068-0.197,0.115c0.046-0.23,0.081-0.314,0.11-0.319
	c-0.046-0.028-0.093-0.055-0.139-0.082c-0.228,0.021-0.457,0.021-0.73,0.021l0.19-0.19c-1.708,0.569-3.416,1.139-5.314,0.569
	c1.898,0.569,3.606,0,5.314-0.569l-0.19,0.19c0.273,0,0.502-0.001,0.73-0.021c-0.783-0.449-1.69-0.708-2.658-0.708
	c-1.227,0-2.358,0.413-3.261,1.109c-1.27,0.978-2.088,2.514-2.088,4.24c0,2.954,2.395,5.349,5.349,5.349s5.349-2.395,5.349-5.349
	C162.383,75.353,161.463,73.738,160.061,72.774z"/>
<path fill="#00A79D" d="M121.804,38.985c-0.019,0.007-0.038,0.014-0.055,0.021c0.018,0.071,0.036,0.149,0.071,0.044
	c-0.035,0.105-0.053,0.027-0.071-0.044c-0.031,0.013-0.058,0.026-0.076,0.044c0.018-0.089,0.031-0.122,0.042-0.123
	c-0.018-0.011-0.036-0.021-0.054-0.032c-0.088,0.008-0.176,0.008-0.282,0.008l0.073-0.073c-0.66,0.22-1.32,0.44-2.053,0.22
	c0.733,0.22,1.393,0,2.053-0.22l-0.073,0.073c0.105,0,0.194,0,0.282-0.008c-0.303-0.174-0.653-0.273-1.027-0.273
	c-0.474,0-0.911,0.16-1.26,0.428c-0.491,0.378-0.807,0.971-0.807,1.638c0,1.142,0.925,2.067,2.067,2.067
	c1.142,0,2.067-0.925,2.067-2.067C122.701,39.982,122.345,39.358,121.804,38.985z"/>
<polygon fill="#00A79D" points="209.145,71.851 210.672,65.658 216.799,63.883 221.399,68.302 219.872,74.495 213.745,76.269 "/>
<polygon fill="#00A79D" points="165.249,39.325 169.246,23.112 185.285,18.467 197.328,30.035 193.331,46.248 177.291,50.893 "/>
<polygon fill="#00242B" points="208.878,74.39 183.796,59.707 183.971,30.643 209.228,16.263 234.31,30.946 234.135,60.01 "/>
<polygon fill="#00242B" points="177.382,29.299 171.418,27.297 170.17,21.131 174.885,16.967 180.85,18.969 182.098,25.135 "/>
<polygon fill="#00242B" points="154.25,50.835 155.263,46.727 159.327,45.55 162.379,48.481 161.366,52.589 157.302,53.766 "/>
<polygon opacity="0.8" fill="#27AAE1" points="223.909,71.257 224.922,67.149 228.986,65.972 232.037,68.903 231.024,73.011 
	226.96,74.188 "/>
<polygon fill="#00242B" points="81.282,40.094 88.923,29.85 93.974,41.59 "/>
<polygon opacity="0.8" fill="#27AAE1" points="68.245,27.569 78.697,29.78 71.556,37.726 "/>
<polygon fill="#00A79D" points="57.666,40.205 87.371,33.153 78.827,63.254 "/>
<polygon fill="#00A79D" points="60.434,30.694 63.888,26.062 66.172,31.37 "/>
<polygon opacity="0.8" fill="#27AAE1" points="82.024,49.708 87.306,42.628 90.797,50.742 "/>
<polygon fill="#00242B" points="54.507,45.309 66.409,35.02 69.369,50.472 "/>
<path fill="#27AAE1" d="M72.678,50.531c-0.013-0.031-0.025-0.062-0.038-0.091c-0.117,0.032-0.246,0.066-0.07,0.119
	c-0.176-0.053-0.047-0.087,0.07-0.119c-0.022-0.05-0.046-0.095-0.077-0.124c0.149,0.025,0.203,0.046,0.207,0.065
	c0.017-0.03,0.034-0.06,0.05-0.091c-0.018-0.146-0.022-0.293-0.027-0.468l0.125,0.118c-0.396-1.086-0.793-2.171-0.462-3.399
	c-0.331,1.228,0.065,2.314,0.462,3.399l-0.125-0.118c0.005,0.175,0.009,0.322,0.027,0.468c0.274-0.511,0.423-1.097,0.406-1.718
	c-0.022-0.788-0.308-1.506-0.771-2.072c-0.651-0.797-1.651-1.294-2.759-1.263c-1.896,0.054-3.389,1.634-3.335,3.529
	c0.054,1.896,1.634,3.389,3.529,3.335C71.065,52.068,72.085,51.448,72.678,50.531z"/>
<path fill="#00A79D" d="M83.689,44.847c-0.005-0.013-0.011-0.026-0.016-0.039c-0.05,0.014-0.105,0.028-0.03,0.051
	c-0.075-0.023-0.02-0.037,0.03-0.051c-0.009-0.021-0.02-0.04-0.033-0.053c0.063,0.011,0.087,0.02,0.088,0.028
	c0.007-0.013,0.014-0.026,0.021-0.039c-0.007-0.062-0.009-0.125-0.012-0.2l0.053,0.05c-0.169-0.463-0.338-0.926-0.197-1.45
	c-0.141,0.524,0.028,0.987,0.197,1.45l-0.053-0.05c0.002,0.075,0.004,0.137,0.012,0.2c0.117-0.218,0.181-0.468,0.173-0.733
	c-0.009-0.336-0.131-0.642-0.329-0.884c-0.278-0.34-0.704-0.552-1.177-0.539c-0.809,0.023-1.446,0.697-1.423,1.506
	c0.023,0.809,0.697,1.446,1.506,1.423C83.001,45.503,83.436,45.238,83.689,44.847z"/>
<path fill="#006160" d="M49.609,41.313c-0.092,0.034-0.183,0.068-0.268,0.103c0.085,0.345,0.174,0.724,0.343,0.215
	c-0.17,0.509-0.258,0.13-0.343-0.215c-0.149,0.061-0.281,0.127-0.369,0.215c0.086-0.432,0.152-0.59,0.206-0.599
	c-0.086-0.053-0.174-0.103-0.262-0.153c-0.427,0.039-0.857,0.04-1.369,0.04l0.356-0.356c-3.205,1.068-6.409,2.136-9.97,1.068
	c3.561,1.068,6.765,0,9.97-1.068l-0.356,0.356c0.512,0,0.942-0.001,1.369-0.04c-1.469-0.843-3.171-1.328-4.987-1.328
	c-2.303,0-4.425,0.776-6.119,2.08c-2.383,1.835-3.918,4.716-3.918,7.956c0,5.543,4.493,10.036,10.036,10.036
	c5.543,0,10.036-4.493,10.036-10.036C53.966,46.153,52.24,43.122,49.609,41.313z"/>
<path fill="#00A79D" d="M5.409,41.568c-0.032,0.012-0.063,0.023-0.092,0.035c0.029,0.119,0.06,0.249,0.118,0.074
	c-0.058,0.175-0.089,0.045-0.118-0.074c-0.051,0.021-0.097,0.044-0.127,0.074c0.03-0.149,0.052-0.203,0.071-0.206
	c-0.03-0.018-0.06-0.035-0.09-0.053c-0.147,0.014-0.295,0.014-0.471,0.014l0.123-0.123c-1.103,0.368-2.206,0.735-3.432,0.368
	c1.226,0.368,2.329,0,3.432-0.368L4.7,41.432c0.176,0,0.324,0,0.471-0.014c-0.506-0.29-1.091-0.457-1.716-0.457
	c-0.793,0-1.523,0.267-2.106,0.716C0.528,42.309,0,43.301,0,44.416c0,1.908,1.547,3.455,3.455,3.455
	c1.908,0,3.455-1.547,3.455-3.455C6.909,43.234,6.315,42.191,5.409,41.568z"/>
<path fill="#00A79D" d="M52.609,52.912c-0.048,0.018-0.095,0.035-0.14,0.054c0.044,0.18,0.091,0.377,0.179,0.112
	c-0.088,0.265-0.135,0.067-0.179-0.112c-0.077,0.032-0.146,0.066-0.192,0.112c0.045-0.225,0.079-0.307,0.107-0.312
	c-0.045-0.028-0.091-0.054-0.136-0.08c-0.222,0.02-0.446,0.021-0.713,0.021l0.185-0.185c-1.669,0.556-3.338,1.113-5.193,0.556
	c1.855,0.556,3.524,0,5.193-0.556l-0.185,0.185c0.267,0,0.491-0.001,0.713-0.021c-0.765-0.439-1.652-0.692-2.597-0.692
	c-1.2,0-2.305,0.404-3.187,1.083c-1.241,0.956-2.041,2.457-2.041,4.144c0,2.887,2.34,5.228,5.228,5.228
	c2.887,0,5.228-2.34,5.228-5.228C54.879,55.433,53.979,53.855,52.609,52.912z"/>
<polygon fill="#00242B" points="43.93,17.47 44.92,13.455 48.892,12.305 51.874,15.17 50.884,19.185 46.912,20.335 "/>
<polygon fill="#00A79D" points="204.079,117.075 196.345,79.845 233.519,91.541 "/>
<polygon opacity="0.8" fill="#27AAE1" points="216.594,95.983 220.128,81.331 231.05,91.718 "/>
<polygon fill="#00242B" points="189.897,94.139 201.799,83.849 204.759,99.302 "/>
<polygon opacity="0.3" fill="#00242B" points="227.877,112.191 219.808,109.483 218.12,101.14 224.5,95.507 232.569,98.216 
	234.257,106.558 "/>
<polygon fill="#00A79D" points="215.474,22.947 222.389,17.2 230.824,20.315 232.344,29.177 225.429,34.924 216.994,31.809 "/>
<polygon fill="#006160" points="201.842,60.19 189.436,56.876 186.103,44.474 195.177,35.388 207.583,38.702 210.915,51.104 "/>
</svg>
