<?xml version="1.0" encoding="utf-8"?>
<!-- Generator: Adobe Illustrator 17.0.0, SVG Export Plug-In . SVG Version: 6.00 Build 0)  -->
<!DOCTYPE svg PUBLIC "-//W3C//DTD SVG 1.1//EN" "http://www.w3.org/Graphics/SVG/1.1/DTD/svg11.dtd">
<svg version="1.1" id="Calque_1" xmlns="http://www.w3.org/2000/svg" xmlns:xlink="http://www.w3.org/1999/xlink" x="0px" y="0px"
	 width="217.75px" height="125px" viewBox="1498.443 -603.807 217.75 125" enable-background="new 1498.443 -603.807 217.75 125"
	 xml:space="preserve">
<polygon fill="#23309F" points="1695.578,-577.276 1694.183,-589.223 1705.227,-584.457 "/>
<polygon fill="#2E5F92" points="1631.034,-520.786 1635.924,-540.624 1655.549,-546.307 1670.284,-532.153 1665.393,-512.315 
	1645.768,-506.632 "/>
<polygon opacity="0.3" fill="#29ABE2" enable-background="new    " points="1548.353,-567.543 1553.135,-587.366 1567.91,-573.313 
	"/>
<polygon opacity="0.3" fill="#0071BC" enable-background="new    " points="1545.978,-523.351 1537.328,-530.192 1547.578,-534.263 
	"/>
<polygon opacity="0.3" fill="#29ABE2" enable-background="new    " points="1574.358,-553.904 1561.133,-564.363 1576.804,-570.586 
	"/>
<polygon opacity="0.3" fill="#00242B" enable-background="new    " points="1561.443,-527.367 1542.453,-550.631 1572.095,-555.444 
	"/>
<circle opacity="0.3" fill="#0071BC" enable-background="new    " cx="1609.896" cy="-550.852" r="30.501"/>
<path opacity="0.3" fill="#27AAE1" enable-background="new    " d="M1625.397-585.517c-0.127,0.048-0.253,0.094-0.371,0.142
	c0.118,0.477,0.241,1.002,0.475,0.298c-0.235,0.704-0.358,0.179-0.475-0.298c-0.206,0.084-0.388,0.176-0.511,0.298
	c0.12-0.598,0.21-0.817,0.286-0.829c-0.119-0.073-0.241-0.143-0.362-0.212c-0.591,0.054-1.186,0.056-1.895,0.056l0.493-0.493
	c-4.436,1.479-8.872,2.957-13.801,1.479c4.929,1.479,9.365,0,13.801-1.479l-0.493,0.493c0.709,0,1.304-0.001,1.895-0.056
	c-2.034-1.167-4.39-1.838-6.903-1.838c-3.188,0-6.125,1.074-8.47,2.88c-3.298,2.54-5.423,6.529-5.423,11.014
	c0,7.673,6.22,13.893,13.893,13.893s13.893-6.22,13.893-13.893C1631.429-578.818,1629.039-583.013,1625.397-585.517z"/>
<path opacity="0.3" fill="#00242B" enable-background="new    " d="M1642.597-569.878c-0.067,0.025-0.134,0.05-0.197,0.076
	c0.063,0.254,0.128,0.533,0.253,0.158c-0.125,0.374-0.19,0.095-0.253-0.158c-0.109,0.045-0.206,0.094-0.271,0.158
	c0.064-0.318,0.112-0.434,0.152-0.441c-0.063-0.039-0.128-0.076-0.192-0.113c-0.314,0.029-0.631,0.03-1.007,0.03l0.262-0.262
	c-2.358,0.786-4.716,1.572-7.336,0.786c2.62,0.786,4.978,0,7.336-0.786l-0.262,0.262c0.377,0,0.693-0.001,1.007-0.03
	c-1.081-0.62-2.333-0.977-3.669-0.977c-1.695,0-3.256,0.571-4.502,1.531c-1.753,1.35-2.883,3.47-2.883,5.854
	c0,4.078,3.306,7.385,7.385,7.385c4.078,0,7.385-3.306,7.385-7.385C1645.803-566.317,1644.533-568.547,1642.597-569.878z"/>
<path opacity="0.3" fill="#00242B" enable-background="new    " d="M1637.572-552.403c-0.018,0.007-0.035,0.013-0.052,0.02
	c0.017,0.067,0.034,0.141,0.067,0.042c-0.033,0.099-0.05,0.025-0.067-0.042c-0.029,0.012-0.055,0.025-0.072,0.042
	c0.017-0.084,0.029-0.115,0.04-0.116c-0.017-0.01-0.034-0.02-0.051-0.03c-0.083,0.008-0.167,0.008-0.266,0.008l0.069-0.069
	c-0.623,0.208-1.245,0.415-1.937,0.208c0.692,0.208,1.315,0,1.937-0.208l-0.069,0.069c0.1,0,0.183,0,0.266-0.008
	c-0.286-0.164-0.616-0.258-0.969-0.258c-0.448,0-0.86,0.151-1.189,0.404c-0.463,0.357-0.761,0.917-0.761,1.546
	c0,1.077,0.873,1.95,1.95,1.95s1.95-0.873,1.95-1.95C1638.418-551.462,1638.083-552.051,1637.572-552.403z"/>
<path opacity="0.3" fill="#0071BC" enable-background="new    " d="M1597.953-585.117c-0.044,0.016-0.087,0.032-0.128,0.049
	c0.04,0.164,0.083,0.345,0.164,0.103c-0.081,0.242-0.123,0.062-0.164-0.103c-0.071,0.029-0.134,0.061-0.176,0.103
	c0.041-0.206,0.072-0.281,0.098-0.285c-0.041-0.025-0.083-0.049-0.125-0.073c-0.203,0.019-0.408,0.019-0.652,0.019l0.17-0.17
	c-1.527,0.509-3.054,1.018-4.751,0.509c1.697,0.509,3.224,0,4.751-0.509l-0.17,0.17c0.244,0,0.449,0,0.652-0.019
	c-0.7-0.402-1.511-0.633-2.376-0.633c-1.097,0-2.108,0.37-2.915,0.991c-1.135,0.874-1.867,2.247-1.867,3.791
	c0,2.641,2.141,4.782,4.782,4.782s4.782-2.141,4.782-4.782C1600.029-582.811,1599.207-584.255,1597.953-585.117z"/>
<path opacity="0.8" fill="#27AAE1" enable-background="new    " d="M1587.701-574.183c-0.057,0.021-0.114,0.042-0.167,0.064
	c0.053,0.215,0.108,0.451,0.214,0.134c-0.106,0.317-0.161,0.081-0.214-0.134c-0.093,0.038-0.175,0.079-0.23,0.134
	c0.054-0.269,0.094-0.367,0.129-0.373c-0.054-0.033-0.108-0.064-0.163-0.095c-0.266,0.024-0.534,0.025-0.853,0.025l0.222-0.222
	c-1.996,0.665-3.992,1.331-6.21,0.665c2.218,0.665,4.214,0,6.21-0.665l-0.222,0.222c0.319,0,0.587-0.001,0.853-0.025
	c-0.915-0.525-1.975-0.827-3.106-0.827c-1.434,0-2.756,0.483-3.811,1.296c-1.484,1.143-2.44,2.937-2.44,4.955
	c0,3.452,2.799,6.251,6.251,6.251c3.452,0,6.251-2.799,6.251-6.251C1590.415-571.169,1589.34-573.056,1587.701-574.183z"/>
<path opacity="0.3" fill="#27AAE1" enable-background="new    " d="M1575.423-536.027c-0.06,0.022-0.119,0.044-0.175,0.067
	c0.055,0.225,0.113,0.473,0.224,0.141c-0.111,0.332-0.169,0.085-0.224-0.141c-0.097,0.04-0.183,0.083-0.241,0.141
	c0.056-0.282,0.099-0.385,0.135-0.391c-0.056-0.035-0.114-0.067-0.171-0.1c-0.279,0.026-0.56,0.026-0.894,0.026l0.233-0.233
	c-2.093,0.698-4.185,1.395-6.511,0.698c2.325,0.698,4.418,0,6.511-0.698l-0.233,0.233c0.334,0,0.615-0.001,0.894-0.026
	c-0.96-0.551-2.071-0.867-3.256-0.867c-1.504,0-2.89,0.507-3.996,1.358c-1.556,1.198-2.558,3.08-2.558,5.195
	c0,3.62,2.934,6.554,6.554,6.554s6.554-2.934,6.554-6.554C1578.269-532.867,1577.141-534.845,1575.423-536.027z"/>
<path opacity="0.3" fill="#0071BC" enable-background="new    " d="M1559.13-538.805c-0.066,0.025-0.132,0.049-0.193,0.074
	c0.061,0.249,0.125,0.522,0.247,0.155c-0.122,0.367-0.186,0.093-0.247-0.155c-0.107,0.044-0.202,0.092-0.266,0.155
	c0.062-0.311,0.109-0.425,0.149-0.432c-0.062-0.038-0.125-0.074-0.189-0.111c-0.308,0.028-0.618,0.029-0.987,0.029l0.257-0.257
	c-2.311,0.77-4.621,1.54-7.189,0.77c2.567,0.77,4.878,0,7.189-0.77l-0.257,0.257c0.369,0,0.679-0.001,0.987-0.029
	c-1.06-0.608-2.286-0.957-3.596-0.957c-1.661,0-3.191,0.559-4.412,1.5c-1.718,1.323-2.825,3.401-2.825,5.737
	c0,3.997,3.24,7.237,7.237,7.237c3.997,0,7.237-3.24,7.237-7.237C1562.271-535.316,1561.027-537.501,1559.13-538.805z"/>
<path opacity="0.3" fill="#00A79D" enable-background="new    " d="M1565.172-557.342c-0.026,0.01-0.051,0.019-0.075,0.029
	c0.024,0.096,0.048,0.202,0.096,0.06c-0.047,0.142-0.072,0.036-0.096-0.06c-0.041,0.017-0.078,0.035-0.103,0.06
	c0.024-0.12,0.042-0.164,0.057-0.167c-0.024-0.015-0.048-0.029-0.073-0.043c-0.119,0.011-0.239,0.011-0.381,0.011l0.099-0.099
	c-0.893,0.298-1.786,0.595-2.778,0.298c0.992,0.298,1.885,0,2.778-0.298l-0.099,0.099c0.143,0,0.263,0,0.381-0.011
	c-0.409-0.235-0.883-0.37-1.389-0.37c-0.642,0-1.233,0.216-1.705,0.58c-0.664,0.511-1.092,1.314-1.092,2.217
	c0,1.544,1.252,2.796,2.796,2.796c1.544,0,2.796-1.252,2.796-2.796C1566.386-555.993,1565.905-556.838,1565.172-557.342z"/>
<polygon opacity="0.3" fill="#0071BC" enable-background="new    " points="1682.28,-516.406 1684.346,-524.785 1692.635,-527.186 
	1698.858,-521.207 1696.793,-512.829 1688.504,-510.428 "/>
<polygon opacity="0.3" fill="#0071BC" enable-background="new    " points="1622.892,-560.411 1628.299,-582.346 1649.999,-588.63 
	1666.292,-572.98 1660.884,-551.045 1639.184,-544.76 "/>
<polygon opacity="0.3" fill="#0071BC" enable-background="new    " points="1681.918,-508.677 1647.984,-528.542 1648.221,-567.862 
	1682.392,-587.317 1716.326,-567.452 1716.089,-528.132 "/>
<polygon opacity="0.3" fill="#0071BC" enable-background="new    " points="1639.306,-571.975 1631.237,-574.684 1629.549,-583.027 
	1635.929,-588.66 1643.998,-585.951 1645.687,-577.609 "/>
<polygon opacity="0.7" fill="#2E5F92" points="1605.012,-554.838 1606.382,-560.396 1611.88,-561.989 1616.008,-558.023 
	1614.638,-552.465 1609.14,-550.873 "/>
<polygon opacity="0.3" fill="#27AAE1" enable-background="new    " points="1702.254,-517.21 1703.624,-522.768 1709.123,-524.36 
	1713.251,-520.395 1711.881,-514.837 1706.382,-513.244 "/>
<polygon opacity="0.9" fill="#27AAE1" enable-background="new    " points="1652.164,-526.758 1655.779,-541.421 1670.285,-545.622 
	1681.176,-535.16 1677.561,-520.497 1663.055,-516.297 "/>
<polygon fill="#23309F" points="1597.194,-552.474 1583.053,-563.658 1599.81,-570.313 "/>
<polygon opacity="0.8" fill="#27AAE1" enable-background="new    " points="1578.386,-535.212 1581.921,-549.864 1592.842,-539.477 
	"/>
<polygon fill="#2E5F92" points="1598.534,-519.79 1589.773,-561.962 1631.882,-548.714 "/>
<polygon fill="#00FFFF" points="1585.231,-524.072 1578.838,-529.129 1586.414,-532.138 "/>
<polygon opacity="0.8" fill="#27AAE1" enable-background="new    " points="1610.157,-553.762 1600.382,-561.493 1611.965,-566.093 
	"/>
<polygon fill="#23309F" points="1603.481,-520.507 1589.445,-537.702 1611.355,-541.26 "/>
<circle opacity="0.7" fill="#2E5F92" cx="1634.07" cy="-535.362" r="22.545"/>
<path opacity="0.8" fill="#27AAE1" enable-background="new    " d="M1650.882-565.651c-0.094,0.035-0.187,0.069-0.275,0.105
	c0.087,0.353,0.178,0.741,0.351,0.22c-0.173,0.52-0.264,0.133-0.351-0.22c-0.152,0.062-0.287,0.13-0.377,0.22
	c0.088-0.442,0.155-0.604,0.211-0.613c-0.088-0.054-0.178-0.105-0.268-0.157c-0.437,0.04-0.877,0.041-1.401,0.041l0.364-0.364
	c-3.279,1.093-6.558,2.186-10.201,1.093c3.643,1.093,6.922,0,10.201-1.093l-0.364,0.364c0.524,0,0.964-0.001,1.401-0.041
	c-1.503-0.863-3.244-1.359-5.102-1.359c-2.356,0-4.527,0.794-6.26,2.128c-2.438,1.878-4.008,4.826-4.008,8.141
	c0,5.671,4.598,10.269,10.269,10.269s10.269-4.598,10.269-10.269C1655.341-560.7,1653.574-563.8,1650.882-565.651z"/>
<path fill="#00242B" d="M1661.378-562.961c-0.05,0.019-0.099,0.037-0.146,0.056c0.046,0.188,0.095,0.394,0.187,0.117
	c-0.092,0.277-0.141,0.07-0.187-0.117c-0.081,0.033-0.153,0.069-0.201,0.117c0.047-0.235,0.083-0.321,0.112-0.326
	c-0.047-0.029-0.095-0.056-0.142-0.083c-0.232,0.021-0.466,0.022-0.745,0.022l0.194-0.194c-1.743,0.581-3.486,1.162-5.422,0.581
	c1.936,0.581,3.679,0,5.422-0.581l-0.194,0.194c0.279,0,0.512-0.001,0.745-0.022c-0.799-0.459-1.725-0.722-2.712-0.722
	c-1.253,0-2.406,0.422-3.328,1.131c-1.296,0.998-2.131,2.565-2.131,4.327c0,3.014,2.444,5.458,5.458,5.458s5.458-2.444,5.458-5.458
	C1663.748-560.329,1662.809-561.977,1661.378-562.961z"/>
<path fill="#2E3192" d="M1656.913-550.045c-0.013,0.005-0.026,0.01-0.039,0.015c0.012,0.05,0.025,0.104,0.049,0.031
	c-0.024,0.073-0.037,0.019-0.049-0.031c-0.021,0.009-0.04,0.018-0.053,0.031c0.012-0.062,0.022-0.085,0.03-0.086
	c-0.012-0.008-0.025-0.015-0.038-0.022c-0.061,0.006-0.123,0.006-0.197,0.006l0.051-0.051c-0.46,0.153-0.921,0.307-1.432,0.153
	c0.511,0.153,0.972,0,1.432-0.153l-0.051,0.051c0.074,0,0.135,0,0.197-0.006c-0.211-0.121-0.455-0.191-0.716-0.191
	c-0.331,0-0.636,0.111-0.879,0.299c-0.342,0.264-0.563,0.677-0.563,1.143c0,0.796,0.645,1.442,1.442,1.442s1.442-0.645,1.442-1.442
	C1657.539-549.35,1657.291-549.785,1656.913-550.045z"/>
<path opacity="0.9" fill="#27AAE1" enable-background="new    " d="M1633.347-566.834c-0.032,0.012-0.064,0.024-0.094,0.036
	c0.03,0.121,0.061,0.255,0.121,0.076c-0.06,0.179-0.091,0.046-0.121-0.076c-0.052,0.021-0.099,0.045-0.13,0.076
	c0.03-0.152,0.053-0.208,0.073-0.211c-0.03-0.019-0.061-0.036-0.092-0.054c-0.15,0.014-0.302,0.014-0.482,0.014l0.125-0.125
	c-1.129,0.376-2.257,0.752-3.511,0.376c1.254,0.376,2.383,0,3.511-0.376l-0.125,0.125c0.18,0,0.332,0,0.482-0.014
	c-0.518-0.297-1.117-0.468-1.756-0.468c-0.811,0-1.558,0.273-2.155,0.733c-0.839,0.646-1.38,1.661-1.38,2.802
	c0,1.952,1.583,3.535,3.535,3.535s3.535-1.582,3.535-3.535C1634.882-565.129,1634.274-566.197,1633.347-566.834z"/>
<path fill="#23309F" d="M1620.269-559.752c-0.042,0.016-0.084,0.031-0.124,0.047c0.039,0.159,0.08,0.333,0.158,0.099
	c-0.078,0.234-0.119,0.06-0.158-0.099c-0.068,0.028-0.129,0.059-0.17,0.099c0.04-0.199,0.07-0.272,0.095-0.276
	c-0.04-0.024-0.08-0.047-0.12-0.071c-0.197,0.018-0.395,0.019-0.63,0.019l0.164-0.164c-1.475,0.492-2.951,0.984-4.59,0.492
	c1.639,0.492,3.114,0,4.59-0.492l-0.164,0.164c0.236,0,0.434,0,0.63-0.019c-0.676-0.388-1.46-0.611-2.296-0.611
	c-1.06,0-2.037,0.357-2.817,0.958c-1.097,0.845-1.804,2.171-1.804,3.663c0,2.552,2.069,4.62,4.62,4.62c2.552,0,4.62-2.069,4.62-4.62
	C1622.275-557.524,1621.481-558.919,1620.269-559.752z"/>
<path fill="#27AAE1" d="M1610.945-540.549c-0.044,0.017-0.088,0.033-0.13,0.05c0.041,0.166,0.084,0.349,0.166,0.104
	c-0.082,0.245-0.125,0.063-0.166-0.104c-0.072,0.029-0.135,0.061-0.178,0.104c0.042-0.208,0.073-0.285,0.1-0.289
	c-0.042-0.026-0.084-0.05-0.126-0.074c-0.206,0.019-0.414,0.019-0.661,0.019l0.172-0.172c-1.547,0.516-3.094,1.031-4.812,0.516
	c1.719,0.516,3.265,0,4.812-0.516l-0.172,0.172c0.247,0,0.455-0.001,0.661-0.019c-0.709-0.407-1.531-0.641-2.407-0.641
	c-1.112,0-2.136,0.374-2.953,1.004c-1.15,0.886-1.891,2.276-1.891,3.84c0,2.675,2.169,4.844,4.844,4.844
	c2.675,0,4.844-2.169,4.844-4.844C1613.048-538.213,1612.215-539.676,1610.945-540.549z"/>
<path opacity="0.3" fill="#29ABE2" enable-background="new    " d="M1646.208-521.848c-0.049,0.018-0.097,0.036-0.143,0.055
	c0.045,0.184,0.093,0.386,0.183,0.115c-0.09,0.271-0.138,0.069-0.183-0.115c-0.079,0.032-0.15,0.068-0.197,0.115
	c0.046-0.23,0.081-0.314,0.11-0.319c-0.046-0.028-0.093-0.055-0.139-0.082c-0.228,0.021-0.457,0.021-0.73,0.021l0.19-0.19
	c-1.708,0.569-3.416,1.139-5.314,0.569c1.898,0.569,3.606,0,5.314-0.569l-0.19,0.19c0.273,0,0.502-0.001,0.73-0.021
	c-0.783-0.449-1.69-0.708-2.658-0.708c-1.227,0-2.358,0.413-3.261,1.109c-1.27,0.978-2.088,2.514-2.088,4.24
	c0,2.954,2.395,5.349,5.349,5.349s5.349-2.395,5.349-5.349C1648.53-519.269,1647.61-520.883,1646.208-521.848z"/>
<path opacity="0.7" fill="#2E3192" d="M1603.368-556.304c-0.019,0.007-0.038,0.014-0.055,0.021c0.018,0.071,0.036,0.149,0.071,0.044
	c-0.035,0.105-0.053,0.027-0.071-0.044c-0.031,0.013-0.058,0.026-0.076,0.044c0.018-0.089,0.031-0.122,0.042-0.123
	c-0.018-0.011-0.036-0.021-0.054-0.032c-0.088,0.008-0.176,0.008-0.282,0.008l0.073-0.073c-0.66,0.22-1.32,0.44-2.053,0.22
	c0.733,0.22,1.393,0,2.053-0.22l-0.073,0.073c0.105,0,0.194,0,0.282-0.008c-0.303-0.174-0.653-0.273-1.027-0.273
	c-0.474,0-0.911,0.16-1.26,0.428c-0.491,0.378-0.807,0.971-0.807,1.638c0,1.142,0.925,2.067,2.067,2.067
	c1.142,0,2.067-0.925,2.067-2.067C1604.265-555.307,1603.91-555.931,1603.368-556.304z"/>
<polygon opacity="0.6" fill="#29ABE2" enable-background="new    " points="1690.71,-523.438 1692.236,-529.631 1698.363,-531.406 
	1702.963,-526.987 1701.436,-520.794 1695.31,-519.019 "/>
<polygon fill="#2E5F92" points="1648.813,-555.964 1652.81,-572.177 1668.849,-576.822 1680.892,-565.254 1676.895,-549.041 
	1660.855,-544.396 "/>
<polygon fill="#23309F" points="1691.067,-520.274 1665.985,-534.957 1666.16,-564.02 1691.417,-578.401 1716.499,-563.717 
	1716.324,-534.654 "/>
<polygon opacity="0.8" fill="#27AAE1" enable-background="new    " points="1659.571,-565.365 1653.607,-567.367 1652.359,-573.533 
	1657.075,-577.697 1663.039,-575.695 1664.287,-569.529 "/>
<polygon opacity="0.8" fill="#2E5F92" points="1635.065,-544.453 1636.077,-548.562 1640.141,-549.739 1643.193,-546.807 
	1642.18,-542.699 1638.116,-541.522 "/>
<polygon opacity="0.8" fill="#27AAE1" enable-background="new    " points="1705.473,-524.032 1706.486,-528.14 1710.55,-529.317 
	1713.601,-526.386 1712.589,-522.278 1708.524,-521.101 "/>
<polygon opacity="0.8" fill="#2E5F92" points="1563.471,-554.57 1571.112,-564.814 1576.163,-553.074 "/>
<polygon opacity="0.8" fill="#27AAE1" enable-background="new    " points="1549.809,-567.72 1560.261,-565.509 1553.12,-557.563 
	"/>
<polygon fill="#23309F" points="1541.98,-555.084 1571.685,-562.136 1563.141,-532.035 "/>
<polygon fill="#00FFFF" points="1544.748,-564.595 1548.203,-569.227 1550.486,-563.919 "/>
<polygon opacity="0.8" fill="#27AAE1" enable-background="new    " points="1563.589,-545.581 1568.87,-552.661 1572.362,-544.547 
	"/>
<polygon opacity="0.8" fill="#27AAE1" enable-background="new    " points="1531.696,-549.355 1543.598,-559.644 1546.558,-544.192 
	"/>
<path fill="#27AAE1" d="M1554.242-544.758c-0.013-0.031-0.025-0.062-0.038-0.091c-0.117,0.032-0.246,0.066-0.07,0.119
	c-0.176-0.053-0.047-0.087,0.07-0.119c-0.022-0.05-0.046-0.095-0.077-0.124c0.148,0.025,0.203,0.046,0.207,0.065
	c0.017-0.03,0.034-0.06,0.05-0.091c-0.018-0.146-0.022-0.293-0.027-0.468l0.125,0.118c-0.396-1.086-0.793-2.171-0.462-3.399
	c-0.331,1.228,0.065,2.314,0.462,3.399l-0.125-0.118c0.005,0.175,0.009,0.322,0.027,0.468c0.274-0.511,0.423-1.097,0.406-1.718
	c-0.022-0.788-0.308-1.506-0.771-2.072c-0.651-0.797-1.651-1.294-2.759-1.263c-1.896,0.054-3.389,1.634-3.335,3.529
	s1.634,3.389,3.529,3.335C1552.629-543.221,1553.649-543.841,1554.242-544.758z"/>
<path fill="#2E3192" d="M1565.253-550.442c-0.005-0.013-0.011-0.026-0.016-0.039c-0.05,0.014-0.105,0.028-0.03,0.051
	c-0.075-0.023-0.02-0.037,0.03-0.051c-0.009-0.021-0.02-0.04-0.033-0.053c0.063,0.011,0.087,0.02,0.088,0.028
	c0.007-0.013,0.014-0.026,0.021-0.039c-0.008-0.062-0.009-0.125-0.012-0.2l0.053,0.051c-0.169-0.463-0.338-0.926-0.197-1.45
	c-0.141,0.524,0.028,0.987,0.197,1.45l-0.053-0.051c0.002,0.075,0.004,0.138,0.012,0.2c0.117-0.218,0.181-0.468,0.173-0.733
	c-0.009-0.336-0.131-0.642-0.329-0.884c-0.278-0.34-0.704-0.552-1.177-0.539c-0.809,0.023-1.446,0.697-1.423,1.506
	c0.023,0.809,0.697,1.446,1.506,1.423C1564.565-549.786,1565-550.051,1565.253-550.442z"/>
<path opacity="0.7" fill="#2E5F92" d="M1530.173-553.976c-0.092,0.034-0.183,0.068-0.268,0.103c0.085,0.345,0.174,0.724,0.343,0.215
	c-0.169,0.509-0.258,0.13-0.343-0.215c-0.149,0.061-0.281,0.127-0.369,0.215c0.086-0.432,0.152-0.59,0.206-0.599
	c-0.086-0.053-0.174-0.103-0.262-0.153c-0.427,0.039-0.857,0.04-1.369,0.04l0.356-0.356c-3.205,1.068-6.409,2.136-9.97,1.068
	c3.561,1.068,6.765,0,9.97-1.068l-0.356,0.356c0.512,0,0.942-0.001,1.369-0.04c-1.469-0.843-3.171-1.328-4.987-1.328
	c-2.303,0-4.425,0.776-6.119,2.08c-2.383,1.835-3.918,4.716-3.918,7.956c0,5.543,4.493,10.036,10.036,10.036
	c5.543,0,10.036-4.493,10.036-10.036C1534.53-549.136,1532.804-552.166,1530.173-553.976z"/>
<path fill="#2E5F92" d="M1536.923-542.377c-0.048,0.018-0.095,0.035-0.14,0.054c0.044,0.18,0.091,0.377,0.179,0.112
	c-0.088,0.265-0.135,0.067-0.179-0.112c-0.077,0.032-0.146,0.066-0.192,0.112c0.045-0.225,0.079-0.307,0.107-0.312
	c-0.045-0.028-0.091-0.054-0.136-0.08c-0.222,0.02-0.446,0.021-0.713,0.021l0.185-0.185c-1.669,0.556-3.338,1.113-5.193,0.556
	c1.855,0.556,3.524,0,5.193-0.556l-0.185,0.185c0.267,0,0.491-0.001,0.713-0.021c-0.765-0.439-1.652-0.692-2.597-0.692
	c-1.2,0-2.305,0.404-3.187,1.083c-1.241,0.956-2.041,2.457-2.041,4.144c0,2.887,2.341,5.228,5.228,5.228
	c2.887,0,5.228-2.34,5.228-5.228C1539.193-539.856,1538.293-541.434,1536.923-542.377z"/>
<polygon fill="#23309F" points="1526.119,-577.193 1527.109,-581.208 1531.081,-582.359 1534.063,-579.494 1533.073,-575.479 
	1529.101,-574.329 "/>
<polygon fill="#2E5F92" points="1685.643,-478.214 1677.909,-515.444 1715.083,-503.748 "/>
<polygon opacity="0.8" fill="#27AAE1" enable-background="new    " points="1698.158,-499.306 1701.693,-513.958 1712.614,-503.571 
	"/>
<polygon opacity="0.3" fill="#0071BC" enable-background="new    " points="1709.441,-483.097 1701.372,-485.806 1699.684,-494.149 
	1706.064,-499.782 1714.133,-497.073 1715.822,-488.731 "/>
<polygon fill="#2E5F92" points="1696.288,-572.342 1703.203,-578.089 1711.638,-574.974 1713.158,-566.112 1706.243,-560.364 
	1697.808,-563.479 "/>
<polygon opacity="0.5" fill="#29ABE2" enable-background="new    " points="1685.406,-534.099 1673,-537.413 1669.667,-549.814 
	1678.741,-558.901 1691.147,-555.586 1694.48,-543.185 "/>
<polygon opacity="0.9" fill="#23309F" points="1671.794,-521.9 1683.696,-532.19 1686.656,-516.737 "/>
</svg>
