<?xml version="1.0" encoding="utf-8"?>
<!-- Generator: Adobe Illustrator 22.0.1, SVG Export Plug-In . SVG Version: 6.00 Build 0)  -->
<svg version="1.1" id="Calque_1" xmlns="http://www.w3.org/2000/svg" xmlns:xlink="http://www.w3.org/1999/xlink" x="0px" y="0px"
	 viewBox="0 0 200 200" style="enable-background:new 0 0 200 200;" xml:space="preserve">
<style type="text/css">
	.st0{fill:#fff;}
</style>
<path class="st0" d="M94.5,182c-0.3,2.3-2.4,3.9-4.5,3.6c-2.3-0.3-3.9-2.4-3.6-4.7c0.3-2.2,2.4-3.7,4.6-3.4
	C93.2,177.7,94.8,179.8,94.5,182"/>
<path class="st0" d="M48.9,161.1l-1.4,5.6l0.1,0l5.1-2.7L48.9,161.1z M60.2,163.6l-15.9,7.9c-0.1,0.1-0.3,0.1-0.5,0l-0.2-0.1
	c-0.2-0.1-0.2-0.3-0.2-0.5l4.3-17.2c0.1-0.3,0.4-0.5,0.7-0.2l1.6,1.3c0.3,0.2,0.3,0.4,0.2,0.8l-0.7,2.8l5.6,4.5l2.5-1.3
	c0.2-0.1,0.5-0.2,0.8,0.1l1.6,1.3C60.5,163,60.5,163.4,60.2,163.6"/>
<path class="st0" d="M16.1,133c-0.2,0.1-0.5,0-0.6-0.3l-3.1-9.3c-0.1-0.3,0.1-0.5,0.3-0.6l1.9-0.6c0.2-0.1,0.5,0,0.6,0.3l2.3,6.7
	l4.3-1.4l-1.9-5.6c-0.1-0.2,0.1-0.5,0.3-0.6l1.9-0.6c0.2-0.1,0.5,0.1,0.6,0.3l1.9,5.6l5.8-1.9c0.2-0.1,0.5,0.1,0.6,0.3l0.7,2.1
	c0.1,0.3-0.1,0.5-0.3,0.6L16.1,133z"/>
<path class="st0" d="M11.2,83.2c-0.2-0.1-0.4-0.3-0.3-0.5l0.5-2.2c0.1-0.2,0.3-0.4,0.5-0.3L25,83.1l1.3-6c0.1-0.3,0.3-0.4,0.5-0.3
	l1.9,0.4c0.2,0.1,0.4,0.3,0.3,0.5l-1.9,8.6c-0.1,0.3-0.3,0.4-0.5,0.3L11.2,83.2z"/>
<path class="st0" d="M31.9,39.4c-0.2-0.2-0.2-0.5,0-0.6l1.6-1.6c0.2-0.2,0.5-0.2,0.6,0l6.9,6.9c1.4,1.4,3.6,1.6,5,0.1
	c1.5-1.5,1.3-3.6-0.1-5l-7-7c-0.2-0.2-0.2-0.5,0-0.6l1.6-1.6c0.2-0.2,0.5-0.2,0.6,0l7.1,7.1c2.6,2.6,2.6,6.7-0.1,9.4
	C45.7,49,41.6,49,39,46.4L31.9,39.4z"/>
<path class="st0" d="M78.2,10.7c0-0.2,0.1-0.5,0.4-0.5l9.6-1.9c0.3-0.1,0.5,0.1,0.5,0.4l0.4,1.9c0,0.2-0.1,0.5-0.4,0.5l-7,1.4
	l0.8,3.9l5.8-1.2c0.2,0,0.5,0.1,0.5,0.4l0.4,2c0.1,0.3-0.1,0.5-0.4,0.5l-5.8,1.2l0.8,4.1l7-1.4c0.3-0.1,0.5,0.1,0.5,0.4l0.4,1.9
	c0,0.2-0.1,0.5-0.4,0.5l-9.6,1.9c-0.3,0.1-0.5-0.1-0.5-0.4L78.2,10.7z"/>
<path class="st0" d="M129.4,11.7c0.1-0.2,0.4-0.3,0.6-0.2l0.6,0.2l5.2,13.6l0,0l3.7-9.2c0.1-0.2,0.3-0.4,0.6-0.3l2,0.8
	c0.2,0.1,0.3,0.4,0.3,0.6l-6.1,15c-0.1,0.2-0.4,0.3-0.6,0.2l-0.5-0.2l-5.1-14l0,0l-3.9,9.6c-0.1,0.2-0.3,0.3-0.6,0.3l-2-0.8
	c-0.2-0.1-0.3-0.4-0.3-0.6L129.4,11.7z"/>
<path class="st0" d="M162.3,51.1l1.7-0.1c0.4,0,0.6,0.3,0.6,0.6c0,0.1-0.1,2.5,0.8,3.8c0.7,1,1.9,1.3,2.8,0.8c1-0.7,1.1-2,0.6-4.1
	c-0.5-2.4-0.6-5,1.7-6.7c1.8-1.2,4.7-1.3,6.9,1.8c1.4,2,1.4,4.3,1.4,4.9c0,0.3-0.3,0.6-0.6,0.6l-1.6,0c-0.3,0-0.7-0.2-0.7-0.5
	c0-0.2-0.1-2.4-0.8-3.5c-0.8-1.1-1.9-1.2-2.6-0.8c-0.9,0.6-1.1,1.8-0.6,3.9c0.5,2.4,0.9,5.4-1.6,7.2c-2,1.4-5.1,0.9-7-1.9
	c-1.7-2.5-1.5-4.8-1.4-5.4C161.9,51.3,161.9,51.2,162.3,51.1"/>
<path class="st0" d="M183.6,89c2.3-0.2,4.3,1.5,4.4,3.7c0.2,2.3-1.5,4.3-3.8,4.5c-2.2,0.2-4.2-1.6-4.3-3.8
	C179.7,91.1,181.4,89.1,183.6,89"/>
<path class="st0" d="M74.6,95.3c1.1,0,2,0.4,2.7,1c0.1,0.1,0.1,0.2,0,0.3c-0.2,0.2-0.3,0.3-0.5,0.5c-0.1,0.1-0.2,0.1-0.3,0
	c-0.5-0.5-1.2-0.8-1.9-0.8c-1.6,0-2.8,1.4-2.8,2.9c0,1.6,1.2,2.9,2.8,2.9c0.9,0,1.6-0.3,1.7-0.4v-1.3h-1.1c-0.1,0-0.2-0.1-0.2-0.2
	v-0.7c0-0.1,0.1-0.2,0.2-0.2h2c0.1,0,0.2,0.1,0.2,0.2c0,0.9,0,1.8,0,2.7c0,0.1,0,0.1-0.1,0.2c0,0-1.2,0.7-2.8,0.7c-2.2,0-4-1.8-4-4
	C70.6,97.1,72.4,95.3,74.6,95.3"/>
<path class="st0" d="M85.8,99.2c0.7,0,1.4-0.6,1.4-1.4c0-0.7-0.6-1.3-1.4-1.3h-2v2.7H85.8z M82.6,95.6c0-0.1,0.1-0.2,0.2-0.2h3.1
	c1.3,0,2.5,1.1,2.5,2.4c0,1-0.7,1.9-1.7,2.3l1.5,2.9c0.1,0.1,0,0.3-0.2,0.3h-0.9c-0.1,0-0.2-0.1-0.2-0.1l-1.5-3h-1.7v2.9
	c0,0.1-0.1,0.2-0.2,0.2h-0.7c-0.1,0-0.2-0.1-0.2-0.2V95.6z"/>
<path class="st0" d="M96.9,102.3c1.6,0,2.9-1.3,2.9-2.9c0-1.6-1.3-2.9-2.9-2.9c-1.6,0-2.9,1.3-2.9,2.9C94,101,95.3,102.3,96.9,102.3
	 M96.9,95.3c2.2,0,4,1.8,4,4.1c0,2.2-1.8,4-4,4s-4-1.8-4-4C92.9,97.1,94.7,95.3,96.9,95.3"/>
<path class="st0" d="M105.9,95.6c0-0.1,0.1-0.2,0.2-0.2h0.8c0.1,0,0.2,0.1,0.2,0.2v4.6c0,1.1,0.7,2,1.9,2c1.2,0,1.9-0.9,1.9-2v-4.7
	c0-0.1,0.1-0.2,0.2-0.2h0.8c0.1,0,0.2,0.1,0.2,0.2v4.7c0,1.7-1.3,3-3.1,3c-1.8,0-3-1.3-3-3V95.6z"/>
<path class="st0" d="M120.1,99.3c0.8,0,1.4-0.6,1.4-1.4c0-0.8-0.7-1.3-1.4-1.3h-1.6v2.8H120.1z M117.4,95.6c0-0.1,0.1-0.2,0.2-0.2
	h2.6c1.4,0,2.5,1.1,2.5,2.5c0,1.4-1.1,2.5-2.5,2.5h-1.6v2.6c0,0.1-0.1,0.2-0.2,0.2h-0.7c-0.1,0-0.2-0.1-0.2-0.2V95.6z"/>
<path class="st0" d="M127.5,95.6c0-0.1,0.1-0.2,0.2-0.2h4.5c0.1,0,0.2,0.1,0.2,0.2v0.6c0,0.1-0.1,0.2-0.2,0.2h-3.6v2.3h3
	c0.1,0,0.2,0.1,0.2,0.2v0.6c0,0.1-0.1,0.2-0.2,0.2h-3v2.4h3.6c0.1,0,0.2,0.1,0.2,0.2v0.6c0,0.1-0.1,0.2-0.2,0.2h-4.5
	c-0.1,0-0.2-0.1-0.2-0.2V95.6z"/>
</svg>
